<svg id="Layer_1" data-name="Layer 1" xmlns="http://www.w3.org/2000/svg" viewBox="0 0 79 84.2"><defs><style>.cls-1{fill:#ff3c4e;}.cls-2{opacity:0.48;}.cls-3,.cls-7{fill:#ffd488;}.cls-12,.cls-4{opacity:0.08;}.cls-12,.cls-5{fill:#c42260;}.cls-6{opacity:0.63;}.cls-10,.cls-11,.cls-7,.cls-8{opacity:0.34;}.cls-10,.cls-12,.cls-7,.cls-8{isolation:isolate;}.cls-14,.cls-8{fill:#ffc05c;}.cls-9{fill:#fff;}.cls-10{fill:none;stroke:#ffd488;stroke-miterlimit:10;stroke-width:0.09px;}.cls-13{fill:#efe1ca;}.cls-15{fill:#cb3e74;}.cls-16{fill:#bc1e5b;}.cls-17{fill:#681b4e;}.cls-18{fill:#300223;}.cls-19{fill:#210119;}.cls-20{fill:#3d0430;}.cls-21{fill:#fec3c7;}.cls-22{fill:#f4b8bd;}.cls-23{fill:#e5a5ad;}.cls-24{fill:#d3245e;}.cls-25{fill:#3a0328;}</style></defs><title>women1</title><path class="cls-1" d="M23.3,45.5h0Z" transform="translate(-9.8 -8.4)"/><g class="cls-2"><path class="cls-3" d="M76.4,41.4,76,41l-.3.2h-.3v-.4H75l-.2.3h-.4l-.2-.3h-.4v.4h-.2l-.3-.2-.4.4.2.3-.2.3h-.3l-.2.5.3.2h0V43h0l-.3.2.2.5h.3c.1,0,.1.1.2.2l-.2.4.4.3.3-.2.2.2V45h.4l.2-.3h.4l.2.3h.4v-.4l.3-.2.3.2.4-.3-.2-.4c.1-.1.1-.2.2-.2h.3v-.5l-.3-.2h0v-.2h0l.3-.2V42h-.3l-.2-.3Zm-.8,2.5a1.5,1.5,0,0,1-2,0,1.5,1.5,0,0,1,0-2.1,1.3,1.3,0,0,1,2,0A1.4,1.4,0,0,1,75.6,43.9Z" transform="translate(-9.8 -8.4)"/><path class="cls-3" d="M76.4,41.4,76,41h-.2a.1.1,0,0,1-.1.1h-.1c-.1,0-.2,0-.2-.1h0v-.2h-.5l-.2.3h0a.2.2,0,0,0-.3,0h0l-.2-.3h-.5v.2s.1.1,0,.1a.1.1,0,0,1-.1.1h-.1a.1.1,0,0,1-.1-.1h-.3l-.3.4h0v.2a.1.1,0,0,1,.1.1h-.1c0,.1-.1.1-.1.2h-.4a.6.6,0,0,1-.1.4h0l.3.2h0v.2h0l-.3.2h0a.9.9,0,0,1,.1.5h.5v.2h-.1v.2h0l.3.3h.4a.1.1,0,0,1,.1.1h.1c.1.1,0,.1,0,.2s.1.1.1.2h.4l.2-.2h.4V45h.5v-.4h.2a.1.1,0,0,1,.1-.1h.4l.3-.3h0c0-.1-.1-.1-.1-.2h-.1c0-.1.1-.1.1-.2h.4c.1-.1.1-.3.2-.5h-.4a.4.4,0,0,0,.1-.3h0l.2-.2h.1c-.1-.1-.1-.3-.2-.4h-.3c-.1-.1-.1-.1-.1-.2h-.1a.1.1,0,0,1,.1-.1c0-.1,0-.2.1-.2h0c-.1.1-.2.2-.2.3s.1.2.1.3h.4c0,.1.1.1.1.2v.2h-.2c-.1.1-.1.2-.1.4h.1c-.1,0,.2.1.2.2v.2a.3.3,0,0,1-.1.2h-.3a.2.2,0,0,0-.2.2h0c.1,0,.1.2.1.2v.2h-.1c-.1.1-.1.1-.2,0h-.5v.2c0,.2,0,.1-.1.2H75c-.1.1-.1.1-.1,0v-.2h-.5a.3.3,0,0,1-.1.2h-.4c-.1-.1,0-.2-.1-.3s.1-.1,0-.1-.1-.1-.2-.2l-.4.2-.3-.3c0-.1.2-.3.2-.4s-.1-.2-.2-.2-.1,0-.2,0h-.2v-.3c-.1-.1-.1-.1,0-.2h.2v-.3a.1.1,0,0,0-.1-.1h-.2v-.4h.4a.1.1,0,0,1,.1-.1c0-.1.1-.1.1-.2a.3.3,0,0,1-.1-.2.1.1,0,0,1-.1-.1l.2-.2a.1.1,0,0,0,.1-.1h.6a.6.6,0,0,1,.1-.4h.4l.2.3h.4a1,1,0,0,0,.1-.3h.5v.3l.3.2c.1-.1.2-.1.2-.2s.2,0,.2.1l.3.2Z" transform="translate(-9.8 -8.4)"/><path class="cls-3" d="M75.6,43.8a1.3,1.3,0,0,1-2,0,1.4,1.4,0,0,1-.5-1.1,1.6,1.6,0,0,1,1.1-1.3,1.5,1.5,0,0,1,1.8,1,1.4,1.4,0,0,1-.4,1.4h0a1.5,1.5,0,0,0,.3-1.7,1.4,1.4,0,0,0-2.7.3,1.2,1.2,0,0,0,.6,1.5,1.4,1.4,0,0,0,1.8-.1Z" transform="translate(-9.8 -8.4)"/></g><g class="cls-4"><path class="cls-5" d="M30.4,20.9l-.3-.3h-.6v-.4H29l-.2.3h-.3l-.3-.3h-.4v.4h-.6l-.4.3.2.3-.2.3h-.3V22l.3.2v.3h0l-.3.2v.4h.3l.2.3-.2.3.4.3h.6v.4h.4l.3-.3h.3l.2.3h.4v-.4h.6l.3-.3-.2-.3.2-.3h.4v-.4l-.3-.2h0v-.3l.3-.2v-.5h-.4l-.2-.3Zm-.8,2.5a1.4,1.4,0,0,1-2,0h0a1.5,1.5,0,0,1,0-2.1,1.3,1.3,0,0,1,2,0A1.4,1.4,0,0,1,29.6,23.4Z" transform="translate(-9.8 -8.4)"/><path class="cls-5" d="M30.4,20.9l-.3-.3h-.6c-.1-.1,0-.1,0-.2a.3.3,0,0,1-.1-.2H29l-.2.3h-.3l-.2-.3h-.5v.2h0c0,.1-.1.1-.2.1h-.4l-.4.4h0c.1,0,.1.1.1.2h0c0,.1-.1.1-.1.2h-.4a.6.6,0,0,1-.1.4h0l.3.2h0s0,.2.1.2h-.1l-.3.2h0a.9.9,0,0,1,.1.5h.5c0,.1.1.1.1.2a.1.1,0,0,0-.1.1c0,.1,0,.1-.1.2h0l.4.3h.6v.4h.5v-.2a.1.1,0,0,1,.1-.1h.3l.2.2h.4v-.2h0a.1.1,0,0,0,.1-.1h.5l.3-.3h0v-.2a.1.1,0,0,0-.1-.1c0-.1.1-.1.1-.2h.5a.9.9,0,0,1,.1-.5h0l-.3-.2h0v-.2h.1l.2-.2h0a.6.6,0,0,1-.1-.4h-.4c0-.1-.1-.1-.1-.2h0v-.2h0l-.2.3c0,.1.1.2.2.3h.4v.3c.1.1.1,0,0,.1h-.2c-.1.1,0,.2,0,.4h0l.3.2v.2c0,.1,0,.2-.1.2h-.3l-.2.3h.1c0,.1.1.2.1.3h-.1a.2.2,0,0,0-.2.2c-.1,0-.1,0-.1-.1h-.6v.2c0,.2,0,.1-.1.2h-.2c-.1.1-.1.1-.2,0v-.2h-.5v.2h-.4v-.3h0l-.3-.2-.3.2-.4-.3c0-.1.2-.3.2-.4l-.2-.3h-.3a.4.4,0,0,1-.1-.3c0-.1-.1-.1,0-.2h.3v-.4h-.1a.2.2,0,0,1-.2-.2c-.1,0,0-.1,0-.1a.5.5,0,0,1,.1-.3h.3a.1.1,0,0,0,.1-.1V21a.1.1,0,0,0-.1-.1l.2-.2.2-.2c0,.1.1.1.2.1h.4v-.4h.5c0,.1.1.3.2.3h.3c0-.1.1-.3.2-.3h.4c.1.1,0,.3,0,.4h.8l.2.2Z" transform="translate(-9.8 -8.4)"/><path class="cls-5" d="M29.6,23.4a1.6,1.6,0,0,1-1.6.3,1.4,1.4,0,0,1-.8-1.5,1.4,1.4,0,0,1,1-1.3,1.6,1.6,0,0,1,1.6.6,1.5,1.5,0,0,1-.2,1.9h0a1.5,1.5,0,0,0,.4-1.7,1.6,1.6,0,0,0-2-.7,1.5,1.5,0,0,0-.7,2l.5.6a1.5,1.5,0,0,0,1.8-.2Z" transform="translate(-9.8 -8.4)"/></g><path class="cls-3" d="M73.4,23.3l-.8-.7-.8.3-.6-.3v-.8l-1.1-.3-.4.7h-.8l-.4-.7-1.1.3v.8l-.6.3-.8-.3-.8.7.4.8-.3.6h-.9l-.3,1,.7.5V27h0l-.7.5.3,1h.9l.3.6-.4.7.8.8.8-.4.6.4v.8l1.1.3.4-.7h.8l.4.7,1.1-.3v-.8l.6-.4.8.4.8-.8-.4-.7.3-.6h.9l.2-1-.6-.5h0v-.7l.6-.5-.2-1h-.9l-.3-.6ZM71.6,29a3.3,3.3,0,1,1,0-4.7,3.2,3.2,0,0,1,.1,4.6.1.1,0,0,1-.1.1Z" transform="translate(-9.8 -8.4)"/><path class="cls-3" d="M73.4,23.3l-.8-.7h0l-.5.2h-.2l-.4-.2-.3-.2v-.7h0l-1.1-.3h0l-.4.6H69l-.5-.6h0l-1.1.3h0v.7l-.3.2-.3.2h-.3l-.5-.2h0l-.7.7h0l.2.5c0,.1.1.2.1.3l-.2.3c0,.1-.1.3-.2.3h-.8l-.3,1h.1l.5.4c.1.1.1,0,.1.2a1.5,1.5,0,0,0,.1.6h0l-.7.4h0c0,.3.2.7.2,1h.9v.3c.1,0,.2.2.2.3a.3.3,0,0,1-.1.2l-.2.5h0l.7.8h.1l.4-.3h.3l.3.2.3.2v.8h0l1,.3h0l.3-.5.2-.2h.3c.2,0,.3-.1.4,0s.1.2.2.2l.3.5h0l1-.3h0a.7.7,0,0,1,.1-.5v-.3l.3-.2.3-.2h.3l.4.3h0l.8-.8h0l-.2-.5a.3.3,0,0,1-.1-.2c0-.1.1-.2.1-.3s.1-.3.2-.3h.8l.3-1h0l-.7-.4h0a1.3,1.3,0,0,0,.1-.6c0-.1-.1-.1.1-.2l.5-.4h0l-.3-1h-.8c-.1,0-.1-.2-.2-.3v-.3c0-.1.1-.2.1-.3l.2-.5h0L73,24a1.3,1.3,0,0,0,.4.7h.8a.4.4,0,0,1,.1.3,1.3,1.3,0,0,1,.1.6c.1.1.1,0,0,.1l-.5.4c-.2.2-.1.5-.1.8h0l.7.5a2.1,2.1,0,0,1-.2.6.8.8,0,0,1-.1.4c-.2.1-.6-.1-.8,0a1.6,1.6,0,0,0-.4.7v.2a.9.9,0,0,1,.3.5c0,.1-.2.2-.3.3l-.4.4c-.2.1-.1,0-.3-.1l-.5-.2-.4.2-.3.2v.6c0,.1,0,.2-.2.2l-.7.2c-.2.1-.1.1-.3-.1l-.3-.5h0c-.2,0-.6-.1-.7,0s-.2.2-.2.3l-.3.4-.6-.2h-.4c-.1-.1,0-.4,0-.6v-.2l-.6-.4c-.2,0-.6.4-.8.4a2.5,2.5,0,0,1-.7-.8s.4-.5.4-.7a1.6,1.6,0,0,0-.4-.7h-.4c-.1,0-.4,0-.4-.1a1.4,1.4,0,0,1-.2-.7c-.1-.2-.1-.2.1-.3l.5-.4h0s.1-.6,0-.7l-.2-.2-.5-.3c0-.1.1-.2.1-.3a1.4,1.4,0,0,1,.2-.6h.8a.4.4,0,0,0,.1-.3l.3-.4a1.3,1.3,0,0,0-.3-.5c0-.1-.1-.2-.1-.3l.5-.4.3-.3.4.2.3.2.6-.4h.1c0-.2-.1-.5,0-.7s.3-.2.5-.2.4-.2.5-.1.4.6.5.6h.7l.4-.6c.1-.1.4,0,.6.1s.4,0,.5.2a1.6,1.6,0,0,0,0,.7l.7.4.6-.3c.1-.1.2,0,.4.2l.5.5Z" transform="translate(-9.8 -8.4)"/><path class="cls-3" d="M71.6,29a3.3,3.3,0,0,1-4.6-.1,3.3,3.3,0,0,1,4.6-4.6l.4.5a3.3,3.3,0,0,1-.4,4.2h.1a3.2,3.2,0,0,0-.1-4.7A3.3,3.3,0,1,0,66.9,29l.5.4a3.5,3.5,0,0,0,4.3-.4S71.7,28.9,71.6,29Z" transform="translate(-9.8 -8.4)"/><g class="cls-4"><path class="cls-5" d="M62.4,9.4,62,9l-.4.2L61.2,9V8.5h-.5l-.3.3H60l-.3-.3h-.5V9l-.4.2L58.4,9l-.4.4.2.4-.2.3h-.5v.5l.4.3v.4h0l-.4.2v.6H58a.8.8,0,0,0,.2.4L58,13l.4.4.4-.2.4.2v.4l.5.2.3-.4h.4l.3.4.5-.2v-.4l.4-.2.4.2.4-.4-.2-.4a.8.8,0,0,0,.2-.4h.5v-.6l-.4-.2h0V11l.4-.3v-.5h-.5l-.2-.3Zm-.9,3a1.8,1.8,0,0,1-2.6.1,1.8,1.8,0,0,1,2.6-2.6h0A1.8,1.8,0,0,1,61.5,12.4Z" transform="translate(-9.8 -8.4)"/><path class="cls-5" d="M62.4,9.4,62,8.9h0l-.3.2h-.5V8.5h-.5l-.3.3H60l-.2-.3h-.6v.3h-.5l-.3-.2h0l-.4.5h0v.2c0,.1.1.1.1.2h-.1v.2h-.5c0,.2-.1.4-.1.6h0l.3.2h.1c0,.1-.1.2,0,.3h0l-.4.3h0c0,.2.1.3.1.5H58v.4h-.1v.3h0l.4.4h.8v.4h0l.6.2h0v-.4h.4v.2l.2.2h0l.5-.2h0v-.4H62l.4-.4h0v-.3h-.1v-.2c.1,0,.1-.1.1-.2h.5c0-.2.1-.3.1-.5h0l-.3-.3h-.1a.4.4,0,0,0,.1-.3h0l.3-.2h0c0-.2-.1-.4-.1-.6h-.5V9.9h-.1c0-.1.1-.1.1-.2V9.4h0l-.2.3a.5.5,0,0,0,.2.4h.5v.4h-.3a.7.7,0,0,0-.1.5h0l.4.2v.6c-.2.1-.4-.1-.5,0s-.1.2-.2.4h0c.1,0,.2.2.2.3h-.1l-.3.2h-.8v.3c0,.1,0,.1-.1.1l-.3.2h-.2l-.2-.3H60c-.1,0-.1.1-.1.2s-.1.2-.2.2h-.5v-.3h0l-.4-.2-.4.2L58,13c0-.2.2-.3.2-.4l-.2-.4h-.5v-.3c0-.2,0-.2.1-.2l.3-.2h0V11h-.2l-.2-.2v-.5h.6V9.8c0-.1-.1-.2-.1-.3H58l.2-.3h.6l.4-.2h0V8.6h.6c0,.1.2.4.2.3h.4l.2-.3h.6V9l.4.2.3-.2h.2l.3.3Z" transform="translate(-9.8 -8.4)"/><path class="cls-5" d="M61.5,12.4a1.8,1.8,0,0,1-2.6.1,2,2,0,0,1-.5-1.5,1.7,1.7,0,0,1,1.9-1.6A1.8,1.8,0,0,1,62,11.3a1.6,1.6,0,0,1-.5,1.1h0a1.9,1.9,0,0,0,0-2.6,1.8,1.8,0,0,0-2.6-.1,4.1,4.1,0,0,0-.5.9,1.9,1.9,0,0,0,3.1,1.8Z" transform="translate(-9.8 -8.4)"/></g><g class="cls-6"><rect class="cls-7" x="8.5" y="18.9" width="20.7" height="13.64" rx="0.1" ry="0.1"/><rect class="cls-8" x="8.5" y="18.9" width="20.7" height="1.61" rx="0.1" ry="0.1"/><path class="cls-9" d="M36.6,27.8h0Z" transform="translate(-9.8 -8.4)"/><path class="cls-9" d="M36.6,28.1h0Z" transform="translate(-9.8 -8.4)"/><path class="cls-9" d="M36.6,28.4h0Z" transform="translate(-9.8 -8.4)"/><path class="cls-9" d="M19.5,31.2h0Z" transform="translate(-9.8 -8.4)"/><path class="cls-9" d="M19.5,32.2h0c-.1,0-.1,0-.1.1Z" transform="translate(-9.8 -8.4)"/><path class="cls-9" d="M19.5,33.3h9.2a.1.1,0,0,0-.1-.1H19.5c-.1,0-.1,0-.1.1s0,0,0,.1Z" transform="translate(-9.8 -8.4)"/><path class="cls-9" d="M19.5,34.3h0a.1.1,0,0,0-.1.1Z" transform="translate(-9.8 -8.4)"/><path class="cls-9" d="M28.7,37.2h0Z" transform="translate(-9.8 -8.4)"/><path class="cls-9" d="M28.7,38.2h0Z" transform="translate(-9.8 -8.4)"/></g><rect class="cls-7" x="23.5" y="2.1" width="14.4" height="13.64" rx="0.1" ry="0.1"/><rect class="cls-8" x="23.5" y="2.1" width="14.4" height="1.61" rx="0.1" ry="0.1"/><path class="cls-9" d="M46.2,11.6h0Z" transform="translate(-9.8 -8.4)"/><path class="cls-9" d="M36.3,14.4h0Z" transform="translate(-9.8 -8.4)"/><path class="cls-9" d="M36.3,15.4H46.6c.1,0,.1-.1,0-.1H36.3Z" transform="translate(-9.8 -8.4)"/><path class="cls-9" d="M36.3,16.4h0Z" transform="translate(-9.8 -8.4)"/><path class="cls-9" d="M36.3,17.4h0Z" transform="translate(-9.8 -8.4)"/><path class="cls-9" d="M40.6,20.4H47c.1,0,.1-.2,0-.2H40.6C40.5,20.2,40.5,20.4,40.6,20.4Z" transform="translate(-9.8 -8.4)"/><path class="cls-9" d="M40.6,21.4h0C40.5,21.3,40.5,21.4,40.6,21.4Z" transform="translate(-9.8 -8.4)"/><rect class="cls-10" x="33.7" y="11.2" width="14.4" height="13.64" rx="0.1" ry="0.1"/><rect class="cls-8" x="33.7" y="11.2" width="14.4" height="1.61" rx="0.1" ry="0.1"/><path class="cls-9" d="M56.3,20.2h0Z" transform="translate(-9.8 -8.4)"/><path class="cls-9" d="M56.3,20.4h0Z" transform="translate(-9.8 -8.4)"/><path class="cls-9" d="M56.3,20.7h0Z" transform="translate(-9.8 -8.4)"/><g class="cls-11"><path class="cls-3" d="M44.3,23.6h0C44.2,23.5,44.2,23.6,44.3,23.6Z" transform="translate(-9.8 -8.4)"/></g><g class="cls-11"><path class="cls-3" d="M44.3,24.6h-.1A.1.1,0,0,0,44.3,24.6Z" transform="translate(-9.8 -8.4)"/></g><g class="cls-11"><path class="cls-3" d="M49.8,25.6h6.4c.1,0,.1-.1,0-.1H49.7A.1.1,0,0,0,49.8,25.6Z" transform="translate(-9.8 -8.4)"/></g><g class="cls-11"><path class="cls-3" d="M49.8,26.6h5.9a.1.1,0,0,0-.1-.1H49.8a.1.1,0,0,0-.1.1Z" transform="translate(-9.8 -8.4)"/></g><g class="cls-11"><path class="cls-3" d="M50.8,29.6h6.5a.1.1,0,0,0-.1-.1H50.8Z" transform="translate(-9.8 -8.4)"/></g><g class="cls-11"><path class="cls-3" d="M50.8,30.6h0Z" transform="translate(-9.8 -8.4)"/></g><rect class="cls-10" y="11.2" width="14.4" height="13.64" rx="0.1" ry="0.1"/><rect class="cls-8" y="11.2" width="14.4" height="1.61" rx="0.1" ry="0.1"/><path class="cls-9" d="M22.7,20.2h.9c.1,0,.1-.1,0-.1h-.9C22.6,20.1,22.6,20.2,22.7,20.2Z" transform="translate(-9.8 -8.4)"/><path class="cls-9" d="M22.7,20.4h0Z" transform="translate(-9.8 -8.4)"/><path class="cls-9" d="M22.7,20.7h0Z" transform="translate(-9.8 -8.4)"/><g class="cls-11"><path class="cls-3" d="M10.7,23.6h7.6c0-.1-.1-.1-.1,0H10.7c-.1,0-.1,0-.1.1Z" transform="translate(-9.8 -8.4)"/></g><g class="cls-11"><path class="cls-3" d="M10.7,24.6h7.5a.1.1,0,0,0,.1-.1H10.6C10.6,24.6,10.6,24.6,10.7,24.6Z" transform="translate(-9.8 -8.4)"/></g><g class="cls-11"><path class="cls-3" d="M16.2,25.6h6.3a.1.1,0,0,0,.1-.1H16.2c-.1,0-.1,0-.1.1Z" transform="translate(-9.8 -8.4)"/></g><g class="cls-11"><path class="cls-3" d="M16.2,26.6h0c-.1,0-.1,0-.1.1Z" transform="translate(-9.8 -8.4)"/></g><g class="cls-11"><path class="cls-3" d="M17.1,29.6h6.4c.1,0,.1-.2,0-.2H17.1Z" transform="translate(-9.8 -8.4)"/></g><g class="cls-11"><path class="cls-3" d="M17.1,30.6h5.8a.1.1,0,0,0,0-.2H17.1Z" transform="translate(-9.8 -8.4)"/></g><path class="cls-12" d="M72.1,90.1s14,1,16.2-8.4-4.5-14.5-5.8-16.5-3.6-8.8-1-14.1S81.8,35.2,71,36.6s-11.6,8.8-20.3,2.9S31,45.9,38,53.7c9.3,10-1.9,16.6-1.9,16.6a10.2,10.2,0,0,0-4.2,11c1.8,8.5,11.3,10,15.5,10S72.1,90.1,72.1,90.1Z" transform="translate(-9.8 -8.4)"/><ellipse class="cls-13" cx="42.6" cy="82.4" rx="28.4" ry="1.8"/><path class="cls-14" d="M47.2,64.5H14a.5.5,0,0,1-.5-.5h0a.5.5,0,0,1,.5-.5H47.2a.5.5,0,0,1,.5.5h0A.5.5,0,0,1,47.2,64.5Z" transform="translate(-9.8 -8.4)"/><path class="cls-3" d="M24.5,63.2H19.9a1.9,1.9,0,0,1-1.8-1.4c-.6-2.2,4.7-6.4,4.9-6.6l.2.3c-1.4,1.2-5.1,4.6-4.7,6.2a1.5,1.5,0,0,0,1.4,1.1h4.6Z" transform="translate(-9.8 -8.4)"/><path class="cls-3" d="M23.5,61.2h0a.6.6,0,0,1-.6-.6h0V44.7a.6.6,0,0,1,.6-.6h0a.6.6,0,0,1,.6.6V60.6A.6.6,0,0,1,23.5,61.2Z" transform="translate(-9.8 -8.4)"/><rect class="cls-3" x="18.8" y="54.3" width="6.9" height="0.76"/><path class="cls-15" d="M55.7,46.6Z" transform="translate(-9.8 -8.4)"/><path class="cls-15" d="M53.2,48.4Z" transform="translate(-9.8 -8.4)"/><path class="cls-15" d="M55,46.4Z" transform="translate(-9.8 -8.4)"/><path class="cls-15" d="M53.7,45.8Z" transform="translate(-9.8 -8.4)"/><path class="cls-15" d="M53.4,46.5Z" transform="translate(-9.8 -8.4)"/><path class="cls-15" d="M53.9,45.1Z" transform="translate(-9.8 -8.4)"/><path class="cls-15" d="M55.6,45.8Z" transform="translate(-9.8 -8.4)"/><path class="cls-15" d="M55,46h0Z" transform="translate(-9.8 -8.4)"/><path class="cls-15" d="M55.3,46.1Z" transform="translate(-9.8 -8.4)"/><path class="cls-15" d="M55.2,45.1h0Z" transform="translate(-9.8 -8.4)"/><path class="cls-15" d="M54.5,45.4h0Z" transform="translate(-9.8 -8.4)"/><path class="cls-15" d="M54.8,48.2h0c.1,0,.1-.1,0-.1Z" transform="translate(-9.8 -8.4)"/><path class="cls-15" d="M53.9,48.4Z" transform="translate(-9.8 -8.4)"/><path class="cls-15" d="M53.6,47.7Z" transform="translate(-9.8 -8.4)"/><path class="cls-15" d="M54.5,48h-.1c0,.1,0,.1.1.1h0Z" transform="translate(-9.8 -8.4)"/><path class="cls-15" d="M52.6,46.7Z" transform="translate(-9.8 -8.4)"/><path class="cls-15" d="M54.6,47.4Z" transform="translate(-9.8 -8.4)"/><path class="cls-15" d="M55,47.4h.1a.1.1,0,0,0-.1-.1Z" transform="translate(-9.8 -8.4)"/><path class="cls-15" d="M55.1,47H55a.1.1,0,0,0,.1.1h0a.1.1,0,0,0,.1-.1h-.1Z" transform="translate(-9.8 -8.4)"/><path class="cls-15" d="M53.1,47.1Z" transform="translate(-9.8 -8.4)"/><path class="cls-15" d="M54.3,47.2Z" transform="translate(-9.8 -8.4)"/><path class="cls-15" d="M54.4,46.3h0Z" transform="translate(-9.8 -8.4)"/><path class="cls-15" d="M53,45.8Z" transform="translate(-9.8 -8.4)"/><path class="cls-15" d="M52.7,48Z" transform="translate(-9.8 -8.4)"/><path class="cls-15" d="M47,57.3h0Z" transform="translate(-9.8 -8.4)"/><path class="cls-15" d="M46.8,55.5Z" transform="translate(-9.8 -8.4)"/><path class="cls-15" d="M47.3,56.2h0Z" transform="translate(-9.8 -8.4)"/><path class="cls-15" d="M46.3,55Z" transform="translate(-9.8 -8.4)"/><path class="cls-15" d="M46.4,56.4Z" transform="translate(-9.8 -8.4)"/><path class="cls-15" d="M45.5,53.8Z" transform="translate(-9.8 -8.4)"/><path class="cls-15" d="M44.9,54.3Z" transform="translate(-9.8 -8.4)"/><path class="cls-15" d="M46.7,56.1h0Z" transform="translate(-9.8 -8.4)"/><path class="cls-15" d="M47.6,55.4h0Z" transform="translate(-9.8 -8.4)"/><path class="cls-15" d="M46,53.3Z" transform="translate(-9.8 -8.4)"/><path class="cls-15" d="M47.1,54.7h0Z" transform="translate(-9.8 -8.4)"/><path class="cls-15" d="M46.5,54.6Z" transform="translate(-9.8 -8.4)"/><path class="cls-15" d="M46.7,54.9h0a.1.1,0,0,0,.1.1h-.1Z" transform="translate(-9.8 -8.4)"/><path class="cls-15" d="M47.1,54Z" transform="translate(-9.8 -8.4)"/><path class="cls-15" d="M46.4,53.9Z" transform="translate(-9.8 -8.4)"/><path class="cls-15" d="M45.2,56.5h0Z" transform="translate(-9.8 -8.4)"/><path class="cls-15" d="M45.1,56.2h0Z" transform="translate(-9.8 -8.4)"/><path class="cls-15" d="M45.6,57.7h0Z" transform="translate(-9.8 -8.4)"/><path class="cls-15" d="M45.5,55.7h0Z" transform="translate(-9.8 -8.4)"/><path class="cls-15" d="M45.8,55.9h0c-.1,0-.1,0-.1.1h.1s.1-.1,0-.1Z" transform="translate(-9.8 -8.4)"/><path class="cls-15" d="M46.3,56.8Z" transform="translate(-9.8 -8.4)"/><path class="cls-15" d="M45.9,56.8h0Z" transform="translate(-9.8 -8.4)"/><path class="cls-15" d="M46.1,55.5h0a.1.1,0,0,0,.1-.1Z" transform="translate(-9.8 -8.4)"/><path class="cls-15" d="M45.3,55.4Z" transform="translate(-9.8 -8.4)"/><path class="cls-15" d="M48.1,54.3Z" transform="translate(-9.8 -8.4)"/><path class="cls-15" d="M45.9,54.6h-.1s-.1,0,0,.1h.1Z" transform="translate(-9.8 -8.4)"/><path class="cls-5" d="M73.5,78a5.6,5.6,0,0,1,1.7-3.5c1.6-1.5,3.3-1.3,3.8-.5S78.7,77.9,73.5,78Z" transform="translate(-9.8 -8.4)"/><path class="cls-16" d="M76,76.8c-1.2.1-1.6-.6-1.6-1.3a5.8,5.8,0,0,0-.9,2.5c3.6-.1,5.1-1.6,5.5-2.8A4.2,4.2,0,0,1,76,76.8Z" transform="translate(-9.8 -8.4)"/><path class="cls-3" d="M76.7,75.3a13.3,13.3,0,0,0-1.9,1.4h0l.2-.5a2.4,2.4,0,0,1,.2-.8h-.1c-.1.5-.3.9-.4,1.4l-1,.9a9,9,0,0,0-1.8,2.8,9.2,9.2,0,0,0-.9,3.8h.1a8.2,8.2,0,0,1,1-4,8.4,8.4,0,0,1,1.7-2.6,3.9,3.9,0,0,1,1-.8h0l2-1.4h0A.1.1,0,0,0,76.7,75.3Z" transform="translate(-9.8 -8.4)"/><path class="cls-5" d="M68.9,75.7A6.7,6.7,0,0,0,67.4,72c-1.4-1.7-3.1-1.5-3.7-.3S64.5,75.8,68.9,75.7Z" transform="translate(-9.8 -8.4)"/><path class="cls-16" d="M63.9,73.5c.7,1.1,2.2,2.2,5,2.2a5.8,5.8,0,0,0-.4-1.8C66.9,75.2,64.7,74,63.9,73.5Z" transform="translate(-9.8 -8.4)"/><path class="cls-3" d="M67.6,74.4h0l-.4-1.7h-.1l.2.8a2.9,2.9,0,0,1,.2.9A9.3,9.3,0,0,0,66,73h-.1l1.5,1.2H66c-.1,0-.1.1,0,.2h1.5a15.8,15.8,0,0,1,4.8,9.5.1.1,0,0,0,.1-.1A15.5,15.5,0,0,0,67.6,74.4Z" transform="translate(-9.8 -8.4)"/><path class="cls-3" d="M74.1,90.5H68.8l-1.1-7.4a.5.5,0,0,1,.4-.6h6.8a.4.4,0,0,1,.4.4h0Z" transform="translate(-9.8 -8.4)"/><path class="cls-14" d="M67.8,83.7l1,6.8h5.3l.3-1.7A8.3,8.3,0,0,1,67.8,83.7Z" transform="translate(-9.8 -8.4)"/><path class="cls-9" d="M72.9,86.7Z" transform="translate(-9.8 -8.4)"/><path class="cls-9" d="M72.7,84.9Z" transform="translate(-9.8 -8.4)"/><path class="cls-9" d="M73.2,85.6h0Z" transform="translate(-9.8 -8.4)"/><path class="cls-9" d="M72.2,84.4Z" transform="translate(-9.8 -8.4)"/><path class="cls-9" d="M72.3,85.8h0c-.1,0-.1,0-.1.1h.1Z" transform="translate(-9.8 -8.4)"/><path class="cls-9" d="M71.4,83.2Z" transform="translate(-9.8 -8.4)"/><path class="cls-9" d="M70.8,83.7Z" transform="translate(-9.8 -8.4)"/><path class="cls-9" d="M72.6,85.5h0Z" transform="translate(-9.8 -8.4)"/><path class="cls-9" d="M71.9,82.7Z" transform="translate(-9.8 -8.4)"/><path class="cls-9" d="M73.1,84.1h0Z" transform="translate(-9.8 -8.4)"/><path class="cls-9" d="M72.4,84Z" transform="translate(-9.8 -8.4)"/><path class="cls-9" d="M72.7,84.3h0Z" transform="translate(-9.8 -8.4)"/><path class="cls-9" d="M73,83.4h0Z" transform="translate(-9.8 -8.4)"/><path class="cls-9" d="M72.3,83.3h0a.1.1,0,0,0,.1-.1Z" transform="translate(-9.8 -8.4)"/><path class="cls-9" d="M71.2,85.9h0Z" transform="translate(-9.8 -8.4)"/><path class="cls-9" d="M71,85.6h0Z" transform="translate(-9.8 -8.4)"/><path class="cls-9" d="M71.5,87.2Z" transform="translate(-9.8 -8.4)"/><path class="cls-9" d="M71.4,85.1h0Z" transform="translate(-9.8 -8.4)"/><path class="cls-9" d="M71.8,85.3h-.1s.1,0,0-.1Z" transform="translate(-9.8 -8.4)"/><path class="cls-9" d="M72.2,86.2Z" transform="translate(-9.8 -8.4)"/><path class="cls-9" d="M71.8,86.2h0Z" transform="translate(-9.8 -8.4)"/><path class="cls-9" d="M72,84.9Z" transform="translate(-9.8 -8.4)"/><path class="cls-9" d="M71.2,84.8h0Z" transform="translate(-9.8 -8.4)"/><path class="cls-9" d="M74,83.7Z" transform="translate(-9.8 -8.4)"/><path class="cls-9" d="M71.8,84h0Z" transform="translate(-9.8 -8.4)"/><path class="cls-9" d="M73.1,88.5Z" transform="translate(-9.8 -8.4)"/><path class="cls-9" d="M72.9,86.7H73A.1.1,0,0,1,72.9,86.7Z" transform="translate(-9.8 -8.4)"/><path class="cls-9" d="M73.4,87.4Z" transform="translate(-9.8 -8.4)"/><path class="cls-9" d="M72.4,86.2Z" transform="translate(-9.8 -8.4)"/><path class="cls-9" d="M72.5,87.6Z" transform="translate(-9.8 -8.4)"/><path class="cls-9" d="M71.7,85Z" transform="translate(-9.8 -8.4)"/><path class="cls-9" d="M71,85.5Z" transform="translate(-9.8 -8.4)"/><path class="cls-9" d="M72.8,87.3Z" transform="translate(-9.8 -8.4)"/><path class="cls-9" d="M73.7,86.6Z" transform="translate(-9.8 -8.4)"/><path class="cls-9" d="M72.2,84.5Z" transform="translate(-9.8 -8.4)"/><path class="cls-9" d="M73.3,85.9Z" transform="translate(-9.8 -8.4)"/><path class="cls-9" d="M72.6,85.9h0Z" transform="translate(-9.8 -8.4)"/><path class="cls-9" d="M72.9,86.1H73a.1.1,0,0,0-.1-.1Z" transform="translate(-9.8 -8.4)"/><path class="cls-9" d="M73.3,85.2Z" transform="translate(-9.8 -8.4)"/><path class="cls-9" d="M72.5,85.1h0Z" transform="translate(-9.8 -8.4)"/><path class="cls-9" d="M71.4,87.7h0Z" transform="translate(-9.8 -8.4)"/><path class="cls-9" d="M71.2,87.4Z" transform="translate(-9.8 -8.4)"/><path class="cls-9" d="M71.7,89Z" transform="translate(-9.8 -8.4)"/><path class="cls-9" d="M71.7,86.9h0Z" transform="translate(-9.8 -8.4)"/><path class="cls-9" d="M72,87.1h0Z" transform="translate(-9.8 -8.4)"/><path class="cls-9" d="M72.4,88h0Z" transform="translate(-9.8 -8.4)"/><path class="cls-9" d="M72,88h0Z" transform="translate(-9.8 -8.4)"/><path class="cls-9" d="M72.2,86.7Z" transform="translate(-9.8 -8.4)"/><path class="cls-9" d="M71.4,86.6h0Z" transform="translate(-9.8 -8.4)"/><path class="cls-9" d="M74.2,85.5h0Z" transform="translate(-9.8 -8.4)"/><path class="cls-9" d="M72,85.8h0Z" transform="translate(-9.8 -8.4)"/><path class="cls-5" d="M74.3,73a10.2,10.2,0,0,1,3-6c2.8-2.5,5.6-2.2,6.4-.8S83.2,72.8,74.3,73Z" transform="translate(-9.8 -8.4)"/><path class="cls-16" d="M78.6,70.8a2.2,2.2,0,0,1-2.8-2.1,10.6,10.6,0,0,0-1.5,4.2c6.2-.1,8.7-2.6,9.4-4.6A7.1,7.1,0,0,1,78.6,70.8Z" transform="translate(-9.8 -8.4)"/><path class="cls-3" d="M79.8,68.4l-3.2,2.3h0l.3-.8a5,5,0,0,1,.4-1.3h-.1a22.5,22.5,0,0,0-.8,2.4l-1.6,1.5a15.2,15.2,0,0,0-3.1,4.8c-.8,1.7-1.8,4.3-1.5,6.4,0,.1.2.1.2,0-.3-2.2.7-4.8,1.6-6.7a13,13,0,0,1,2.9-4.4L76.5,71h2.6c.1,0,.1-.2,0-.2H76.6a21.9,21.9,0,0,1,3.3-2.3C80,68.5,79.9,68.4,79.8,68.4Z" transform="translate(-9.8 -8.4)"/><path class="cls-17" d="M81.1,70.2Z" transform="translate(-9.8 -8.4)"/><path class="cls-17" d="M80.9,68.3Z" transform="translate(-9.8 -8.4)"/><path class="cls-17" d="M81.4,69.1h0Z" transform="translate(-9.8 -8.4)"/><path class="cls-17" d="M80.4,67.9Z" transform="translate(-9.8 -8.4)"/><path class="cls-17" d="M80.5,69.3h0a.1.1,0,0,0-.1.1h.1Z" transform="translate(-9.8 -8.4)"/><path class="cls-17" d="M79.6,66.7Z" transform="translate(-9.8 -8.4)"/><path class="cls-17" d="M79,67.2Z" transform="translate(-9.8 -8.4)"/><path class="cls-17" d="M80.8,69Z" transform="translate(-9.8 -8.4)"/><path class="cls-17" d="M81.7,68.3h0Z" transform="translate(-9.8 -8.4)"/><path class="cls-17" d="M80.1,66.2Z" transform="translate(-9.8 -8.4)"/><path class="cls-17" d="M81.2,67.6h0Z" transform="translate(-9.8 -8.4)"/><path class="cls-17" d="M80.6,67.5Z" transform="translate(-9.8 -8.4)"/><path class="cls-17" d="M80.9,67.8h0Z" transform="translate(-9.8 -8.4)"/><path class="cls-17" d="M81.2,66.9Z" transform="translate(-9.8 -8.4)"/><path class="cls-17" d="M80.5,66.8Z" transform="translate(-9.8 -8.4)"/><path class="cls-17" d="M79.4,69.3h0Z" transform="translate(-9.8 -8.4)"/><path class="cls-17" d="M79.2,69h0Z" transform="translate(-9.8 -8.4)"/><path class="cls-17" d="M79.7,70.6h0Z" transform="translate(-9.8 -8.4)"/><path class="cls-17" d="M79.6,68.5Z" transform="translate(-9.8 -8.4)"/><path class="cls-17" d="M79.9,68.8h0c-.1,0-.1,0-.1.1h.1a.1.1,0,0,0,.1-.1Z" transform="translate(-9.8 -8.4)"/><path class="cls-17" d="M80.4,69.7Z" transform="translate(-9.8 -8.4)"/><path class="cls-17" d="M80,69.7h0Z" transform="translate(-9.8 -8.4)"/><path class="cls-17" d="M80.2,68.4Z" transform="translate(-9.8 -8.4)"/><path class="cls-17" d="M79.4,68.2h0Z" transform="translate(-9.8 -8.4)"/><path class="cls-17" d="M82.2,67.2Z" transform="translate(-9.8 -8.4)"/><path class="cls-17" d="M80,67.5h0Z" transform="translate(-9.8 -8.4)"/><path class="cls-5" d="M71.4,70.5a9.3,9.3,0,0,0-.4-5.7c-1.1-3.1-3.5-3.6-4.9-2.2S65.3,68.6,71.4,70.5Z" transform="translate(-9.8 -8.4)"/><path class="cls-16" d="M65.6,65.1c.3,1.9,2,4.1,5.8,5.3a7.4,7.4,0,0,0,.2-2.6C68.8,68.8,66.4,66.1,65.6,65.1Z" transform="translate(-9.8 -8.4)"/><path class="cls-3" d="M70.3,68.1h0l.2-2.5h-.1a4.1,4.1,0,0,0-.1,1.1c-.1.4,0,.9-.1,1.3a14.3,14.3,0,0,0-1.6-2.4h-.1A15.8,15.8,0,0,1,70,67.9h0l-.8-.3-1.1-.5c-.1,0-.2.1-.1.2l2.1.8c2.5,4.6,3,9.7,2.2,15.1-.1.1.1.1.1.1C73.2,77.8,72.8,72.7,70.3,68.1Z" transform="translate(-9.8 -8.4)"/><path class="cls-17" d="M69.4,67.5Z" transform="translate(-9.8 -8.4)"/><path class="cls-17" d="M69.2,65.6h0Z" transform="translate(-9.8 -8.4)"/><path class="cls-17" d="M69.7,66.4Z" transform="translate(-9.8 -8.4)"/><path class="cls-17" d="M68.7,65.2h0c0-.1,0-.1-.1,0h.1Z" transform="translate(-9.8 -8.4)"/><path class="cls-17" d="M68.8,66.6Z" transform="translate(-9.8 -8.4)"/><path class="cls-17" d="M68,64Z" transform="translate(-9.8 -8.4)"/><path class="cls-17" d="M67.3,64.5Z" transform="translate(-9.8 -8.4)"/><path class="cls-17" d="M69.1,66.3Z" transform="translate(-9.8 -8.4)"/><path class="cls-17" d="M70,65.6Z" transform="translate(-9.8 -8.4)"/><path class="cls-17" d="M68.5,63.5h0Z" transform="translate(-9.8 -8.4)"/><path class="cls-17" d="M69.6,64.9Z" transform="translate(-9.8 -8.4)"/><path class="cls-17" d="M68.9,64.8Z" transform="translate(-9.8 -8.4)"/><path class="cls-17" d="M69.2,65.1Z" transform="translate(-9.8 -8.4)"/><path class="cls-17" d="M69.6,64.2Z" transform="translate(-9.8 -8.4)"/><path class="cls-17" d="M68.8,64.1Z" transform="translate(-9.8 -8.4)"/><path class="cls-17" d="M67.7,66.6h0c.1,0,.1,0,0-.1Z" transform="translate(-9.8 -8.4)"/><path class="cls-17" d="M67.5,66.3h.1c0-.1,0-.1-.1-.1Z" transform="translate(-9.8 -8.4)"/><path class="cls-17" d="M68,67.9h0Z" transform="translate(-9.8 -8.4)"/><path class="cls-17" d="M68,65.8h-.2a.1.1,0,0,0,.1.1H68Z" transform="translate(-9.8 -8.4)"/><path class="cls-17" d="M68.3,66.1h0Z" transform="translate(-9.8 -8.4)"/><path class="cls-17" d="M68.7,67h0Z" transform="translate(-9.8 -8.4)"/><path class="cls-17" d="M68.3,67h0Z" transform="translate(-9.8 -8.4)"/><path class="cls-17" d="M68.5,65.7Z" transform="translate(-9.8 -8.4)"/><path class="cls-17" d="M67.8,65.5Z" transform="translate(-9.8 -8.4)"/><path class="cls-17" d="M70.5,64.5h0Z" transform="translate(-9.8 -8.4)"/><path class="cls-17" d="M68.3,64.8h0Z" transform="translate(-9.8 -8.4)"/><path class="cls-5" d="M26.5,82.2a3.5,3.5,0,0,0-1.2-2.3c-1-1-2.1-.9-2.5-.3S23,82.2,26.5,82.2Z" transform="translate(-9.8 -8.4)"/><path class="cls-16" d="M24.8,81.4c.8.1,1.1-.4,1.1-.8a4.4,4.4,0,0,1,.6,1.6c-2.4,0-3.4-1-3.7-1.8A3,3,0,0,0,24.8,81.4Z" transform="translate(-9.8 -8.4)"/><path class="cls-3" d="M24.3,80.5a3.8,3.8,0,0,1,1.3.9h0c0-.1-.1-.3-.1-.4l-.2-.5h.1l.3.9.6.6a4.7,4.7,0,0,1,1.2,1.9,5.4,5.4,0,0,1,.6,2.5h0a4.8,4.8,0,0,0-.7-2.6,3.6,3.6,0,0,0-1.1-1.7l-.6-.6h-.1l-1.3-1Z" transform="translate(-9.8 -8.4)"/><path class="cls-5" d="M29.5,80.7a5.1,5.1,0,0,1,1-2.4c1-1.2,2.1-1.1,2.5-.3S32.5,80.8,29.5,80.7Z" transform="translate(-9.8 -8.4)"/><path class="cls-16" d="M32.9,79.2c-.4.8-1.5,1.5-3.4,1.5l.3-1.2C30.9,80.3,32.4,79.5,32.9,79.2Z" transform="translate(-9.8 -8.4)"/><path class="cls-3" d="M30.4,79.8h0l.3-1.2h0a1.3,1.3,0,0,1-.1.5,1.3,1.3,0,0,0-.1.6l1-.9h0l-1,.8h0a10.4,10.4,0,0,0-3.2,6.3h-.1A10.6,10.6,0,0,1,30.4,79.8Z" transform="translate(-9.8 -8.4)"/><path class="cls-3" d="M26.1,90.6h3.5l.7-5c.1-.2,0-.3-.2-.4H25.6a.3.3,0,0,0-.3.3h0Z" transform="translate(-9.8 -8.4)"/><path class="cls-14" d="M30.3,86l-.7,4.6H26.1l-.2-1.2A5.4,5.4,0,0,0,30.3,86Z" transform="translate(-9.8 -8.4)"/><path class="cls-9" d="M26.9,88" transform="translate(-9.8 -8.4)"/><path class="cls-9" d="M27,86.8Z" transform="translate(-9.8 -8.4)"/><path class="cls-9" d="M26.7,87.3Z" transform="translate(-9.8 -8.4)"/><path class="cls-9" d="M27.3,86.5Z" transform="translate(-9.8 -8.4)"/><path class="cls-9" d="M27.3,87.4Z" transform="translate(-9.8 -8.4)"/><path class="cls-9" d="M27.9,85.7Z" transform="translate(-9.8 -8.4)"/><path class="cls-9" d="M28.3,86.1Z" transform="translate(-9.8 -8.4)"/><path class="cls-9" d="M27.1,87.2Z" transform="translate(-9.8 -8.4)"/><path class="cls-9" d="M26.5,86.8Z" transform="translate(-9.8 -8.4)"/><path class="cls-9" d="M27.5,85.4Z" transform="translate(-9.8 -8.4)"/><path class="cls-9" d="M26.8,86.3Z" transform="translate(-9.8 -8.4)"/><path class="cls-9" d="M27.2,86.3Z" transform="translate(-9.8 -8.4)"/><path class="cls-9" d="M27.1,86.4Z" transform="translate(-9.8 -8.4)"/><path class="cls-9" d="M26.8,85.8h0Z" transform="translate(-9.8 -8.4)"/><path class="cls-9" d="M27.3,85.8Z" transform="translate(-9.8 -8.4)"/><path class="cls-9" d="M28,87.5Z" transform="translate(-9.8 -8.4)"/><path class="cls-9" d="M28.2,87.3Z" transform="translate(-9.8 -8.4)"/><path class="cls-9" d="M27.8,88.3Z" transform="translate(-9.8 -8.4)"/><path class="cls-9" d="M27.9,86.9Z" transform="translate(-9.8 -8.4)"/><path class="cls-9" d="M27.7,87.1Z" transform="translate(-9.8 -8.4)"/><path class="cls-9" d="M27.4,87.7Z" transform="translate(-9.8 -8.4)"/><path class="cls-9" d="M27.6,87.7h0Z" transform="translate(-9.8 -8.4)"/><path class="cls-9" d="M27.5,86.9Z" transform="translate(-9.8 -8.4)"/><path class="cls-9" d="M28,86.7Z" transform="translate(-9.8 -8.4)"/><path class="cls-9" d="M26.1,86Z" transform="translate(-9.8 -8.4)"/><path class="cls-9" d="M27.6,86.2h0Z" transform="translate(-9.8 -8.4)"/><path class="cls-9" d="M26.8,89.2Z" transform="translate(-9.8 -8.4)"/><path class="cls-9" d="M26.9,88Z" transform="translate(-9.8 -8.4)"/><path class="cls-9" d="M26.6,88.5Z" transform="translate(-9.8 -8.4)"/><path class="cls-9" d="M27.2,87.7Z" transform="translate(-9.8 -8.4)"/><path class="cls-9" d="M27.1,88.7h0Z" transform="translate(-9.8 -8.4)"/><path class="cls-9" d="M27.7,86.9Z" transform="translate(-9.8 -8.4)"/><path class="cls-9" d="M28.1,87.3Z" transform="translate(-9.8 -8.4)"/><path class="cls-9" d="M26.9,88.4Z" transform="translate(-9.8 -8.4)"/><path class="cls-9" d="M26.4,88Z" transform="translate(-9.8 -8.4)"/><path class="cls-9" d="M27.4,86.6Z" transform="translate(-9.8 -8.4)"/><path class="cls-9" d="M26.6,87.5h0Z" transform="translate(-9.8 -8.4)"/><path class="cls-9" d="M27.1,87.5Z" transform="translate(-9.8 -8.4)"/><path class="cls-9" d="M26.9,87.6Z" transform="translate(-9.8 -8.4)"/><path class="cls-9" d="M26.6,87h0Z" transform="translate(-9.8 -8.4)"/><path class="cls-9" d="M27.1,87Z" transform="translate(-9.8 -8.4)"/><path class="cls-9" d="M27.9,88.7Z" transform="translate(-9.8 -8.4)"/><path class="cls-9" d="M28,88.5Z" transform="translate(-9.8 -8.4)"/><path class="cls-9" d="M27.7,89.5Z" transform="translate(-9.8 -8.4)"/><path class="cls-9" d="M27.7,88.1h0Z" transform="translate(-9.8 -8.4)"/><path class="cls-9" d="M27.5,88.3Z" transform="translate(-9.8 -8.4)"/><path class="cls-9" d="M27.2,88.9Z" transform="translate(-9.8 -8.4)"/><path class="cls-9" d="M27.5,88.9h0Z" transform="translate(-9.8 -8.4)"/><path class="cls-9" d="M27.3,88.1h0Z" transform="translate(-9.8 -8.4)"/><path class="cls-9" d="M27.9,87.9h0Z" transform="translate(-9.8 -8.4)"/><path class="cls-9" d="M26,87.2Z" transform="translate(-9.8 -8.4)"/><path class="cls-9" d="M27.5,87.4Z" transform="translate(-9.8 -8.4)"/><path class="cls-5" d="M25.9,78.9a6.2,6.2,0,0,0-2-4c-1.8-1.7-3.7-1.5-4.2-.5S20,78.8,25.9,78.9Z" transform="translate(-9.8 -8.4)"/><path class="cls-16" d="M23.1,77.5A1.5,1.5,0,0,0,24.9,76a6.3,6.3,0,0,1,1,2.9c-4.1-.1-5.8-1.8-6.2-3.2A4.8,4.8,0,0,0,23.1,77.5Z" transform="translate(-9.8 -8.4)"/><path class="cls-3" d="M22.3,75.9a13.7,13.7,0,0,1,2.1,1.5h0a3.9,3.9,0,0,0-.2-.6,3.7,3.7,0,0,0-.2-.9h0a10.4,10.4,0,0,1,.6,1.6c.1.5.7.6,1,1a11.1,11.1,0,0,1,2.1,3.2,8.8,8.8,0,0,1,1,4.3h-.1a8.7,8.7,0,0,0-1.1-4.4,11.2,11.2,0,0,0-1.9-2.9l-1.1-1h-.1l-2.2-1.6S22.2,75.8,22.3,75.9Z" transform="translate(-9.8 -8.4)"/><path class="cls-17" d="M21.4,77" transform="translate(-9.8 -8.4)"/><path class="cls-17" d="M21.5,75.8Z" transform="translate(-9.8 -8.4)"/><path class="cls-17" d="M21.2,76.3h0Z" transform="translate(-9.8 -8.4)"/><path class="cls-17" d="M21.9,75.5Z" transform="translate(-9.8 -8.4)"/><path class="cls-17" d="M21.8,76.4Z" transform="translate(-9.8 -8.4)"/><path class="cls-17" d="M22.4,74.7Z" transform="translate(-9.8 -8.4)"/><path class="cls-17" d="M22.8,75Z" transform="translate(-9.8 -8.4)"/><path class="cls-17" d="M21.6,76.2h0Z" transform="translate(-9.8 -8.4)"/><path class="cls-17" d="M21,75.7h0Z" transform="translate(-9.8 -8.4)"/><path class="cls-17" d="M22.1,74.3h0Z" transform="translate(-9.8 -8.4)"/><path class="cls-17" d="M21.3,75.3Z" transform="translate(-9.8 -8.4)"/><path class="cls-17" d="M21.8,75.2Z" transform="translate(-9.8 -8.4)"/><path class="cls-17" d="M21.6,75.4Z" transform="translate(-9.8 -8.4)"/><path class="cls-17" d="M21.3,74.8h0Z" transform="translate(-9.8 -8.4)"/><path class="cls-17" d="M21.8,74.8Z" transform="translate(-9.8 -8.4)"/><path class="cls-17" d="M22.6,76.5h0Z" transform="translate(-9.8 -8.4)"/><path class="cls-17" d="M22.7,76.3Z" transform="translate(-9.8 -8.4)"/><path class="cls-17" d="M22.4,77.3h0Z" transform="translate(-9.8 -8.4)"/><path class="cls-17" d="M22.4,75.9h0Z" transform="translate(-9.8 -8.4)"/><path class="cls-17" d="M22.2,76.1Z" transform="translate(-9.8 -8.4)"/><path class="cls-17" d="M21.9,76.7Z" transform="translate(-9.8 -8.4)"/><path class="cls-17" d="M22.1,76.7h0Z" transform="translate(-9.8 -8.4)"/><path class="cls-17" d="M22,75.9Z" transform="translate(-9.8 -8.4)"/><path class="cls-17" d="M22.5,75.7Z" transform="translate(-9.8 -8.4)"/><path class="cls-17" d="M20.7,75Z" transform="translate(-9.8 -8.4)"/><path class="cls-17" d="M22.2,75.2Z" transform="translate(-9.8 -8.4)"/><path class="cls-5" d="M27.9,77.2a7,7,0,0,1,.2-3.8c.8-2,2.4-2.3,3.3-1.5S32,75.9,27.9,77.2Z" transform="translate(-9.8 -8.4)"/><path class="cls-16" d="M31.8,73.6c-.3,1.3-1.3,2.8-3.9,3.6a11.1,11.1,0,0,1-.2-1.7C29.6,76.1,31.2,74.3,31.8,73.6Z" transform="translate(-9.8 -8.4)"/><path class="cls-3" d="M28.6,75.6h0c0-.6-.1-1.2-.1-1.7s.1-.1.1,0v.8c0,.2.1.5.1.8s.7-1.1,1-1.6h.1a8.6,8.6,0,0,0-1,1.6h0l.5-.2.8-.3h.1l-1.4.5a15.9,15.9,0,0,0-1.5,10.1h-.1A16.5,16.5,0,0,1,28.6,75.6Z" transform="translate(-9.8 -8.4)"/><path class="cls-17" d="M29.2,75.2Z" transform="translate(-9.8 -8.4)"/><path class="cls-17" d="M29.3,74Z" transform="translate(-9.8 -8.4)"/><path class="cls-17" d="M29,74.5Z" transform="translate(-9.8 -8.4)"/><path class="cls-17" d="M29.7,73.7Z" transform="translate(-9.8 -8.4)"/><path class="cls-17" d="M29.6,74.6Z" transform="translate(-9.8 -8.4)"/><path class="cls-17" d="M30.2,72.9Z" transform="translate(-9.8 -8.4)"/><path class="cls-17" d="M30.6,73.2Z" transform="translate(-9.8 -8.4)"/><path class="cls-17" d="M29.4,74.4Z" transform="translate(-9.8 -8.4)"/><path class="cls-17" d="M28.8,73.9Z" transform="translate(-9.8 -8.4)"/><path class="cls-17" d="M29.9,72.5h0Z" transform="translate(-9.8 -8.4)"/><path class="cls-17" d="M29.1,73.5Z" transform="translate(-9.8 -8.4)"/><path class="cls-17" d="M29.5,73.4h0Z" transform="translate(-9.8 -8.4)"/><path class="cls-17" d="M29.4,73.6Z" transform="translate(-9.8 -8.4)"/><path class="cls-17" d="M29.1,73Z" transform="translate(-9.8 -8.4)"/><path class="cls-17" d="M29.6,73Z" transform="translate(-9.8 -8.4)"/><path class="cls-17" d="M30.4,74.7h0Z" transform="translate(-9.8 -8.4)"/><path class="cls-17" d="M30.5,74.5Z" transform="translate(-9.8 -8.4)"/><path class="cls-17" d="M30.2,75.5Z" transform="translate(-9.8 -8.4)"/><path class="cls-17" d="M30.2,74.1h0Z" transform="translate(-9.8 -8.4)"/><path class="cls-17" d="M30,74.3Z" transform="translate(-9.8 -8.4)"/><path class="cls-17" d="M29.7,74.9h0Z" transform="translate(-9.8 -8.4)"/><path class="cls-17" d="M29.9,74.9Z" transform="translate(-9.8 -8.4)"/><path class="cls-17" d="M29.8,74Z" transform="translate(-9.8 -8.4)"/><path class="cls-17" d="M30.3,73.9Z" transform="translate(-9.8 -8.4)"/><path class="cls-17" d="M28.5,73.2Z" transform="translate(-9.8 -8.4)"/><path class="cls-17" d="M30,73.4Z" transform="translate(-9.8 -8.4)"/><path class="cls-18" d="M53.3,42.3a2.5,2.5,0,0,1-1.2-2.6,2.7,2.7,0,0,1,4.8-1.4C58.8,40.3,56.2,43.6,53.3,42.3Z" transform="translate(-9.8 -8.4)"/><path class="cls-19" d="M52.1,39.8c-.1.2,0-.3,0,0a2.2,2.2,0,0,0,1.1,2.5,3.1,3.1,0,0,0,3.8-.8C55.4,38,52.7,39.1,52.1,39.8Z" transform="translate(-9.8 -8.4)"/><path class="cls-5" d="M52.3,39a4.1,4.1,0,0,0,1.6.3,2.8,2.8,0,0,0,2.4-1.5h-.1a2.6,2.6,0,0,1-2.4,1.6,4,4,0,0,1-1.5-.3Z" transform="translate(-9.8 -8.4)"/><path class="cls-5" d="M57.5,39.9a1.7,1.7,0,0,0-1.2.4,2.2,2.2,0,0,0-.1,1.8h.1a1.5,1.5,0,0,1,.1-1.8,1.3,1.3,0,0,1,1.1-.3c.1,0,.1-.1,0-.1Z" transform="translate(-9.8 -8.4)"/><path class="cls-15" d="M55.6,37.8Z" transform="translate(-9.8 -8.4)"/><path class="cls-15" d="M55.5,41.9h0Z" transform="translate(-9.8 -8.4)"/><path class="cls-15" d="M55.3,40.8h.1a.1.1,0,0,0-.1-.1Z" transform="translate(-9.8 -8.4)"/><path class="cls-15" d="M56.1,41Z" transform="translate(-9.8 -8.4)"/><path class="cls-15" d="M54.3,41.4Z" transform="translate(-9.8 -8.4)"/><path class="cls-15" d="M54.9,41.5Z" transform="translate(-9.8 -8.4)"/><path class="cls-15" d="M55.1,38.2h0Z" transform="translate(-9.8 -8.4)"/><path class="cls-15" d="M56.4,38.5Z" transform="translate(-9.8 -8.4)"/><path class="cls-15" d="M53.7,38.7Z" transform="translate(-9.8 -8.4)"/><path class="cls-15" d="M54.1,39.4h0Z" transform="translate(-9.8 -8.4)"/><path class="cls-15" d="M56.2,38.1h0Z" transform="translate(-9.8 -8.4)"/><path class="cls-15" d="M53.3,38.1Z" transform="translate(-9.8 -8.4)"/><path class="cls-15" d="M55,37.4h-.1A.1.1,0,0,0,55,37.4Z" transform="translate(-9.8 -8.4)"/><path class="cls-15" d="M54.7,38Z" transform="translate(-9.8 -8.4)"/><path class="cls-15" d="M55,37.8h0Z" transform="translate(-9.8 -8.4)"/><path class="cls-15" d="M54,37.9h0Z" transform="translate(-9.8 -8.4)"/><path class="cls-15" d="M56.2,39.6Z" transform="translate(-9.8 -8.4)"/><path class="cls-15" d="M55.8,40.3Z" transform="translate(-9.8 -8.4)"/><path class="cls-15" d="M55.1,40.1h0Z" transform="translate(-9.8 -8.4)"/><path class="cls-15" d="M55.9,39.7Z" transform="translate(-9.8 -8.4)"/><path class="cls-15" d="M53.7,40.2h0Z" transform="translate(-9.8 -8.4)"/><path class="cls-15" d="M55.5,39.1Z" transform="translate(-9.8 -8.4)"/><path class="cls-15" d="M55.8,38.9Z" transform="translate(-9.8 -8.4)"/><path class="cls-15" d="M56.8,38.7Z" transform="translate(-9.8 -8.4)"/><path class="cls-15" d="M56.8,39Z" transform="translate(-9.8 -8.4)"/><path class="cls-15" d="M56.7,40.8Z" transform="translate(-9.8 -8.4)"/><path class="cls-15" d="M55.5,38.6h.1c.1,0,.1,0,0-.1h-.1Z" transform="translate(-9.8 -8.4)"/><path class="cls-15" d="M54.3,40.1Z" transform="translate(-9.8 -8.4)"/><path class="cls-15" d="M55.2,39.3h0Z" transform="translate(-9.8 -8.4)"/><path class="cls-15" d="M54.5,38.6h.2c0-.1,0-.1-.1-.1h-.1Z" transform="translate(-9.8 -8.4)"/><path class="cls-15" d="M56.7,40h0Z" transform="translate(-9.8 -8.4)"/><path class="cls-15" d="M53.2,39.3Z" transform="translate(-9.8 -8.4)"/><path class="cls-15" d="M54.7,41Z" transform="translate(-9.8 -8.4)"/><path class="cls-20" d="M33.4,70.5s2.3,8.5,2.9,11.1-.3,3.7-1.3,5a15.2,15.2,0,0,1-1.5,1.8c-.4.4-1.2.6-1,1s1.2.3,1.7.1a7.2,7.2,0,0,0,2.1-1.3c1.4-1,2.2-2.1,3.5-2.1s1.4-1.5.8-2.2-1.4-1.5-1.9-4.3.3-4.8-1-8.5" transform="translate(-9.8 -8.4)"/><path class="cls-18" d="M31.1,83.5a11.8,11.8,0,0,1-.6,2.6,12.1,12.1,0,0,1-2.3,3.1,5.2,5.2,0,0,1-2.4,1.7c-.5.3-.1.9,1,.7s1.7-.2,3.5-1.6,3-.8,3.5-1.3.5-1.1-.1-2.4-.2-2.3,0-3.8" transform="translate(-9.8 -8.4)"/><path class="cls-17" d="M58.3,65.9l-5.5-.4-.7,1.8s-13.5-1.4-17.7-.1c-2.1.7-2.1,4.4-2.1,4.4L31.2,82.5,31,84.2h.2l2.2.4a19.1,19.1,0,0,1,1.1-4.1h0c2.4-5.4,1.8-7.4,1.9-8.8S46,73.1,46,73.1h0c1.1.4,1.9.4,3.4.8,4.8,1,7.8.5,8.9-3.1A13.8,13.8,0,0,0,58.3,65.9Z" transform="translate(-9.8 -8.4)"/><path class="cls-18" d="M39,81.1a6.4,6.4,0,0,1-2.7.5h0c.7,2.6-.3,3.7-1.3,5a15.2,15.2,0,0,1-1.5,1.8c-.4.4-1.2.6-1,1s1.2.3,1.7.1a7.2,7.2,0,0,0,2.1-1.3c1.4-1.1,2.2-2.1,3.5-2.1s1.4-1.5.8-2.2A6.4,6.4,0,0,1,39,81.1Z" transform="translate(-9.8 -8.4)"/><path class="cls-21" d="M37,60.8h0a21.8,21.8,0,0,1-3.5-.1,2.9,2.9,0,0,0-2.8,1.7c-.2.4.2.3.5,0s.7-1.2,2.4-.5a5.7,5.7,0,0,0,1.8.3l1.2-.2c1.1-.1,6.8,1.1,8.3,1.3l.3-2.5C44.8,61,39.5,60.5,37,60.8Z" transform="translate(-9.8 -8.4)"/><path class="cls-18" d="M49.2,47.8s.1.7-1,1.6-3.9,2.9-3.3,6.4,2.8,3.6,4.6,3.6,2.8-9.5,1.8-11.2" transform="translate(-9.8 -8.4)"/><path class="cls-19" d="M46.8,54.5c-.6-3.5,2.3-5.4,3.4-6.3h.1l-1.1-.3s.1.7-1,1.6-3.9,2.9-3.3,6.4,2.8,3.6,4.6,3.6.8-.5,1.1-1.3C49,58.1,47.4,57.5,46.8,54.5Z" transform="translate(-9.8 -8.4)"/><path class="cls-5" d="M49.9,48.2a3.3,3.3,0,0,1,0,1.4,3.1,3.1,0,0,1-.6,1.3,13.6,13.6,0,0,1-1.2,1.2,5.2,5.2,0,0,0-1.9,4.8,5.6,5.6,0,0,0,1.6,2.4h0A4.4,4.4,0,0,1,46.3,57a4.2,4.2,0,0,1,.2-2.7,6.7,6.7,0,0,1,1.9-2.5,4.7,4.7,0,0,0,1-1,3.1,3.1,0,0,0,.5-1.2,3.3,3.3,0,0,0,0-1.4Z" transform="translate(-9.8 -8.4)"/><path class="cls-5" d="M50.1,48a5.5,5.5,0,0,1,.4,4.2c-.2.6-.6,1.1-.8,1.7a5.8,5.8,0,0,0-.5,1.4,4.1,4.1,0,0,0,.1,2.2,4.6,4.6,0,0,0,.7,1.6h0a5.4,5.4,0,0,1-.8-3.9l.6-1.5a5.6,5.6,0,0,0,.7-1.6,5,5,0,0,0,.1-2.7,5.8,5.8,0,0,0-.5-1.4C50.1,47.9,50,48,50.1,48Z" transform="translate(-9.8 -8.4)"/><path class="cls-22" d="M49.9,47.7a4.1,4.1,0,0,1,.8,2.7,6,6,0,0,1-.4,1.5L53.7,49s-2.1-.9-1.7-2.6" transform="translate(-9.8 -8.4)"/><path class="cls-21" d="M48.9,42.8a2,2,0,0,0-.6,1.3c0,1,.2,1-.3,1.7l-.2.2.4.3c.2.2.1.8.4,1.8s3.2-1.3,3.2-1.3,1.8-.9,1.2-2.4-2.1-3-4.1-1.6" transform="translate(-9.8 -8.4)"/><path class="cls-23" d="M50.1,48l1.4-1a3.7,3.7,0,0,1-1.2,1.3Z" transform="translate(-9.8 -8.4)"/><path class="cls-23" d="M48.3,44.1s.2,1.1,3.5,1.6l.2-.9" transform="translate(-9.8 -8.4)"/><path class="cls-5" d="M52.8,48.4a4.4,4.4,0,0,1-2.4,3.1s-2,4.5-1.5,6.8,2.2,6.7,1.7,8.9c0,0,6.2,2.7,7.9,1.5s.3-9.4-1.8-15.8c-1.3-4.1-3.9-4.5-3.9-4.5" transform="translate(-9.8 -8.4)"/><path class="cls-16" d="M49.9,61.3s5.1-5,5.4-6.5,1.4,4.9-4.8,8.8h-.2l-.5-2.2" transform="translate(-9.8 -8.4)"/><path class="cls-24" d="M53.1,50.6s-.7.5-3,3.8-2.9,6.1-5.3,6.4l-.4,2.4a4.9,4.9,0,0,0,4.7-1.1c2.1-2,6-5.5,6.6-8s-.1-3.1-.7-3.5A1.7,1.7,0,0,0,53.1,50.6Z" transform="translate(-9.8 -8.4)"/><path class="cls-19" d="M53.6,63.7h0Z" transform="translate(-9.8 -8.4)"/><path class="cls-19" d="M53.4,61.9Z" transform="translate(-9.8 -8.4)"/><path class="cls-19" d="M53.9,62.6Z" transform="translate(-9.8 -8.4)"/><path class="cls-19" d="M52.9,61.5Z" transform="translate(-9.8 -8.4)"/><path class="cls-19" d="M53,62.9Z" transform="translate(-9.8 -8.4)"/><path class="cls-19" d="M52.2,60.3h0Z" transform="translate(-9.8 -8.4)"/><path class="cls-19" d="M51.5,60.8Z" transform="translate(-9.8 -8.4)"/><path class="cls-19" d="M53.3,62.5h0Z" transform="translate(-9.8 -8.4)"/><path class="cls-19" d="M54.2,61.8Z" transform="translate(-9.8 -8.4)"/><path class="cls-19" d="M52.6,59.7h0Z" transform="translate(-9.8 -8.4)"/><path class="cls-19" d="M53.7,61.2h0Z" transform="translate(-9.8 -8.4)"/><path class="cls-19" d="M53.1,61.1Z" transform="translate(-9.8 -8.4)"/><path class="cls-19" d="M53.4,61.4h0Z" transform="translate(-9.8 -8.4)"/><path class="cls-19" d="M53.7,60.4h0Z" transform="translate(-9.8 -8.4)"/><path class="cls-19" d="M53,60.4Z" transform="translate(-9.8 -8.4)"/><path class="cls-19" d="M51.9,62.9h0Z" transform="translate(-9.8 -8.4)"/><path class="cls-19" d="M51.7,62.6h0s.1-.1,0-.1Z" transform="translate(-9.8 -8.4)"/><path class="cls-19" d="M52.2,64.2Z" transform="translate(-9.8 -8.4)"/><path class="cls-19" d="M52.1,62.1Z" transform="translate(-9.8 -8.4)"/><path class="cls-19" d="M52.5,62.4h-.1c.1-.1.1-.1,0-.1Z" transform="translate(-9.8 -8.4)"/><path class="cls-19" d="M52.9,63.3Z" transform="translate(-9.8 -8.4)"/><path class="cls-19" d="M52.5,63.3Z" transform="translate(-9.8 -8.4)"/><path class="cls-19" d="M52.7,62h0c.1,0,.1,0,.1-.1Z" transform="translate(-9.8 -8.4)"/><path class="cls-19" d="M51.9,61.8h0c-.1.1,0,.1,0,.1Z" transform="translate(-9.8 -8.4)"/><path class="cls-19" d="M54.7,60.8Z" transform="translate(-9.8 -8.4)"/><path class="cls-19" d="M52.5,61h0Z" transform="translate(-9.8 -8.4)"/><path class="cls-19" d="M51,63.6Z" transform="translate(-9.8 -8.4)"/><path class="cls-19" d="M52,62.1Z" transform="translate(-9.8 -8.4)"/><path class="cls-19" d="M51.9,63h0Z" transform="translate(-9.8 -8.4)"/><path class="cls-19" d="M51.9,61.5Z" transform="translate(-9.8 -8.4)"/><path class="cls-19" d="M51.1,62.6h0Z" transform="translate(-9.8 -8.4)"/><path class="cls-19" d="M52,60Z" transform="translate(-9.8 -8.4)"/><path class="cls-19" d="M51.2,60Z" transform="translate(-9.8 -8.4)"/><path class="cls-19" d="M51.5,62.5h0c-.1,0-.1,0-.1.1h.1Z" transform="translate(-9.8 -8.4)"/><path class="cls-19" d="M52.6,62.5Z" transform="translate(-9.8 -8.4)"/><path class="cls-19" d="M52.8,59.9h-.1a.1.1,0,0,1,.1.1h0Z" transform="translate(-9.8 -8.4)"/><path class="cls-19" d="M52.7,61.8Z" transform="translate(-9.8 -8.4)"/><path class="cls-19" d="M52.3,61.3Z" transform="translate(-9.8 -8.4)"/><path class="cls-19" d="M52.3,61.6Z" transform="translate(-9.8 -8.4)"/><path class="cls-19" d="M53.2,61.1h0Z" transform="translate(-9.8 -8.4)"/><path class="cls-19" d="M52.7,60.6h-.1c.1,0,.1,0,.1-.1Z" transform="translate(-9.8 -8.4)"/><path class="cls-19" d="M50.2,61.9Z" transform="translate(-9.8 -8.4)"/><path class="cls-19" d="M50.2,61.6Z" transform="translate(-9.8 -8.4)"/><path class="cls-19" d="M50.9,61.5Z" transform="translate(-9.8 -8.4)"/><path class="cls-19" d="M51,61.8Z" transform="translate(-9.8 -8.4)"/><path class="cls-19" d="M50.7,62.8h0Z" transform="translate(-9.8 -8.4)"/><path class="cls-19" d="M50.4,62.6Z" transform="translate(-9.8 -8.4)"/><path class="cls-19" d="M51.4,61.7Z" transform="translate(-9.8 -8.4)"/><path class="cls-19" d="M50.9,61.1h0Z" transform="translate(-9.8 -8.4)"/><path class="cls-19" d="M53.7,62Z" transform="translate(-9.8 -8.4)"/><path class="cls-19" d="M51.8,60.8h0a.1.1,0,0,0-.1.1h.1Z" transform="translate(-9.8 -8.4)"/><path class="cls-25" d="M54.8,40.5c-2.3-1.7-6.2-.3-6.8,1.6,0,0-1.3,2.4,2.7,3.1a.6.6,0,0,1,.8-.1c.4.3-.1.9-.1.9s-.2,0,.1.9h0c.6,1.7,2.8,2.2,2.8,2.2a7.5,7.5,0,0,0,1.5-2.7h0C56.5,44.3,56.7,41.9,54.8,40.5Z" transform="translate(-9.8 -8.4)"/><path class="cls-5" d="M48.6,41.2a1.2,1.2,0,0,1,.8.4,2.2,2.2,0,0,1,.3,1.4,2.3,2.3,0,0,0,1,2.3h.1a1.5,1.5,0,0,1-1-1.3c-.1-.5,0-1-.1-1.4a1.4,1.4,0,0,0-1.1-1.3Z" transform="translate(-9.8 -8.4)"/><path class="cls-19" d="M56.2,42.8a7.5,7.5,0,0,1-.4,1.6c-1.1,3.5-3.5,2.2-4.4,1.5h0s-.2,0,.1.9h0c.6,1.7,2.8,2.3,2.8,2.3a7.5,7.5,0,0,0,1.5-2.7h0A7.8,7.8,0,0,0,56.2,42.8Z" transform="translate(-9.8 -8.4)"/><path class="cls-5" d="M51.3,46.3c.7,1.4,2.4,1.8,3.9,1.6h0a3.9,3.9,0,0,1-3.9-1.6Z" transform="translate(-9.8 -8.4)"/><path class="cls-5" d="M49,40.8A3.4,3.4,0,0,1,52.4,42c.8,1,.9,2.6,1.6,3.7a2,2,0,0,0,1.6,1.2h0c-1.6-.3-2-1.9-2.4-3.3a5.8,5.8,0,0,0-.8-1.8,3.5,3.5,0,0,0-2.1-1Z" transform="translate(-9.8 -8.4)"/><path class="cls-5" d="M49.5,40.5a4.6,4.6,0,0,1,2.6-.1,3.6,3.6,0,0,1,1.8,1.2c.5.7.5.9.9,1.4a3.3,3.3,0,0,0,1.5,1h0a3.1,3.1,0,0,1-1.6-1.2,14.6,14.6,0,0,0-.9-1.3,3.1,3.1,0,0,0-1.6-1.1,3.7,3.7,0,0,0-1.8-.1l-1,.2Z" transform="translate(-9.8 -8.4)"/><path class="cls-3" d="M51.2,73.9c-1.6,5.2-3.2,10.4-4.9,15.6-.1.3.5.5.6.1L51.7,74C51.9,73.7,51.3,73.5,51.2,73.9Z" transform="translate(-9.8 -8.4)"/><path class="cls-3" d="M61,89.5c-1.6-5.2-3.2-10.4-4.9-15.6a.3.3,0,1,0-.5.1c1.7,5.2,3.3,10.4,4.9,15.6A.3.3,0,1,0,61,89.5Z" transform="translate(-9.8 -8.4)"/><path class="cls-3" d="M61.2,55.5c-.1-.6-1.1-.5-1,.1.6,6.2.2,14.5-6.7,16.9a12.9,12.9,0,0,1-5.8.7l-2.2-.4a.7.7,0,0,0-.7.4h0c-.1.2.1.5.3.6h.1l2.6.4c5,.6,11.6.2,13.5-4.8S62.2,59.9,61.2,55.5Z" transform="translate(-9.8 -8.4)"/></svg>