<svg id="Layer_1" data-name="Layer 1" xmlns="http://www.w3.org/2000/svg" viewBox="0 0 520.4 555"><defs><style>.cls-1{fill:#ff3c4e;}.cls-2{opacity:0.48;}.cls-3,.cls-7{fill:#ffd488;}.cls-12,.cls-4{opacity:0.08;}.cls-12,.cls-5{fill:#c42260;}.cls-6{opacity:0.63;}.cls-10,.cls-11,.cls-7,.cls-8{opacity:0.34;}.cls-14,.cls-8{fill:#ffc05c;}.cls-9{fill:#fff;}.cls-10{fill:none;stroke:#ffd488;stroke-miterlimit:10;stroke-width:0.59px;}.cls-13{fill:#efe1ca;}.cls-15{fill:#cb3e74;}.cls-16{fill:#bc1e5b;}.cls-17{fill:#681b4e;}.cls-18{fill:#300223;}.cls-19{fill:#210119;}.cls-20{fill:#3d0430;}.cls-21{fill:#fec3c7;}.cls-22{fill:#f4b8bd;}.cls-23{fill:#e5a5ad;}.cls-24{fill:#d3245e;}.cls-25{fill:#3a0328;}</style></defs><title>women</title><path class="cls-1" d="M133.7,255.5l-1.6-.2v.3Z" transform="translate(-44.8 -10.7)"/><g class="cls-2"><path class="cls-3" d="M483.5,228.4l-2.2-2.2-2.1,1.1-1.9-1v-2.5l-3-.8-1.4,2h-2.1l-1.3-2-3,.8-.2,2.5a8.1,8.1,0,0,0-1.8,1l-2.1-1.1-2.2,2.2,1,2.2a16.2,16.2,0,0,0-1,1.8l-2.4.2-.8,3,2,1.3a4.1,4.1,0,0,0-.1,1.1,3.4,3.4,0,0,0,.1,1h0l-2,1.4.8,3h2.4a10.4,10.4,0,0,0,1,1.8l-1,2.2,2.2,2.2,2.1-1.1,1.8,1.1.2,2.4,3,.8,1.3-2h2.1l1.4,2,3-.8v-2.4a11.8,11.8,0,0,0,1.9-1.1l2.1,1.1,2.2-2.2-1-2.2a10.4,10.4,0,0,0,1-1.8h2.4l.8-3-2-1.4h0a3.4,3.4,0,0,0,0-1,4.1,4.1,0,0,0,0-1.1l2-1.3-.8-3-2.4-.2a16.2,16.2,0,0,0-1-1.8Zm-4.9,16.4a9.7,9.7,0,0,1-13.6,0,9.6,9.6,0,1,1,13.6,0Z" transform="translate(-44.8 -10.7)"/><path class="cls-3" d="M483.6,228.4l-2.2-2.2h-.1l-1.3.6c-.2.1-.5.4-.8.4s-.6-.4-.9-.5-.8-.3-.9-.6,0-.6-.1-.8a7.6,7.6,0,0,0-.1-1.5h0l-3-.8h-.1l-1.3,2h0a2.8,2.8,0,0,0-2,0h0l-1.3-2h-.1l-3,.8h-.1v1.5c0,.2.1.6,0,.8s-.7.4-.9.6-.7.5-1,.5-.5-.3-.7-.4l-1.3-.6h-.1l-2.2,2.2h0l.6,1.3c.1.2.4.5.4.7a2.4,2.4,0,0,1-.5,1c-.2.2-.3.7-.6.9h-2.3c-.3,1-.5,2-.8,3h0l1.5,1c.4.3.4.3.5.7s-.2,1.2.1,1.7h-.1l-2,1.3h0c.3,1,.5,2,.8,3h2.3c.3.1.4.6.6.9a2.8,2.8,0,0,1,.5.9c0,.2-.3.6-.4.8l-.6,1.3h0c.7.8,1.5,1.5,2.2,2.2a.1.1,0,0,0,.1.1l1.3-.7.7-.3c.3-.1.7.3,1,.5s.8.3.9.5,0,.6,0,.8a7.6,7.6,0,0,1,.1,1.5h.1l3,.8h.1a8.3,8.3,0,0,1,.8-1.2,2.5,2.5,0,0,1,.4-.7h2.2l.4.7.8,1.2h.1l3-.8h0a7.6,7.6,0,0,0,.1-1.5c.1-.2,0-.6.1-.8s.6-.4.9-.5.7-.6.9-.5a1.9,1.9,0,0,1,.8.3l1.3.7h.1l2.2-2.2h0c-.2-.5-.5-.9-.7-1.3a2.6,2.6,0,0,1-.3-.8c-.1-.3.3-.6.5-.9s.3-.8.5-.9H486c.2-1,.5-2,.8-3h-.1l-2-1.3h0a4.2,4.2,0,0,0,.1-1.6c0-.5,0-.5.4-.8l1.5-1h.1c-.3-1-.6-2-.8-3h-2.4a4.1,4.1,0,0,1-.5-.9c-.2-.3-.6-.7-.5-1a2.1,2.1,0,0,1,.3-.7c.2-.5.5-.9.7-1.3h-.1a7.5,7.5,0,0,0-1,2c-.1.7.6,1.4.9,2h.1a9.2,9.2,0,0,1,2.4.1,3.6,3.6,0,0,1,.2,1,4.7,4.7,0,0,1,.4,1.6c.1.5.2.2-.1.5a10.1,10.1,0,0,1-1.3.9c-.8.6-.4,1.5-.5,2.4h.2c-.1.2,1.8,1.1,1.8,1.4s-.3,1.2-.4,1.6-.2,1.1-.3,1.2-1.8-.2-2.4.2a6.7,6.7,0,0,0-1.1,1.8c0,.2.2.4.3.6s.7,1.1.7,1.5-.4.6-.7.8a6.8,6.8,0,0,1-1.2,1.2c-.4.2-.3.2-.9-.1a3.7,3.7,0,0,0-1.4-.7c-.3,0-.8.5-1.1.6s-.7.3-.8.5a4.7,4.7,0,0,0-.1,1.7c-.1.7,0,.6-.5.8l-2,.5c-.6.2-.5.1-.9-.4l-.9-1.4h-.1c-.4.1-1.7-.2-2.1,0a3.3,3.3,0,0,0-.6,1c-.2.2-.6,1-.8,1s-1.2-.3-1.6-.4l-1.2-.3c-.3-.3-.1-1.4-.2-1.7s.1-.6,0-.8a8.7,8.7,0,0,0-1.9-1c-.7,0-1.6,1.1-2.2,1a13.9,13.9,0,0,1-2.1-2.1c-.1-.7,1.1-1.5,1.1-2.2a6.7,6.7,0,0,0-1.1-1.8c-.2-.2-1-.1-1.2-.1s-1,0-1.2-.3-.4-1.4-.6-2-.3-.6.3-1l1.4-1h.1a7.4,7.4,0,0,0,0-2.1c-.1-.2-.5-.3-.6-.4s-1.3-.7-1.4-1l.3-.9a5.3,5.3,0,0,1,.5-1.8c.2-.3.2-.2.7-.2a4.3,4.3,0,0,0,1.6-.1c.3-.2.3-.5.5-.8s.7-.8.7-1.1-.5-1-.7-1.3-.4-.7-.3-.9.9-.9,1.2-1.2.6-.8.9-.9l1.2.6c.3.1.7.5.9.5s1.5-.9,1.9-1.1h0a7.9,7.9,0,0,1,.1-2.2c.2-.4.9-.4,1.5-.6s1.2-.5,1.6-.2,1,1.8,1.2,1.7-.1.1,0,.1h2.2c.1.1.9-1.5,1.2-1.7s1,.1,1.6.2,1.3.2,1.4.6-.1,1.6.2,2.2a11.8,11.8,0,0,0,1.9,1.1,11.9,11.9,0,0,0,1.6-.8c.7-.4.7-.1,1.2.4l1.5,1.5Z" transform="translate(-44.8 -10.7)"/><path class="cls-3" d="M478.5,244.7a9.5,9.5,0,0,1-16.2-7.4,9.5,9.5,0,0,1,7.1-8.6,9.5,9.5,0,0,1,9.1,16c0,.1.1.2.1.1a9.7,9.7,0,0,0,2-10.8,9.8,9.8,0,0,0-9.9-5.7,10,10,0,0,0-8.3,7.2,9.8,9.8,0,0,0,4,10.5,9.7,9.7,0,0,0,12.2-1.2C478.7,244.8,478.6,244.7,478.5,244.7Z" transform="translate(-44.8 -10.7)"/></g><g class="cls-4"><path class="cls-5" d="M180.6,93.5l-2.2-2.2-2.2,1-1.8-1-.2-2.4-3-.8-1.3,2h-2.1l-1.4-2-3,.8v2.4a7.7,7.7,0,0,0-1.8,1l-2.2-1-2.2,2.2,1.1,2.1a11.8,11.8,0,0,0-1.1,1.9h-2.4l-.8,3,2,1.4v2.1h0l-2,1.3.8,3,2.4.2a17.4,17.4,0,0,0,1.1,1.8l-1.1,2.1,2.2,2.2,2.2-1a10.4,10.4,0,0,0,1.8,1v2.4l3,.8,1.4-2h2.1l1.3,2,3-.8.2-2.4,1.8-1,2.2,1,2.2-2.2-1.1-2.1a16.2,16.2,0,0,0,1-1.8l2.5-.2.8-3-2-1.3h0V102l2-1.4-.8-3h-2.5a11.4,11.4,0,0,0-1-1.9Zm-5,16.3a9.5,9.5,0,0,1-13.6,0,9.7,9.7,0,0,1,0-13.6,9.6,9.6,0,1,1,13.6,13.6Z" transform="translate(-44.8 -10.7)"/><path class="cls-5" d="M180.6,93.4c-.7-.7-1.5-1.4-2.2-2.2h-.1l-1.3.7-.7.3c-.3.1-.7-.3-1-.5l-.9-.5c-.1-.2,0-.6,0-.9s-.1-.9-.1-1.4a.1.1,0,0,0-.1-.1l-3-.8h0c-.5.6-.9,1.3-1.4,2h0a2.8,2.8,0,0,0-2,0h0l-1.3-2h-.1l-3,.8h0v1.4a2.5,2.5,0,0,1-.1.9c-.1.2-.6.4-.9.5s-.6.6-.9.5l-.8-.3-1.3-.7h0l-2.2,2.2H157a8.3,8.3,0,0,1,.7,1.3,1.9,1.9,0,0,1,.3.8c.1.2-.3.6-.5.9s-.3.8-.5.9h-2.4c-.2,1-.5,2-.8,3a.1.1,0,0,0,.1.1l1.5,1c.3.2.4.2.4.6s-.2,1.2.2,1.7h-.1l-2,1.3h-.1c.3,1,.6,2,.8,3H157c.2.1.4.6.5.9s.6.7.5,1a2.1,2.1,0,0,1-.3.7,8.3,8.3,0,0,1-.7,1.3h.1c.7.7,1.4,1.5,2.2,2.2h0l1.3-.6c.2-.1.6-.4.8-.4a2.8,2.8,0,0,1,.9.5c.3.2.8.3.9.6a2.2,2.2,0,0,1,.1.8,6.6,6.6,0,0,0,.1,1.4h0l3,.8h.1l.8-1.2a1.8,1.8,0,0,1,.5-.7c.2-.2.7-.1,1-.1s.9-.1,1.1.1.3.5.5.7l.8,1.2h0l3-.8c.1,0,.1,0,.1-.1s.1-.9.1-1.4v-.8c.2-.3.7-.4.9-.6a2.4,2.4,0,0,1,1-.5c.2,0,.5.3.7.4l1.3.6h.1l2.2-2.2h0l-.6-1.3c-.1-.2-.4-.5-.4-.7s.4-.7.5-1,.3-.8.6-.9H183c.3-1,.6-2,.8-3h0l-2-1.3h-.1a3.8,3.8,0,0,0,.1-1.5c0-.6,0-.5.5-.8l1.5-1h0c-.2-1-.5-2-.8-3h-2.3c-.3-.1-.4-.6-.6-.9s-.5-.7-.5-.9.3-.6.4-.8l.6-1.3c.1-.1-.1-.1-.1-.1a9.3,9.3,0,0,0-1,2c-.1.7.7,1.4,1,2.1h0c.5.1,2.1-.1,2.4.2s.2.7.3.9.3,1.1.4,1.7.1.2-.2.5l-1.3.8c-.8.6-.4,1.5-.4,2.5s.1.1.1,0,1.8,1.1,1.9,1.4a7.5,7.5,0,0,1-.5,1.6,3.5,3.5,0,0,1-.3,1.2c-.5.5-1.8-.1-2.4.2a11.8,11.8,0,0,0-1.1,1.9l.3.5c.2.4.8,1.2.7,1.6s-.4.5-.6.7a8,8,0,0,1-1.3,1.3c-.3.2-.3.1-.8-.2s-1.1-.7-1.4-.7-.9.5-1.2.7a1.4,1.4,0,0,0-.8.5,4.3,4.3,0,0,0-.1,1.6c0,.7.1.6-.5.8l-1.9.5c-.7.2-.5.2-.9-.4l-1-1.4h0a8.1,8.1,0,0,0-2.2,0c-.2.1-.4.7-.6.9l-.7,1.1a10.9,10.9,0,0,1-1.7-.5l-1.2-.3a4.7,4.7,0,0,1-.1-1.7,1.7,1.7,0,0,0-.1-.7,6.7,6.7,0,0,0-1.8-1.1c-.7,0-1.7,1.2-2.2,1a7,7,0,0,1-2.1-2.1c-.1-.6,1-1.4,1-2.1a5.9,5.9,0,0,0-1.1-1.9c-.2-.2-.9-.1-1.2-.1s-1,.1-1.2-.2a7.3,7.3,0,0,1-.5-2c-.2-.7-.3-.7.2-1.1a9.7,9.7,0,0,0,1.5-1c0,.1.1,0,.1,0s.2-1.7,0-2.2l-.6-.4c-.3-.2-1.3-.6-1.4-.9s.2-.8.2-1,.2-1.3.5-1.7.2-.2.7-.3a4.2,4.2,0,0,0,1.6-.1c.3-.1.4-.4.6-.8s.6-.8.6-1.1-.5-1-.6-1.3a2.3,2.3,0,0,1-.4-.9c.1-.3,1-.9,1.2-1.2s.7-.8.9-.9a8.3,8.3,0,0,1,1.3.7c.2.1.6.4.8.4s1.5-.8,1.9-1h0a13.6,13.6,0,0,1,.2-2.1c.2-.5.9-.5,1.5-.7s1.2-.5,1.5-.1,1,1.7,1.3,1.6-.1.2,0,.2a7.4,7.4,0,0,1,2.1,0c.1,0,.1-.1,0-.2s1-1.4,1.2-1.6,1,0,1.6.1,1.3.2,1.5.7-.2,1.5.1,2.1a7.2,7.2,0,0,0,1.9,1.1c.5,0,1.2-.6,1.7-.8s.6-.1,1.2.5l1.4,1.4C180.6,93.6,180.7,93.5,180.6,93.4Z" transform="translate(-44.8 -10.7)"/><path class="cls-5" d="M175.6,109.8a10,10,0,0,1-10.9,1.9,9.7,9.7,0,0,1-5.4-9.4,9.6,9.6,0,0,1,7.1-8.5,9.5,9.5,0,0,1,10.4,3.9,9.8,9.8,0,0,1-1.2,12.1c-.1,0,0,.1.1.1a10,10,0,0,0,2-10.9,9.7,9.7,0,1,0-14.3,12.1,10.1,10.1,0,0,0,12.3-1.2C175.7,109.8,175.7,109.7,175.6,109.8Z" transform="translate(-44.8 -10.7)"/></g><path class="cls-3" d="M463.7,109.5l-5.1-5-4.9,2.4a23.8,23.8,0,0,0-4.1-2.3l-.4-5.5-6.8-1.8-3.1,4.5h-4.7l-3.1-4.5-6.8,1.8-.4,5.5a23.8,23.8,0,0,0-4.1,2.3l-4.9-2.4-5.1,5,2.5,5a33.8,33.8,0,0,0-2.4,4.1l-5.5.4-1.8,6.8,4.5,3c0,.8-.1,1.6-.1,2.4s.1,1.6.1,2.4h0l-4.5,3.1,1.8,6.8,5.5.4a24.4,24.4,0,0,0,2.4,4.1l-2.5,4.9,5.1,5,4.9-2.4a33.8,33.8,0,0,0,4.1,2.4l.4,5.5,6.8,1.8,3.1-4.6h4.8l3,4.6,6.8-1.8.4-5.5a33.8,33.8,0,0,0,4.1-2.4l4.9,2.4,5.1-5-2.5-4.9a33.8,33.8,0,0,0,2.4-4.1l5.5-.4,1.8-6.8-4.5-3.1h0c0-.8.1-1.6.1-2.4s-.1-1.6-.1-2.4l4.5-3-1.8-6.8-5.5-.4a33.8,33.8,0,0,0-2.4-4.1Zm-11.3,37.2a21.9,21.9,0,1,1,0-31A21.7,21.7,0,0,1,452.4,146.7Z" transform="translate(-44.8 -10.7)"/><path class="cls-3" d="M463.8,109.4l-5.1-5h-.1l-3,1.5a13,13,0,0,1-1.7.8c-.6,0-1.5-.8-2.1-1.2s-1.8-.7-2.1-1.2a6.1,6.1,0,0,1-.1-1.9l-.2-3.3v-.2l-6.9-1.8a.1.1,0,0,0-.1.1l-3.1,4.5c0,.1,0,.2.1.2a5.9,5.9,0,0,0-4.7.1.4.4,0,0,0,.1-.3l-3.1-4.5a.1.1,0,0,0-.1-.1l-6.9,1.8v.2c0,1.1-.1,2.2-.2,3.3a6.1,6.1,0,0,1-.1,1.9c-.3.5-1.4.9-2.1,1.2s-1.5,1.2-2.1,1.2a13,13,0,0,1-1.7-.8l-3-1.5h-.2l-5,5v.2l1.5,3c.2.4.8,1.2.8,1.7s-.8,1.5-1.1,2.1-.7,1.8-1.3,2.1a6.1,6.1,0,0,1-1.9.1l-3.3.2c-.1,0-.1,0-.1.1-.6,2.3-1.3,4.6-1.9,6.8,0,.1,0,.2.1.2l3.4,2.3c.8.6.9.5,1,1.4s-.4,2.8.4,3.9h-.2l-4.6,3v.2c.6,2.3,1.3,4.6,1.9,6.8h.1l3.3.3a6.1,6.1,0,0,1,1.9.1c.6.3.9,1.4,1.3,2s1.2,1.6,1.1,2.2-.6,1.2-.8,1.7l-1.5,2.9v.2l5,5h.2l3-1.5c.5-.2,1.2-.8,1.7-.8s1.5.8,2.1,1.1,1.8.7,2.1,1.3a5.5,5.5,0,0,1,.1,1.8l.2,3.4h.1l6.9,1.8h.1c.7-.9,1.3-1.9,1.9-2.8s.6-1.3,1-1.5,1.7-.1,2.5-.1,1.9-.3,2.4.1.8,1.1,1,1.5l1.9,2.8h.1l6.9-1.8h.1c0-1.1.1-2.2.2-3.3a6.1,6.1,0,0,1,.1-1.9c.3-.6,1.4-.9,2.1-1.3s1.5-1.2,2.1-1.1,1.2.6,1.7.8l3,1.5h.1l5.1-5v-.2l-1.5-2.9c-.2-.5-.8-1.2-.8-1.7s.8-1.5,1.1-2.2.7-1.7,1.3-2a6.1,6.1,0,0,1,1.9-.1l3.3-.3h.1c.6-2.2,1.3-4.5,1.9-6.8v-.2l-4.6-3h-.2a6.9,6.9,0,0,0,.4-3.5c0-1.2-.1-1.1,1-1.8l3.4-2.3v-.2c-.6-2.2-1.3-4.5-1.9-6.8,0-.1,0-.1-.1-.1l-3.3-.2a12.1,12.1,0,0,1-1.9-.1c-.6-.3-.9-1.5-1.3-2.1s-1.2-1.5-1.1-2.1.6-1.3.8-1.7l1.5-3c.1-.2-.2-.3-.3-.1s-1.9,3-2.2,4.4,1.4,3.3,2.2,4.8h.1c1.2.1,4.7-.2,5.4.4s.4,1.7.6,2.2a24.9,24.9,0,0,1,.9,3.7c.2,1,.4.4-.4,1.1a18.7,18.7,0,0,1-2.9,2c-1.8,1.3-.8,3.4-1,5.5,0,.2.2.2.3.1s4.1,2.6,4.2,3.3-.7,2.6-1,3.6a16.3,16.3,0,0,1-.7,2.8c-1.2.9-4.1-.4-5.5.3a25.2,25.2,0,0,0-2.4,4.2,3.5,3.5,0,0,0,.6,1.4c.4.8,1.7,2.5,1.7,3.4s-1,1.3-1.5,1.8-1.9,2.3-2.9,2.8-.7.3-2-.3-2.3-1.6-3.1-1.6-2,1.1-2.7,1.5a5.4,5.4,0,0,0-1.8,1.1c-.4.7-.2,2.9-.2,3.8s.2,1.3-1.1,1.7-3,.8-4.5,1.2-1.1.4-2-.9l-2.1-3.2h-.1c-1.2.1-4-.5-4.9,0s-1.1,1.6-1.4,2.1a19.1,19.1,0,0,1-1.7,2.4c-.9.2-2.9-.8-3.8-1a16.3,16.3,0,0,1-2.8-.7c-.5-.6-.2-3-.2-3.8a9.9,9.9,0,0,0-.2-1.7,16.2,16.2,0,0,0-4.2-2.4c-1.6-.1-3.7,2.5-5,2.3s-4.7-4.3-4.8-4.8,2.5-3.4,2.4-5a15.1,15.1,0,0,0-2.5-4.2c-.5-.3-2.1-.1-2.8-.2s-2.2.2-2.7-.5-.9-3.3-1.2-4.6-.7-1.5.6-2.4,3.4-2.1,3.2-2.3.3.1.3-.1.4-3.9,0-4.8-1.1-.8-1.4-1-2.9-1.4-3.2-2.1a12.3,12.3,0,0,1,.6-2.2,18.2,18.2,0,0,1,1.1-4c.4-.6.5-.4,1.6-.5s2.9.2,3.7-.2.8-1.1,1.2-1.8,1.5-2,1.5-2.6-1.1-2.3-1.5-3-.9-1.6-.8-1.9,2.2-2.2,2.8-2.8,1.5-1.9,2-2,2.4,1.2,2.9,1.4,1.4,1,1.9,1,3.3-1.9,4.3-2.4h.1c0-1.4-.2-3.6.3-4.9s2-1,3.3-1.4,2.8-1.1,3.6-.4,2.3,4,2.8,3.8-.1.3,0,.3h4.9c.1,0,.2-.2,0-.3s2.2-3.4,2.8-3.8,2.2.1,3.6.4,3,.4,3.3,1.4-.3,3.6.3,4.9a18.6,18.6,0,0,0,4.3,2.5c1.1-.1,2.8-1.4,3.8-1.9s1.5-.1,2.8,1.2l3.3,3.2C463.7,109.8,463.9,109.6,463.8,109.4Z" transform="translate(-44.8 -10.7)"/><path class="cls-3" d="M452.3,146.6a21.7,21.7,0,1,1,2.7-27.5c5.9,8.6,4.4,20.1-2.7,27.5-.1.1.1.4.2.2a22,22,0,1,0-27.9,2.7,22.2,22.2,0,0,0,27.9-2.7C452.7,146.7,452.5,146.5,452.3,146.6Z" transform="translate(-44.8 -10.7)"/><g class="cls-4"><path class="cls-5" d="M391.6,17.5l-2.8-2.7-2.6,1.3-2.3-1.3-.2-3-3.7-1-1.7,2.5h-2.6L374,10.8l-3.7,1-.2,3-2.3,1.3-2.6-1.3-2.8,2.7,1.3,2.7a17.1,17.1,0,0,0-1.3,2.3l-3,.2-1,3.7,2.5,1.7v2.6h0l-2.5,1.6,1,3.8,3,.2a15.9,15.9,0,0,0,1.3,2.2l-1.3,2.7,2.8,2.8,2.6-1.4a13.4,13.4,0,0,0,2.3,1.3l.2,3,3.7,1,1.7-2.5h2.6l1.7,2.5,3.7-1,.2-3a13.4,13.4,0,0,0,2.3-1.3l2.6,1.4,2.8-2.8-1.3-2.7a15.9,15.9,0,0,0,1.3-2.2l3-.2,1-3.8-2.5-1.6h0V28.1l2.5-1.7-1-3.7-3-.2a17.1,17.1,0,0,0-1.3-2.3Zm-6.1,20.3a12,12,0,1,1,0-16.9A12,12,0,0,1,385.5,37.8Z" transform="translate(-44.8 -10.7)"/><path class="cls-5" d="M391.6,17.5l-2.7-2.8h-.1l-1.6.8-.9.5c-.4,0-.9-.5-1.2-.7s-1-.3-1.1-.7a3.1,3.1,0,0,1-.1-1V11.8h-.1l-3.7-1a.1.1,0,0,0-.1.1l-1.7,2.5h.1a3.4,3.4,0,0,0-2.6,0h.1l-1.7-2.5a.1.1,0,0,0-.1-.1l-3.7,1h-.1c0,.6-.1,1.2-.1,1.8a3.1,3.1,0,0,1-.1,1c-.1.4-.8.5-1.1.7s-.8.7-1.2.7l-.9-.5-1.6-.8h-.1l-2.7,2.8c-.1,0-.1,0-.1.1a11.9,11.9,0,0,1,.8,1.6,1.6,1.6,0,0,1,.5.9c0,.3-.4.8-.6,1.2s-.4,1-.7,1.1h-2.9c-.4,1.3-.7,2.5-1,3.8h0l1.9,1.2c.4.3.5.3.5.8s-.2,1.5.2,2.1h-.1l-2.5,1.7h0c.3,1.2.6,2.5,1,3.7h2.9c.3.2.5.8.7,1.2s.6.8.6,1.1a2.4,2.4,0,0,1-.5,1l-.8,1.6h.1l2.7,2.7h.1l1.6-.8.9-.4c.4-.1.9.4,1.2.6s1,.4,1.1.7a3.4,3.4,0,0,1,.1,1c0,.6.1,1.2.1,1.8s0,.1.1.1l3.7,1h.1l1-1.5a7,7,0,0,1,.6-.9c.3-.2.9,0,1.3,0s1.1-.2,1.3,0a1.8,1.8,0,0,1,.6.9l1,1.5h.1l3.7-1c.1,0,.1,0,.1-.1s.1-1.2.1-1.8a3.8,3.8,0,0,1,.1-1c.1-.3.8-.5,1.1-.7s.8-.7,1.2-.6l.9.4,1.6.8h.1l2.7-2.7h.1l-.8-1.6a2.4,2.4,0,0,1-.5-1c0-.3.4-.8.6-1.1s.4-1,.7-1.2h2.9c.4-1.2.7-2.5,1-3.7h0l-2.5-1.7H393a4,4,0,0,0,.2-1.9c0-.7,0-.6.5-1l1.9-1.2h0c-.3-1.3-.6-2.5-1-3.8h-2.9c-.3-.1-.5-.8-.7-1.1s-.6-.9-.6-1.2a1.6,1.6,0,0,1,.5-.9,11.9,11.9,0,0,1,.8-1.6c0-.1-.1-.2-.2-.1a13.4,13.4,0,0,0-1.2,2.4c-.1.9.8,1.8,1.2,2.6h.1c.6.1,2.5-.1,2.9.2s.2,1,.3,1.2a16.6,16.6,0,0,1,.6,2.1c0,.5.1.2-.3.6s-1.1.7-1.6,1.1-.4,1.8-.5,3,.1.1.1,0,2.3,1.4,2.3,1.8-.4,1.5-.5,2a15.5,15.5,0,0,1-.4,1.5c-.7.5-2.2-.2-3,.2a10.5,10.5,0,0,0-1.3,2.3,2.1,2.1,0,0,0,.3.7c.2.5.9,1.4.9,1.9s-.5.7-.8,1a10.6,10.6,0,0,1-1.5,1.5c-.5.3-.4.2-1.1-.2a5.8,5.8,0,0,0-1.8-.8c-.4,0-1,.6-1.4.8s-.8.3-1,.6a7.2,7.2,0,0,0-.1,2.1c-.1.8.1.7-.6.9l-2.4.7c-.8.2-.7.2-1.1-.5l-1.2-1.8h-.1c-.6,0-2.2-.3-2.6,0s-.6.8-.8,1.1-.7,1.3-.9,1.3a8,8,0,0,1-2.1-.5l-1.5-.4c-.3-.4-.1-1.7-.2-2.1a2.7,2.7,0,0,0,0-.9,8,8,0,0,0-2.4-1.3c-.8-.1-2,1.4-2.7,1.2a10.7,10.7,0,0,1-2.6-2.6c-.1-.8,1.3-1.8,1.3-2.7a10.5,10.5,0,0,0-1.3-2.3,4.2,4.2,0,0,0-1.6-.1c-.6,0-1.2.1-1.5-.3a10.2,10.2,0,0,1-.6-2.5c-.2-.9-.4-.8.3-1.3s1.8-1.2,1.8-1.3.1.1.1,0,.3-2.1,0-2.7-.6-.4-.8-.5a9.9,9.9,0,0,1-1.7-1.1,5.6,5.6,0,0,1,.4-1.2,5.5,5.5,0,0,1,.6-2.2c.2-.4.2-.3.8-.3a6.6,6.6,0,0,0,2-.1c.4-.2.5-.6.7-1a5,5,0,0,0,.8-1.4c0-.5-.6-1.3-.8-1.7s-.5-.8-.4-1,1.2-1.2,1.5-1.5.8-1.1,1.1-1.1,1.3.6,1.5.8.8.5,1.1.5,1.8-1.1,2.3-1.3h.1a7.4,7.4,0,0,1,.2-2.6c.2-.6,1-.6,1.8-.8s1.5-.6,2-.2,1.2,2.2,1.5,2-.1.2,0,.2h2.6c.1,0,.1-.1.1-.2s1.2-1.8,1.4-2,1.3,0,2,.2,1.7.2,1.8.8-.1,1.9.2,2.6a9.5,9.5,0,0,0,2.4,1.4c.6,0,1.5-.8,2-1s.8-.1,1.5.6l1.8,1.8C391.6,17.7,391.7,17.5,391.6,17.5Z" transform="translate(-44.8 -10.7)"/><path class="cls-5" d="M385.4,37.8a11.9,11.9,0,0,1-20.3-9.3,11.9,11.9,0,1,1,20.3,9.3c-.1.1,0,.2.1.1a12.1,12.1,0,1,0-20.2-11.6,12.5,12.5,0,0,0,5,13.1,12.2,12.2,0,0,0,15.2-1.5C385.6,37.8,385.5,37.7,385.4,37.8Z" transform="translate(-44.8 -10.7)"/></g><g class="cls-6"><rect class="cls-7" x="56" y="124.5" width="136.1" height="89.91" rx="0.7" ry="0.7"/><rect class="cls-8" x="56" y="124.5" width="136.1" height="10.58" rx="0.8" ry="0.8"/><path class="cls-9" d="M221.8,138.9h8.8c.4,0,.4-.5,0-.5h-8.8c-.4,0-.4.5,0,.5Z" transform="translate(-44.8 -10.7)"/><path class="cls-9" d="M221.8,140.9h8.8a.3.3,0,1,0,0-.6h-8.8a.3.3,0,1,0,0,.6Z" transform="translate(-44.8 -10.7)"/><path class="cls-9" d="M221.8,142.8h8.8a.3.3,0,1,0,0-.6h-8.8a.3.3,0,0,0,0,.6Z" transform="translate(-44.8 -10.7)"/><path class="cls-9" d="M108.6,161.5h71.1c.5,0,.5-.9,0-.9H108.6a.4.4,0,0,0,0,.9Z" transform="translate(-44.8 -10.7)"/><path class="cls-9" d="M108.6,168.2h71.1c.5,0,.5-.9,0-.9H108.6a.4.4,0,0,0,0,.9Z" transform="translate(-44.8 -10.7)"/><path class="cls-9" d="M108.6,174.9h60.2a.4.4,0,0,0,0-.9H108.6a.5.5,0,1,0,0,.9Z" transform="translate(-44.8 -10.7)"/><path class="cls-9" d="M108.6,181.6h54.6a.4.4,0,0,0,0-.9H108.6a.4.4,0,1,0,0,.9Z" transform="translate(-44.8 -10.7)"/><path class="cls-9" d="M169.7,200.8h60.2a.4.4,0,0,0,0-.9H169.7a.4.4,0,1,0,0,.9Z" transform="translate(-44.8 -10.7)"/><path class="cls-9" d="M169.7,207.5h54.6a.5.5,0,1,0,0-.9H169.7a.4.4,0,0,0,0,.9Z" transform="translate(-44.8 -10.7)"/></g><rect class="cls-7" x="155" y="13.7" width="95.2" height="89.91" rx="0.7" ry="0.7"/><rect class="cls-8" x="155" y="13.7" width="95.2" height="10.58" rx="0.8" ry="0.8"/><path class="cls-9" d="M284.5,31.9h6.1a.3.3,0,0,0,0-.5h-6.1a.3.3,0,0,0,0,.5Z" transform="translate(-44.8 -10.7)"/><path class="cls-9" d="M219.2,50.6h68.4a.4.4,0,0,0,0-.8H219.2a.4.4,0,1,0,0,.8Z" transform="translate(-44.8 -10.7)"/><path class="cls-9" d="M219.2,57.3h68.4c.5,0,.5-.9,0-.9H219.2a.4.4,0,1,0,0,.9Z" transform="translate(-44.8 -10.7)"/><path class="cls-9" d="M219.2,64h57.9a.4.4,0,1,0,0-.9H219.2a.5.5,0,0,0,0,.9Z" transform="translate(-44.8 -10.7)"/><path class="cls-9" d="M219.2,70.7h52.5a.5.5,0,0,0,0-.9H219.2a.5.5,0,0,0,0,.9Z" transform="translate(-44.8 -10.7)"/><path class="cls-9" d="M248,90h42.2c.5,0,.5-.9,0-.9H248c-.5,0-.5.9,0,.9Z" transform="translate(-44.8 -10.7)"/><path class="cls-9" d="M248,96.7h38.2a.5.5,0,0,0,0-.9H248c-.5,0-.5.9,0,.9Z" transform="translate(-44.8 -10.7)"/><rect class="cls-10" x="222" y="74.2" width="95.2" height="89.91" rx="0.7" ry="0.7"/><rect class="cls-8" x="222" y="74.2" width="95.2" height="10.58" rx="0.8" ry="0.8"/><path class="cls-9" d="M351.5,88.6h6.2c.3,0,.3-.6,0-.6h-6.2c-.2,0-.2.6,0,.6Z" transform="translate(-44.8 -10.7)"/><path class="cls-9" d="M351.5,90.5h6.2c.3,0,.3-.6,0-.6h-6.2c-.2,0-.2.6,0,.6Z" transform="translate(-44.8 -10.7)"/><path class="cls-9" d="M351.5,92.4h6.2a.3.3,0,0,0,0-.5h-6.2c-.2,0-.2.5,0,.5Z" transform="translate(-44.8 -10.7)"/><g class="cls-11"><path class="cls-3" d="M272.3,111.2H322a.5.5,0,0,0,0-.9H272.3c-.5,0-.5.9,0,.9Z" transform="translate(-44.8 -10.7)"/></g><g class="cls-11"><path class="cls-3" d="M272.3,117.8H322a.4.4,0,1,0,0-.8H272.3a.4.4,0,0,0,0,.8Z" transform="translate(-44.8 -10.7)"/></g><g class="cls-11"><path class="cls-3" d="M308.5,124.5h42.2c.5,0,.5-.9,0-.9H308.5a.4.4,0,1,0,0,.9Z" transform="translate(-44.8 -10.7)"/></g><g class="cls-11"><path class="cls-3" d="M308.5,131.2h38.2a.4.4,0,0,0,0-.9H308.5a.4.4,0,0,0,0,.9Z" transform="translate(-44.8 -10.7)"/></g><g class="cls-11"><path class="cls-3" d="M315.1,150.5h42.1a.4.4,0,0,0,0-.9H315.1a.5.5,0,0,0,0,.9Z" transform="translate(-44.8 -10.7)"/></g><g class="cls-11"><path class="cls-3" d="M315.1,157.2h38.2a.4.4,0,0,0,0-.9H315.1a.5.5,0,0,0,0,.9Z" transform="translate(-44.8 -10.7)"/></g><rect class="cls-10" x="0.3" y="74.2" width="95.2" height="89.91" rx="0.7" ry="0.7"/><rect class="cls-8" x="0.3" y="74.2" width="95.2" height="10.58" rx="0.8" ry="0.8"/><path class="cls-9" d="M129.8,88.6h6.1c.3,0,.3-.6,0-.6h-6.1c-.3,0-.3.6,0,.6Z" transform="translate(-44.8 -10.7)"/><path class="cls-9" d="M129.8,90.5h6.1c.3,0,.3-.6,0-.6h-6.1c-.3,0-.3.6,0,.6Z" transform="translate(-44.8 -10.7)"/><path class="cls-9" d="M129.8,92.4h6.1a.3.3,0,0,0,0-.5h-6.1a.3.3,0,0,0,0,.5Z" transform="translate(-44.8 -10.7)"/><g class="cls-11"><path class="cls-3" d="M50.6,111.2h49.7a.5.5,0,1,0,0-.9H50.6a.5.5,0,0,0,0,.9Z" transform="translate(-44.8 -10.7)"/></g><g class="cls-11"><path class="cls-3" d="M50.6,117.8h49.7a.4.4,0,1,0,0-.8H50.6a.4.4,0,1,0,0,.8Z" transform="translate(-44.8 -10.7)"/></g><g class="cls-11"><path class="cls-3" d="M86.8,124.5h42.1a.5.5,0,0,0,0-.9H86.8a.5.5,0,0,0,0,.9Z" transform="translate(-44.8 -10.7)"/></g><g class="cls-11"><path class="cls-3" d="M86.8,131.2H125c.5,0,.5-.9,0-.9H86.8a.4.4,0,0,0,0,.9Z" transform="translate(-44.8 -10.7)"/></g><g class="cls-11"><path class="cls-3" d="M93.3,150.5h42.2c.5,0,.5-.9,0-.9H93.3c-.5,0-.5.9,0,.9Z" transform="translate(-44.8 -10.7)"/></g><g class="cls-11"><path class="cls-3" d="M93.3,157.2h38.2a.4.4,0,0,0,0-.9H93.3c-.5,0-.5.9,0,.9Z" transform="translate(-44.8 -10.7)"/></g><path class="cls-12" d="M455.7,549.6S548,556,562.4,494.1s-29.9-95.3-38.2-108.4-23.7-58.1-7-93.5,2-104.6-69.2-95-76.2,57.5-133.6,18.9-130,42.4-83.4,93.2c60.9,66.5-12.6,109.9-12.6,109.9s-38.3,22.3-27.8,72.1c11.9,56.2,74.2,66,102.1,66.2S455.7,549.6,455.7,549.6Z" transform="translate(-44.8 -10.7)"/><ellipse class="cls-13" cx="280.6" cy="543.1" rx="187.4" ry="11.9"/><path class="cls-14" d="M291.4,380.7H72.7a3.4,3.4,0,0,1-3.4-3.4h0a3.4,3.4,0,0,1,3.4-3.3H291.4a3.4,3.4,0,0,1,3.4,3.3h0A3.4,3.4,0,0,1,291.4,380.7Z" transform="translate(-44.8 -10.7)"/><path class="cls-3" d="M142,372.5H111.6c-3.4-.1-10.3-2.2-12.2-9.7-3.7-14.5,30.9-42.2,32.4-43.3l1.7,2.2c-9.6,7.6-34.1,29.8-31.4,40.4,1.9,7.3,9.2,7.6,9.5,7.6H142Z" transform="translate(-44.8 -10.7)"/><path class="cls-3" d="M135.4,358.9h0a3.9,3.9,0,0,1-4-3.9V250.3a4,4,0,0,1,4-3.9h0a4,4,0,0,1,3.9,3.9V355A3.9,3.9,0,0,1,135.4,358.9Z" transform="translate(-44.8 -10.7)"/><rect class="cls-3" x="123.8" y="358.2" width="45.7" height="4.98"/><path class="cls-15" d="M347.1,262.7h.3c.1-.1,0-.2-.1-.2h-.2Z" transform="translate(-44.8 -10.7)"/><path class="cls-15" d="M330.9,274.4h-.1c-.1,0-.1.1-.1.2a.2.2,0,0,0,0,.3h.4c.1-.2,0-.3-.1-.4h-.1Z" transform="translate(-44.8 -10.7)"/><path class="cls-15" d="M342.7,261.8h0a.4.4,0,0,0-.3-.2c-.1,0-.3.1-.3.2H342v.2h.1a.5.5,0,0,0,.3.4h.3l.2-.2h0A.5.5,0,0,0,342.7,261.8Z" transform="translate(-44.8 -10.7)"/><path class="cls-15" d="M334.5,257.3h-.1c-.1.2,0,.3.1.4h.2c.1-.1.2-.1.2-.2a.2.2,0,0,0,0-.3h-.4Z" transform="translate(-44.8 -10.7)"/><path class="cls-15" d="M332.5,262.3h-.1v.2h0Z" transform="translate(-44.8 -10.7)"/><path class="cls-15" d="M335.5,252.7c0,.1,0,.2.1.2h.3v-.2h-.1Z" transform="translate(-44.8 -10.7)"/><path class="cls-15" d="M346.6,257.6h0A.2.2,0,0,0,346.6,257.6Z" transform="translate(-44.8 -10.7)"/><path class="cls-15" d="M342.6,259h-.2a.2.2,0,0,0-.4.1h0a.4.4,0,0,0,.1.3h.2l.3-.2v-.2Z" transform="translate(-44.8 -10.7)"/><path class="cls-15" d="M344.9,259.7h0v.2h.4a.2.2,0,0,0,.2-.2h-.1A.5.5,0,0,0,344.9,259.7Z" transform="translate(-44.8 -10.7)"/><path class="cls-15" d="M344.1,253.1l.3.4h.2a.8.8,0,0,0-.2-.4h-.3Z" transform="translate(-44.8 -10.7)"/><path class="cls-15" d="M339.7,255.2v.2h.4c0-.1,0-.3-.1-.3h-.3Z" transform="translate(-44.8 -10.7)"/><path class="cls-15" d="M341.3,273.4h-.7v.4h.1c0,.1.1.2.3.2h.7a.4.4,0,0,0-.2-.6h-.2Z" transform="translate(-44.8 -10.7)"/><path class="cls-15" d="M335.8,274.7c-.1,0-.1.1,0,.2a.1.1,0,0,0,.1.1h.4c-.1-.1-.2-.2-.3-.1S335.8,274.5,335.8,274.7Z" transform="translate(-44.8 -10.7)"/><path class="cls-15" d="M333.3,270.2v.2h.8v-.3h0V270h-.1C333.7,269.8,333.4,269.9,333.3,270.2Z" transform="translate(-44.8 -10.7)"/><path class="cls-15" d="M339.3,272.3h-.2a.5.5,0,0,0,.1.7h.5c.1-.1.2-.2.2-.3s0-.3,0-.4a.5.5,0,0,0-.4-.3Z" transform="translate(-44.8 -10.7)"/><path class="cls-15" d="M327,263.3h0l-.2.2h.2Z" transform="translate(-44.8 -10.7)"/><path class="cls-15" d="M340.3,268h-.1v-.2h-.6v.2h.1a.2.2,0,0,0,.2.2h.5Z" transform="translate(-44.8 -10.7)"/><path class="cls-15" d="M342.9,268.4h-.2l-.3.3v.4h.5l.3-.3a.4.4,0,0,0-.2-.5Z" transform="translate(-44.8 -10.7)"/><path class="cls-15" d="M343.2,265.5H343a.8.8,0,0,0,.2.5h.3c.2,0,.3-.1.4-.3a.7.7,0,0,0-.1-.5.6.6,0,0,0-.5-.2Z" transform="translate(-44.8 -10.7)"/><path class="cls-15" d="M330.3,266.4h-.2a.2.2,0,0,0,0,.3l.3.2h.2a.4.4,0,0,0,.1-.3h-.4Z" transform="translate(-44.8 -10.7)"/><path class="cls-15" d="M338.1,267l.3-.2v-.2h0l-.2-.2h-.4l-.2.2a.4.4,0,0,0,.2.5h.3Z" transform="translate(-44.8 -10.7)"/><path class="cls-15" d="M338.9,260.6h-.5a.8.8,0,0,0,.1.7h.4l.3-.3v-.4C339.1,260.7,339,260.7,338.9,260.6Z" transform="translate(-44.8 -10.7)"/><path class="cls-15" d="M329.4,257.6h0a.2.2,0,0,0-.2-.2H329l.3.2Z" transform="translate(-44.8 -10.7)"/><path class="cls-15" d="M327.4,272h0l.2.2h.1c.1-.1,0-.2-.1-.3S327.4,271.9,327.4,272Z" transform="translate(-44.8 -10.7)"/><path class="cls-15" d="M289.8,333.3h-.1c0,.1,0,.1.1.2h.2a.1.1,0,0,1-.1-.1h-.1Z" transform="translate(-44.8 -10.7)"/><path class="cls-15" d="M288.7,321.2h.1v.2h.1a.4.4,0,0,0,.1-.3h0a.1.1,0,0,1-.1-.1Z" transform="translate(-44.8 -10.7)"/><path class="cls-15" d="M291.7,326h-.2v.2h.4v-.2h-.2Z" transform="translate(-44.8 -10.7)"/><path class="cls-15" d="M285.4,318.4h0c0-.1-.1-.2-.2-.3a.3.3,0,0,0-.4,0h-.2a.6.6,0,0,0,.1.4l.3.2.3-.2h.1Z" transform="translate(-44.8 -10.7)"/><path class="cls-15" d="M285.9,327.6h0c-.1,0-.2,0-.2.1s-.2.2-.1.4h.3Z" transform="translate(-44.8 -10.7)"/><path class="cls-15" d="M280.3,310.4h-.1a.8.8,0,0,0-.1.4h.2c.1,0,.2,0,.2-.1a.2.2,0,0,0,.2-.2c0-.1-.1-.2-.1-.3h-.3Z" transform="translate(-44.8 -10.7)"/><path class="cls-15" d="M276.2,313.8h-.3c0,.1,0,.1.1.2h.4V314h-.3Z" transform="translate(-44.8 -10.7)"/><path class="cls-15" d="M287.8,325.3h-.3a.4.4,0,0,0,.1.3h.2Z" transform="translate(-44.8 -10.7)"/><path class="cls-15" d="M293.7,320.7h-.2v.2h.4a.1.1,0,0,0,0-.2h-.1Z" transform="translate(-44.8 -10.7)"/><path class="cls-15" d="M283.5,306.9c-.1,0-.1.1,0,.2h0Z" transform="translate(-44.8 -10.7)"/><path class="cls-15" d="M290.8,316.5h.3v-.2h0v-.2h-.1A.4.4,0,0,0,290.8,316.5Z" transform="translate(-44.8 -10.7)"/><path class="cls-15" d="M286.6,315.8h0c-.2-.1-.3-.2-.4-.1h-.1a.8.8,0,0,0-.1.4h.5c0-.1.1-.1.1-.2Z" transform="translate(-44.8 -10.7)"/><path class="cls-15" d="M288.3,317.5h-.1v.2h0a.4.4,0,0,0,.3.2c.1,0,.2,0,.2-.1h.1Z" transform="translate(-44.8 -10.7)"/><path class="cls-15" d="M290.8,311.4c0,.2.1.3,0,.5h.2a.9.9,0,0,0,.1-.5.2.2,0,0,0-.2-.2Z" transform="translate(-44.8 -10.7)"/><path class="cls-15" d="M286,311.1h.2a.2.2,0,0,0,0-.3H286Z" transform="translate(-44.8 -10.7)"/><path class="cls-15" d="M278.5,327.8h-.7v.2h-.1l.2.3h.8a.5.5,0,0,0,.1-.6Z" transform="translate(-44.8 -10.7)"/><path class="cls-15" d="M277.3,325.9H277c-.3.2-.2.5-.2.7h.7a.8.8,0,0,0,.2-.4.5.5,0,0,0-.3-.5Z" transform="translate(-44.8 -10.7)"/><path class="cls-15" d="M280.7,336.3v.2l.2.2h.1a.3.3,0,0,0,.1-.2v-.2h0c-.1-.1-.2,0-.3.1Z" transform="translate(-44.8 -10.7)"/><path class="cls-15" d="M280.2,322.6v-.4h-.7v.2h0a.5.5,0,0,0,.1.3h.6Z" transform="translate(-44.8 -10.7)"/><path class="cls-15" d="M282.3,324.2h-.5a.5.5,0,0,0-.2.4h.7a.5.5,0,0,0,.1-.5Z" transform="translate(-44.8 -10.7)"/><path class="cls-15" d="M285.1,330.1v.2h.4c0-.1,0-.1-.1-.2S285.1,330,285.1,330.1Z" transform="translate(-44.8 -10.7)"/><path class="cls-15" d="M282.8,330.3a.4.4,0,0,0-.1.3v.2h.5l-.2-.3Z" transform="translate(-44.8 -10.7)"/><path class="cls-15" d="M284,321.8h-.2a.6.6,0,0,0-.2.5h.2a.4.4,0,0,0,.5-.1.8.8,0,0,0,.2-.5c-.1-.2-.2-.3-.4-.3Z" transform="translate(-44.8 -10.7)"/><path class="cls-15" d="M278.9,320.6h.2l.2-.2h0v-.2h-.6a.7.7,0,0,0-.1.6h.4Z" transform="translate(-44.8 -10.7)"/><path class="cls-15" d="M297.3,313.6h-.1a.1.1,0,0,0,.1.1h.1a.3.3,0,0,0,.1-.2Z" transform="translate(-44.8 -10.7)"/><path class="cls-15" d="M282.6,315.4h-.5a.7.7,0,0,0-.3.7h.7a.8.8,0,0,0,.2-.4C282.7,315.6,282.7,315.5,282.6,315.4Z" transform="translate(-44.8 -10.7)"/><path class="cls-5" d="M464.4,469.8s1.1-13.5,11.7-23.2,21.6-8.5,24.7-3S499,469.1,464.4,469.8Z" transform="translate(-44.8 -10.7)"/><path class="cls-16" d="M481,461.6c-7.9,1.1-10.2-3.6-10.7-8.2a39.8,39.8,0,0,0-5.9,16.3c24.1-.5,33.7-10.4,36.4-18.1C496.9,456.7,490.7,460.2,481,461.6Z" transform="translate(-44.8 -10.7)"/><path class="cls-3" d="M485.9,452.2a86.6,86.6,0,0,0-12.6,8.9.3.3,0,0,1,.1-.2l.9-3a52.5,52.5,0,0,1,1.7-5.2c.1-.3-.4-.4-.5-.1a70.3,70.3,0,0,0-2.9,9.2c-2.2,1.8-4.4,3.8-6.4,5.8-5.3,5.1-8.8,12-11.9,18.7s-6.9,16.5-5.8,24.8c.1.3.6.2.5-.1-1.1-8.6,2.8-18.4,6.4-25.9s6.3-12.4,11.2-17.2c2-1.9,4.1-3.9,6.3-5.7l10.1.2a.3.3,0,0,0,0-.5h-4.7a40.1,40.1,0,0,1-4.9-.1,94,94,0,0,1,12.7-9A.3.3,0,0,0,485.9,452.2Z" transform="translate(-44.8 -10.7)"/><path class="cls-5" d="M434.6,454.7a45.7,45.7,0,0,0-10-24.3c-9.4-11.5-20.5-10.1-24.4-2.4S405.1,455.3,434.6,454.7Z" transform="translate(-44.8 -10.7)"/><path class="cls-16" d="M401.5,439.8c4.2,7.5,14.5,15,32.9,14.6a41.1,41.1,0,0,0-2.7-11.7C420.9,451.1,406.5,443.1,401.5,439.8Z" transform="translate(-44.8 -10.7)"/><path class="cls-3" d="M426.1,445.7v-.2l-2.7-11.4c-.1-.3-.7-.1-.6.2l1.2,5.3a31.6,31.6,0,0,1,1.4,5.5,89.5,89.5,0,0,0-10.1-8.1c-.3-.3-.7.2-.4.4,3.5,2.5,6.7,5.1,9.8,7.8h-3.8l-5.8-.2c-.4,0-.3.6.1.7l10.1.3c17.7,16.3,27.4,37.7,31.6,62.4.1.3.7.3.6-.1C453.3,483.6,443.6,462.1,426.1,445.7Z" transform="translate(-44.8 -10.7)"/><path class="cls-3" d="M468.5,552.1H433.6l-7.1-49a3.1,3.1,0,0,1,3.1-3.6H474a2.5,2.5,0,0,1,2.4,2.8Z" transform="translate(-44.8 -10.7)"/><path class="cls-14" d="M427.4,507l6.5,45.1h34.9l1.8-11.1C444.9,537.3,432.8,519.6,427.4,507Z" transform="translate(-44.8 -10.7)"/><path class="cls-9" d="M460.6,527a.1.1,0,0,1-.1.1.3.3,0,0,0,.1.2h0c.1.1.2.1.2,0h0c-.1-.1,0-.1-.1-.2h-.1Z" transform="translate(-44.8 -10.7)"/><path class="cls-9" d="M459.5,515h.1a.1.1,0,0,0,.1.1h.1c0-.1.1-.2,0-.3h-.1C459.6,514.9,459.6,514.9,459.5,515Z" transform="translate(-44.8 -10.7)"/><path class="cls-9" d="M462.5,519.8h-.2c.1.1.3.2.4.1v-.2h-.2Z" transform="translate(-44.8 -10.7)"/><path class="cls-9" d="M456.2,512.1h0a.4.4,0,0,0-.2-.4h-.5v.2h-.1a1.1,1.1,0,0,0,.1.5h.7C456.3,512.3,456.2,512.2,456.2,512.1Z" transform="translate(-44.8 -10.7)"/><path class="cls-9" d="M456.7,521.3h-.2c-.1,0-.2.1-.1.3h.3Z" transform="translate(-44.8 -10.7)"/><path class="cls-9" d="M451.1,504.1h0a.4.4,0,0,0-.2.4h.2c.1.1.2,0,.3,0s.1-.2.1-.3v-.2h-.3Z" transform="translate(-44.8 -10.7)"/><path class="cls-9" d="M447,507.5h-.2v.2h.5v-.2H447Z" transform="translate(-44.8 -10.7)"/><path class="cls-9" d="M458.6,519.1h-.2v.2a.3.3,0,0,0,.1.2h.4v-.2h-.3Z" transform="translate(-44.8 -10.7)"/><path class="cls-9" d="M464.5,514.5h0c-.1,0-.1-.1-.2,0h-.1a.1.1,0,0,0,.1.1h.2a497582161916.3,497582161916.3,0,0,0,.2-.2Z" transform="translate(-44.8 -10.7)"/><path class="cls-9" d="M454.3,500.6a.2.2,0,0,0,0,.3h.3v-.2h-.3Z" transform="translate(-44.8 -10.7)"/><path class="cls-9" d="M461.7,510.2c0,.1.1.2.2.1h-.2A.2.2,0,0,0,461.7,510.2Z" transform="translate(-44.8 -10.7)"/><path class="cls-9" d="M457.4,509.6v-.2h0a.4.4,0,0,0-.4-.2h-.1a.4.4,0,0,0-.1.3h.5c.1,0,.1-.1.1-.2Z" transform="translate(-44.8 -10.7)"/><path class="cls-9" d="M459.1,511.3H459v.2h0l.3.2h.3C459.5,511.4,459.4,511.2,459.1,511.3Z" transform="translate(-44.8 -10.7)"/><path class="cls-9" d="M461.6,505.1a4.3,4.3,0,0,0,.1.5h.1a.7.7,0,0,0,.1-.5.2.2,0,0,0-.2-.2Z" transform="translate(-44.8 -10.7)"/><path class="cls-9" d="M456.8,504.8v.2h0v.2h.2c.1,0,.1-.2.1-.2h-.3Z" transform="translate(-44.8 -10.7)"/><path class="cls-9" d="M449.3,521.5h-.7v.4h0c0,.2.1.3.2.3h.8c.2-.2.2-.4.1-.5v-.2Z" transform="translate(-44.8 -10.7)"/><path class="cls-9" d="M448.1,519.6h-.3a.6.6,0,0,0-.2.6h0v.2h.6a.5.5,0,0,0,.2-.4c0-.2-.1-.3-.3-.5Z" transform="translate(-44.8 -10.7)"/><path class="cls-9" d="M451.5,530.1h-.1l.2.2h.2c0-.1,0-.1.1-.2a.3.3,0,0,1,.1-.2h-.5Z" transform="translate(-44.8 -10.7)"/><path class="cls-9" d="M451.1,516.3v-.2h-.7v.2h0a.4.4,0,0,0,.1.3h.7Z" transform="translate(-44.8 -10.7)"/><path class="cls-9" d="M453.2,517.9h-.6l-.2.4v.2h.6c.1-.1.2-.2.1-.6Z" transform="translate(-44.8 -10.7)"/><path class="cls-9" d="M455.9,523.9a.1.1,0,0,0,.1.1h.3a.1.1,0,0,1,.1-.1h-.2C456.1,523.7,455.9,523.7,455.9,523.9Z" transform="translate(-44.8 -10.7)"/><path class="cls-9" d="M453.6,524a.4.4,0,0,0-.1.3.2.2,0,0,0,.2.2h.4a.2.2,0,0,0-.2-.2C453.8,523.9,453.7,524,453.6,524Z" transform="translate(-44.8 -10.7)"/><path class="cls-9" d="M454.8,515.5h-.2a.6.6,0,0,0-.2.5v.2h.1a.4.4,0,0,0,.5,0c.2-.1.2-.3.2-.5s-.2-.4-.4-.4Z" transform="translate(-44.8 -10.7)"/><path class="cls-9" d="M449.7,514.4h.4v-.4h-.6a.4.4,0,0,0-.2.5h.4Z" transform="translate(-44.8 -10.7)"/><path class="cls-9" d="M468.1,507.3H468s.1.1.1,0h.1c.1,0,.1-.1.1-.2Z" transform="translate(-44.8 -10.7)"/><path class="cls-9" d="M453.4,509.1h-.5c-.3.3-.3.5-.2.7h.6a.5.5,0,0,0,.2-.4A.6.6,0,0,0,453.4,509.1Z" transform="translate(-44.8 -10.7)"/><path class="cls-9" d="M462.1,538.9a.1.1,0,0,0-.1.1c0,.1,0,.1.1.2h.1V539h-.1Z" transform="translate(-44.8 -10.7)"/><path class="cls-9" d="M461,526.9h.2a.2.2,0,0,0,0-.3h0C461.1,526.8,461,526.8,461,526.9Z" transform="translate(-44.8 -10.7)"/><path class="cls-9" d="M464,531.7c0-.1-.1-.1-.2,0h0c.1.1.3.2.3.1v-.2Z" transform="translate(-44.8 -10.7)"/><path class="cls-9" d="M457.7,524h-.1a.6.6,0,0,0-.1-.4h-.6a.6.6,0,0,0,.1.4l.3.2h.2v-.2h0A.4.4,0,0,0,457.7,524Z" transform="translate(-44.8 -10.7)"/><path class="cls-9" d="M458.2,533.2h-.3c0,.1-.1.2,0,.4h.3Z" transform="translate(-44.8 -10.7)"/><path class="cls-9" d="M452.6,516h-.1a.6.6,0,0,0-.1.4h.4l.2-.3-.2-.2h-.2Z" transform="translate(-44.8 -10.7)"/><path class="cls-9" d="M448.5,519.4h-.2v.2h.6c0-.1,0-.1-.1-.2h-.2Z" transform="translate(-44.8 -10.7)"/><path class="cls-9" d="M460.1,531h-.2v.2a.3.3,0,0,0,.1.2h.2Z" transform="translate(-44.8 -10.7)"/><path class="cls-9" d="M466,526.3h.1s.1,0,0-.1H466Z" transform="translate(-44.8 -10.7)"/><path class="cls-9" d="M455.8,512.5a.2.2,0,0,0,0,.3h.2v-.2h-.3Z" transform="translate(-44.8 -10.7)"/><path class="cls-9" d="M463.1,522.1h.3a.1.1,0,0,0-.1-.1h-.1C463.1,521.9,463,522,463.1,522.1Z" transform="translate(-44.8 -10.7)"/><path class="cls-9" d="M458.9,521.5v-.2h-.5c-.2.2-.1.3-.1.4h.5a.3.3,0,0,0,.1-.2Z" transform="translate(-44.8 -10.7)"/><path class="cls-9" d="M460.6,523.2h-.1v.2h0c0,.1.1.2.3.2h.2a.1.1,0,0,1,.1-.1h0A.4.4,0,0,0,460.6,523.2Z" transform="translate(-44.8 -10.7)"/><path class="cls-9" d="M463.1,517v.5h.2a.7.7,0,0,0,.1-.5c-.1-.1-.1-.2-.2-.2Z" transform="translate(-44.8 -10.7)"/><path class="cls-9" d="M458.2,516.7v.2h0a.3.3,0,0,0,.1.2h.1a.1.1,0,0,1,.1-.1.2.2,0,0,0,0-.3h-.3Z" transform="translate(-44.8 -10.7)"/><path class="cls-9" d="M450.8,533.4h-.7l-.2.2v.2h0c0,.1.1.3.2.3h.8a.5.5,0,0,0,.1-.6Z" transform="translate(-44.8 -10.7)"/><path class="cls-9" d="M449.6,531.5h-.3a.6.6,0,0,0-.2.6h0v.2h.6a.6.6,0,0,0,.1-.4.6.6,0,0,0-.2-.5Z" transform="translate(-44.8 -10.7)"/><path class="cls-9" d="M452.9,542h0v.2h.2c.1-.1.1-.1.1-.2s.1-.1.1-.2h0c-.2-.1-.3,0-.3.1Z" transform="translate(-44.8 -10.7)"/><path class="cls-9" d="M452.5,528.2V528h-.6v.2h-.1a.4.4,0,0,0,.2.3h.6Z" transform="translate(-44.8 -10.7)"/><path class="cls-9" d="M454.6,529.8h-.5a.5.5,0,0,0-.2.4v.2h.7c0-.1.2-.3.1-.6Z" transform="translate(-44.8 -10.7)"/><path class="cls-9" d="M457.4,535.8h.4a.1.1,0,0,0-.1-.1C457.6,535.5,457.4,535.6,457.4,535.8Z" transform="translate(-44.8 -10.7)"/><path class="cls-9" d="M455.1,535.9c-.1.1-.2.2-.1.3s0,.2.1.2h.4c0-.1,0-.2-.1-.2S455.2,535.9,455.1,535.9Z" transform="translate(-44.8 -10.7)"/><path class="cls-9" d="M456.2,527.4H456a1.1,1.1,0,0,0-.1.5h.2a.5.5,0,0,0,.5,0c.1-.1.2-.4.1-.5s-.1-.4-.3-.4Z" transform="translate(-44.8 -10.7)"/><path class="cls-9" d="M451.1,526.3h.4v-.4h-.6a.5.5,0,0,0-.1.5h.3Z" transform="translate(-44.8 -10.7)"/><path class="cls-9" d="M469.6,519.2h.1c.1-.1.1-.1,0-.2Z" transform="translate(-44.8 -10.7)"/><path class="cls-9" d="M454.9,521h-.6a1,1,0,0,0-.2.7h.7a.8.8,0,0,0,.2-.4A.6.6,0,0,0,454.9,521Z" transform="translate(-44.8 -10.7)"/><path class="cls-5" d="M470,436.5s1.9-22.9,19.9-39.4,36.6-14.3,41.9-5S528.8,435.3,470,436.5Z" transform="translate(-44.8 -10.7)"/><path class="cls-16" d="M498.2,422.5c-13.4,1.9-17.3-6.1-18.1-13.9A67.9,67.9,0,0,0,470,436.3c40.9-.8,57.3-17.5,61.8-30.7C525.3,414.2,514.8,420.2,498.2,422.5Z" transform="translate(-44.8 -10.7)"/><path class="cls-3" d="M506.5,406.7a152.8,152.8,0,0,0-21.4,15.1l.2-.3c.5-1.7,1-3.5,1.6-5.2a88.1,88.1,0,0,1,2.8-8.7c.2-.5-.7-.8-.9-.2-2.1,4.9-3.3,10.4-4.9,15.5q-5.5,4.8-10.8,9.9c-8.9,8.7-15,20.4-20.2,31.7s-11.7,28.2-9.8,42.2c.1.6.9.3.9-.2-2-14.6,4.7-31.2,10.8-43.9,4.9-10.4,10.7-21.1,18.9-29.2,3.5-3.4,7-6.6,10.7-9.8l17.1.4c.6,0,.6-.8,0-.9l-7.9-.2a76.6,76.6,0,0,1-8.3-.1,153.6,153.6,0,0,1,21.6-15.3C507.4,407.2,507,406.4,506.5,406.7Z" transform="translate(-44.8 -10.7)"/><path class="cls-17" d="M514.6,418.2c-.1,0-.1,0-.1.1h.1c0,.1.1.1.2.1h0c-.1-.1,0-.1-.1-.2a.1.1,0,0,1-.1.1Z" transform="translate(-44.8 -10.7)"/><path class="cls-17" d="M513.5,406.1h.1v.2h.2v-.2h-.3Z" transform="translate(-44.8 -10.7)"/><path class="cls-17" d="M516.5,410.9h-.2v.2h.2Z" transform="translate(-44.8 -10.7)"/><path class="cls-17" d="M510.2,403.2h0l-.2-.3h-.6a1.1,1.1,0,0,0,.1.5l.3.2.3-.2h.1Z" transform="translate(-44.8 -10.7)"/><path class="cls-17" d="M510.7,412.4h0c-.1,0-.2,0-.2.1s-.2.1-.1.4h.3Z" transform="translate(-44.8 -10.7)"/><path class="cls-17" d="M505.1,395.3h0c-.2.2-.2.3-.2.4h.5v-.2c0-.1-.1-.2-.1-.3h-.3Z" transform="translate(-44.8 -10.7)"/><path class="cls-17" d="M501,398.7h-.2c-.1.1-.1.1,0,.2h.4v-.2H501Z" transform="translate(-44.8 -10.7)"/><path class="cls-17" d="M512.6,410.2a.1.1,0,0,0-.1.1h-.1v.2c0,.1,0,.2.2.3h.1Z" transform="translate(-44.8 -10.7)"/><path class="cls-17" d="M518.5,405.6h-.2v.2h.4a.1.1,0,0,0,0-.2Z" transform="translate(-44.8 -10.7)"/><path class="cls-17" d="M508.3,391.7a.2.2,0,0,0,0,.3h.3v-.2h-.3Z" transform="translate(-44.8 -10.7)"/><path class="cls-17" d="M515.6,401.4a.2.2,0,0,0,.3,0h0c0-.1,0-.1-.1-.2h-.1A.4.4,0,0,0,515.6,401.4Z" transform="translate(-44.8 -10.7)"/><path class="cls-17" d="M511.4,400.7h0c-.2-.2-.3-.2-.4-.1h-.1a.5.5,0,0,0-.1.3h.1c.2.1.3.1.4,0h.1Z" transform="translate(-44.8 -10.7)"/><path class="cls-17" d="M513.1,402.4H513v.2a.4.4,0,0,0,.3.2c.1,0,.2,0,.2-.1h.1v-.2h0C513.5,402.5,513.3,402.3,513.1,402.4Z" transform="translate(-44.8 -10.7)"/><path class="cls-17" d="M515.6,396.3c0,.1.1.3,0,.5h.2a.6.6,0,0,0,.1-.4l-.2-.2Z" transform="translate(-44.8 -10.7)"/><path class="cls-17" d="M510.8,396h-.1v.2h.2a.2.2,0,0,0,0-.3h-.1S510.8,395.9,510.8,396Z" transform="translate(-44.8 -10.7)"/><path class="cls-17" d="M503.3,412.7h-.8v.2h0c0,.1.1.2.2.3h.8a.3.3,0,0,0,.1-.5h-.2Z" transform="translate(-44.8 -10.7)"/><path class="cls-17" d="M502.1,410.7h-.3a.6.6,0,0,0-.2.6h.7a.5.5,0,0,0,.2-.4.5.5,0,0,0-.3-.4Z" transform="translate(-44.8 -10.7)"/><path class="cls-17" d="M505.5,421.2v.2l.2.2h.1a.3.3,0,0,0,.1-.2c.1-.1.1-.1.1-.2V421h-.4Z" transform="translate(-44.8 -10.7)"/><path class="cls-17" d="M505,407.4h.1v-.2h-.7v.2h0a.8.8,0,0,0,.1.3h.5Z" transform="translate(-44.8 -10.7)"/><path class="cls-17" d="M507.1,409.1h-.2c-.1-.1-.2,0-.3,0a.8.8,0,0,0-.2.5h.7c.1,0,.2-.2.1-.5Z" transform="translate(-44.8 -10.7)"/><path class="cls-17" d="M509.9,415h.5c-.1-.1-.1-.2-.2-.2S509.9,414.9,509.9,415Z" transform="translate(-44.8 -10.7)"/><path class="cls-17" d="M507.6,415.2c-.1,0-.1.1-.1.2s.1.2.2.3h.4c-.1-.1-.1-.2-.2-.2Z" transform="translate(-44.8 -10.7)"/><path class="cls-17" d="M508.8,406.7h-.2c-.2.1-.2.3-.2.5h.7a.8.8,0,0,0,.2-.5.8.8,0,0,0-.4-.4Z" transform="translate(-44.8 -10.7)"/><path class="cls-17" d="M503.7,405.5h.2l.2-.2h0v-.4h-.6a.7.7,0,0,0-.1.6h.4Z" transform="translate(-44.8 -10.7)"/><path class="cls-17" d="M522.1,398.5h.1v-.2Z" transform="translate(-44.8 -10.7)"/><path class="cls-17" d="M507.4,400.3H507a.1.1,0,0,0-.1.1c-.3.2-.3.5-.2.6v.2h.3l.3-.2a.5.5,0,0,0,.2-.4A.4.4,0,0,0,507.4,400.3Z" transform="translate(-44.8 -10.7)"/><path class="cls-5" d="M450.9,420.4a65.4,65.4,0,0,0-2.5-37.8c-7.5-20.1-23.3-23.3-32.2-14.5S410.3,407.6,450.9,420.4Z" transform="translate(-44.8 -10.7)"/><path class="cls-16" d="M412.5,384.7c2.3,12.3,13,27.3,38.3,35.2a60.1,60.1,0,0,0,1.6-17.2C433.7,409.2,417.9,391.6,412.5,384.7Z" transform="translate(-44.8 -10.7)"/><path class="cls-3" d="M443.4,404.2c0-.1.1-.2.1-.3l1.5-16.7c.1-.6-.8-.6-.9,0-.2,2.5-.4,5.1-.7,7.7s-.1,5.5-.7,8.1a133.4,133.4,0,0,0-10-15.7c-.3-.5-1.1,0-.8.4a150.2,150.2,0,0,1,9.8,15.2h-.2l-4.9-1.8-7.8-2.9c-.6-.2-.8.7-.3.9l13.8,5.1c16.5,30.5,19.8,64.3,14.2,99.9-.1.6.8.8.9.3C463,468.6,459.8,434.7,443.4,404.2Z" transform="translate(-44.8 -10.7)"/><path class="cls-17" d="M437.7,400.4c-.1,0-.1,0-.1.1s0,.1.1.1h0c0,.1.1.2.2.1h-.1v-.2c0,.1,0,.1-.1.1Z" transform="translate(-44.8 -10.7)"/><path class="cls-17" d="M436.6,388.3h.1v.2c.1,0,.1,0,.1-.1h0c.1,0,.1-.1.1-.2h-.3Z" transform="translate(-44.8 -10.7)"/><path class="cls-17" d="M439.6,393.1h-.2v.2h.2Z" transform="translate(-44.8 -10.7)"/><path class="cls-17" d="M433.3,385.4h0l-.2-.3a.3.3,0,0,0-.4,0h-.2a.9.9,0,0,0,.1.5l.3.2.3-.2h.1Z" transform="translate(-44.8 -10.7)"/><path class="cls-17" d="M433.8,394.6h-.2c-.1,0-.2.2-.1.4h.3Z" transform="translate(-44.8 -10.7)"/><path class="cls-17" d="M428.2,377.5h-.1a.8.8,0,0,0-.1.4h.2c.1,0,.2,0,.2-.1a.2.2,0,0,0,.2-.2c0-.1-.1-.2-.2-.3h-.2Z" transform="translate(-44.8 -10.7)"/><path class="cls-17" d="M424.1,380.9h-.3v.2h.4v-.2a.1.1,0,0,0-.1-.1h-.2Z" transform="translate(-44.8 -10.7)"/><path class="cls-17" d="M435.7,392.4h-.2v.2a.4.4,0,0,0,.1.3h.2Z" transform="translate(-44.8 -10.7)"/><path class="cls-17" d="M441.6,387.8h-.3v.2h.4a.1.1,0,0,0,0-.2h-.1Z" transform="translate(-44.8 -10.7)"/><path class="cls-17" d="M431.4,373.9a.2.2,0,0,0,0,.3h.3v-.2h-.3Z" transform="translate(-44.8 -10.7)"/><path class="cls-17" d="M438.7,383.6h.3c0-.1,0-.1-.1-.2h-.1A.4.4,0,0,0,438.7,383.6Z" transform="translate(-44.8 -10.7)"/><path class="cls-17" d="M434.5,382.9h0c-.2-.1-.3-.2-.4-.1H434c-.2.2-.1.3-.1.3h.5c0-.1.1-.1.1-.2Z" transform="translate(-44.8 -10.7)"/><path class="cls-17" d="M436.2,384.6h-.1v.2h0a.4.4,0,0,0,.3.2h.3v-.2h0C436.6,384.7,436.4,384.5,436.2,384.6Z" transform="translate(-44.8 -10.7)"/><path class="cls-17" d="M438.7,378.5c0,.2.1.3,0,.5h.2a.6.6,0,0,0,.1-.4.2.2,0,0,0-.2-.2Z" transform="translate(-44.8 -10.7)"/><path class="cls-17" d="M433.9,378.2h-.1c0,.1,0,.2.1.2h.2a.2.2,0,0,0,0-.3h-.2Z" transform="translate(-44.8 -10.7)"/><path class="cls-17" d="M426.4,394.9h-.7v.2h-.1c0,.1.1.2.2.3h.8c.2-.1.2-.3.1-.5Z" transform="translate(-44.8 -10.7)"/><path class="cls-17" d="M425.2,392.9h-.3a.6.6,0,0,0-.2.6h.3a.5.5,0,0,0,.4-.2c.1,0,.2-.2.2-.3a.5.5,0,0,0-.3-.5Z" transform="translate(-44.8 -10.7)"/><path class="cls-17" d="M428.6,403.4v.2l.2.2h.1v-.2c.1-.1.1-.1.1-.2v-.2h-.4Z" transform="translate(-44.8 -10.7)"/><path class="cls-17" d="M428.1,389.6h0v-.2h-.7v.2h-.1c.1,0,.1.2.2.3h.5Z" transform="translate(-44.8 -10.7)"/><path class="cls-17" d="M430.2,391.3H430c-.1-.1-.2,0-.3.1a.5.5,0,0,0-.2.4h.7a.5.5,0,0,0,.1-.5Z" transform="translate(-44.8 -10.7)"/><path class="cls-17" d="M433,397.2h.4V397Z" transform="translate(-44.8 -10.7)"/><path class="cls-17" d="M430.7,397.4a.3.3,0,0,0-.1.2.4.4,0,0,0,.1.3h.5l-.2-.2Z" transform="translate(-44.8 -10.7)"/><path class="cls-17" d="M431.9,388.9h-.2a.6.6,0,0,0-.2.5h.2a.4.4,0,0,0,.5-.1.8.8,0,0,0,.2-.5c-.1-.2-.2-.3-.4-.3Z" transform="translate(-44.8 -10.7)"/><path class="cls-17" d="M426.8,387.7h.2l.2-.2h0v-.2h-.6a.7.7,0,0,0-.1.6h.4Z" transform="translate(-44.8 -10.7)"/><path class="cls-17" d="M445.2,380.7h.1c.1-.1.1-.2,0-.2A.1.1,0,0,0,445.2,380.7Z" transform="translate(-44.8 -10.7)"/><path class="cls-17" d="M430.5,382.5H430a.7.7,0,0,0-.3.7h.7a.8.8,0,0,0,.2-.4C430.6,382.7,430.6,382.6,430.5,382.5Z" transform="translate(-44.8 -10.7)"/><path class="cls-5" d="M155.1,497.7a26.2,26.2,0,0,0-7.9-15.5c-7-6.5-14.3-5.6-16.4-2S132,497.2,155.1,497.7Z" transform="translate(-44.8 -10.7)"/><path class="cls-16" d="M144,492.2c5.3.7,6.8-2.4,7.1-5.5a27.2,27.2,0,0,1,4,10.9c-16.1-.3-22.5-6.9-24.3-12.1C133.4,488.9,137.5,491.3,144,492.2Z" transform="translate(-44.8 -10.7)"/><path class="cls-3" d="M140.7,486a55.1,55.1,0,0,1,8.4,5.9h0a17.2,17.2,0,0,0-.7-2.1,22.4,22.4,0,0,0-1.1-3.4.2.2,0,0,1,.4-.1c.8,2,1.3,4.1,1.9,6.1l4.3,3.9c3.5,3.4,5.9,8,7.9,12.5s4.6,11,3.8,16.5c0,.3-.3.2-.3-.1.8-5.7-1.9-12.2-4.2-17.2s-4.3-8.3-7.5-11.4a38.8,38.8,0,0,0-4.2-3.9l-6.7.2c-.2,0-.2-.4,0-.4H149a55.7,55.7,0,0,0-8.4-6C140.4,486.2,140.5,485.9,140.7,486Z" transform="translate(-44.8 -10.7)"/><path class="cls-5" d="M174.9,487.6a30.4,30.4,0,0,1,6.7-16.2c6.3-7.7,13.7-6.7,16.3-1.6S194.6,488,174.9,487.6Z" transform="translate(-44.8 -10.7)"/><path class="cls-16" d="M197,477.7c-2.8,5-9.7,10-22,9.7a28.6,28.6,0,0,1,1.9-7.8C184.1,485.2,193.6,479.9,197,477.7Z" transform="translate(-44.8 -10.7)"/><path class="cls-3" d="M180.6,481.6h0l1.8-7.6c.1-.3.5-.1.4.1s-.5,2.4-.8,3.5a24.9,24.9,0,0,0-.9,3.7,60.7,60.7,0,0,1,6.7-5.4.2.2,0,0,1,.3.3,56.9,56.9,0,0,0-6.5,5.2h6.3a.2.2,0,1,1,0,.4l-6.8.2c-11.8,10.9-18.2,25.2-21.1,41.6a.2.2,0,1,1-.4,0C162.5,506.9,168.9,492.5,180.6,481.6Z" transform="translate(-44.8 -10.7)"/><path class="cls-3" d="M152.3,552.6h23.3l4.7-32.7a2.1,2.1,0,0,0-2-2.4H148.7a1.6,1.6,0,0,0-1.6,1.9Z" transform="translate(-44.8 -10.7)"/><path class="cls-14" d="M179.8,522.5l-4.4,30.1H152.1l-1.2-7.5C168,542.7,176.1,530.9,179.8,522.5Z" transform="translate(-44.8 -10.7)"/><path class="cls-9" d="M157.6,535.9Z" transform="translate(-44.8 -10.7)"/><path class="cls-9" d="M158.3,527.8h0c-.1,0,0,0-.1.1h-.1v-.2h.2Z" transform="translate(-44.8 -10.7)"/><path class="cls-9" d="M156.3,531h.1c0,.1-.1.1-.2.1V531Z" transform="translate(-44.8 -10.7)"/><path class="cls-9" d="M160.5,525.9h0a.2.2,0,0,1,.2-.2c0-.1.1-.1.2-.1h.1c0,.1.1.2,0,.3h-.5Z" transform="translate(-44.8 -10.7)"/><path class="cls-9" d="M160.2,532h0a.1.1,0,0,1,.1.1c.1,0,.1.1.1.2h-.2a.1.1,0,0,1-.1-.1h.1Z" transform="translate(-44.8 -10.7)"/><path class="cls-9" d="M163.9,520.6h0c.2.1.2.2.1.3h-.3v-.2h.2Z" transform="translate(-44.8 -10.7)"/><path class="cls-9" d="M166.6,522.8c.1,0,.1,0,.1.1h-.1Z" transform="translate(-44.8 -10.7)"/><path class="cls-9" d="M158.9,530.6h.2v.2h-.1Z" transform="translate(-44.8 -10.7)"/><path class="cls-9" d="M155,527.5h0a.1.1,0,0,1,.1-.1H155Z" transform="translate(-44.8 -10.7)"/><path class="cls-9" d="M161.8,518.2v.2h0Z" transform="translate(-44.8 -10.7)"/><path class="cls-9" d="M156.9,524.7h-.2a.1.1,0,0,1,.1-.1h0C156.9,524.5,156.9,524.6,156.9,524.7Z" transform="translate(-44.8 -10.7)"/><path class="cls-9" d="M159.7,524.2h0c.1-.1.2-.2.3-.1h.1v.2h-.3a.1.1,0,0,0-.1-.1Z" transform="translate(-44.8 -10.7)"/><path class="cls-9" d="M158.6,525.3h0s0,.1-.2.1h.2Z" transform="translate(-44.8 -10.7)"/><path class="cls-9" d="M156.9,521.3v.3h-.1a.4.4,0,0,1-.1-.3h.2Z" transform="translate(-44.8 -10.7)"/><path class="cls-9" d="M160.1,521H160a.3.3,0,0,1-.1-.2Z" transform="translate(-44.8 -10.7)"/><path class="cls-9" d="M165.1,532.2h0c.1,0,.1-.1.2,0h.4c0,.1,0,.1-.1.2h-.5c-.2-.1-.2-.2-.1-.3Z" transform="translate(-44.8 -10.7)"/><path class="cls-9" d="M165.9,530.9h.2c.2.2.2.4.1.5h-.4a.5.5,0,0,1,0-.6Z" transform="translate(-44.8 -10.7)"/><path class="cls-9" d="M163.7,537.9h-.3v-.2h.2A.1.1,0,0,0,163.7,537.9Z" transform="translate(-44.8 -10.7)"/><path class="cls-9" d="M164,528.7h.5c0,.1,0,.2-.1.2H164Z" transform="translate(-44.8 -10.7)"/><path class="cls-9" d="M162.6,529.8h.3c.1,0,.1.1.2.2h-.5c-.1,0-.2-.1-.1-.3Z" transform="translate(-44.8 -10.7)"/><path class="cls-9" d="M160.7,533.7h0Z" transform="translate(-44.8 -10.7)"/><path class="cls-9" d="M162.2,533.9a.1.1,0,0,1,.1.1c0,.1,0,.1-.1.2h-.3c.1-.1.1-.2.2-.2A.1.1,0,0,1,162.2,533.9Z" transform="translate(-44.8 -10.7)"/><path class="cls-9" d="M161.5,528.2h.1a.8.8,0,0,1,.1.4h-.5a1,1,0,0,1-.1-.3l.3-.2Z" transform="translate(-44.8 -10.7)"/><path class="cls-9" d="M164.9,527.4h-.3V527h.4a.2.2,0,0,1,.1.3h-.2Z" transform="translate(-44.8 -10.7)"/><path class="cls-9" d="M152.6,522.7h0a.1.1,0,0,1-.1-.1h0c-.1,0-.1-.1,0-.1Z" transform="translate(-44.8 -10.7)"/><path class="cls-9" d="M162.4,523.9h.3a.6.6,0,0,1,.2.5h-.5v-.2A.4.4,0,0,1,162.4,523.9Z" transform="translate(-44.8 -10.7)"/><path class="cls-9" d="M156.6,543.8h.1c0,.1-.1.1-.1.2h0Z" transform="translate(-44.8 -10.7)"/><path class="cls-9" d="M157.3,535.7h0a.1.1,0,0,1-.1.1h0c-.1-.1-.1-.2,0-.2h.1Z" transform="translate(-44.8 -10.7)"/><path class="cls-9" d="M155.3,538.9h0Z" transform="translate(-44.8 -10.7)"/><path class="cls-9" d="M159.6,533.8h0v-.2c0-.1.1-.1.2,0h.2a.4.4,0,0,1-.1.3h-.4A.2.2,0,0,1,159.6,533.8Z" transform="translate(-44.8 -10.7)"/><path class="cls-9" d="M159.2,540h.2a.1.1,0,0,1,0,.2h-.2Z" transform="translate(-44.8 -10.7)"/><path class="cls-9" d="M162.9,528.5h.1a.4.4,0,0,1,.1.3h-.3v-.2a.3.3,0,0,1,.1-.2h.1Z" transform="translate(-44.8 -10.7)"/><path class="cls-9" d="M165.7,530.8h-.2v-.2h.2Z" transform="translate(-44.8 -10.7)"/><path class="cls-9" d="M157.9,538.5h0Z" transform="translate(-44.8 -10.7)"/><path class="cls-9" d="M154,535.4h.2v.2H154a.1.1,0,0,0-.1-.1h.1Z" transform="translate(-44.8 -10.7)"/><path class="cls-9" d="M160.8,526.1c0,.1.1.2,0,.2h0Z" transform="translate(-44.8 -10.7)"/><path class="cls-9" d="M155.9,532.6a.1.1,0,0,1-.2,0h0a.1.1,0,0,1,.1-.1h.1A.1.1,0,0,1,155.9,532.6Z" transform="translate(-44.8 -10.7)"/><path class="cls-9" d="M158.7,532.1h.1c0-.1.1-.1.2-.1h.1a.1.1,0,0,1,0,.2h-.4Z" transform="translate(-44.8 -10.7)"/><path class="cls-9" d="M157.6,533.3h.1c-.1,0-.1.1-.2.2h-.2C157.3,533.3,157.4,533.2,157.6,533.3Z" transform="translate(-44.8 -10.7)"/><path class="cls-9" d="M155.9,529.2v.3h-.1c-.1-.1-.1-.2-.1-.4h.2Z" transform="translate(-44.8 -10.7)"/><path class="cls-9" d="M159.2,529h0a.1.1,0,0,1-.1.1H159c-.1-.1-.1-.1,0-.2h.2Z" transform="translate(-44.8 -10.7)"/><path class="cls-9" d="M164.1,540.1h.4a.1.1,0,0,1,.1.1h.1c0,.1,0,.2-.1.2h-.5c-.2-.2-.2-.3-.1-.4Z" transform="translate(-44.8 -10.7)"/><path class="cls-9" d="M164.9,538.8h.2a.4.4,0,0,1,.2.4h-.5c-.1,0-.1-.1-.1-.2a.4.4,0,0,1,.1-.3Z" transform="translate(-44.8 -10.7)"/><path class="cls-9" d="M162.7,545.8h0v.2h.1Z" transform="translate(-44.8 -10.7)"/><path class="cls-9" d="M163,536.6h.5a.3.3,0,0,1-.1.2H163Z" transform="translate(-44.8 -10.7)"/><path class="cls-9" d="M161.6,537.7h.1c.1,0,.2,0,.2.1s.2.2.2.3h-.5a.4.4,0,0,1-.1-.3Z" transform="translate(-44.8 -10.7)"/><path class="cls-9" d="M159.7,541.7h-.2C159.6,541.5,159.7,541.6,159.7,541.7Z" transform="translate(-44.8 -10.7)"/><path class="cls-9" d="M161.3,541.8a.3.3,0,0,1,.1.2H161c0-.1,0-.1.1-.2Z" transform="translate(-44.8 -10.7)"/><path class="cls-9" d="M160.5,536.1h.1a.4.4,0,0,1,.1.3h-.4c-.1-.1-.2-.2-.1-.4l.2-.2Z" transform="translate(-44.8 -10.7)"/><path class="cls-9" d="M163.9,535.3a.1.1,0,0,1-.2,0h.3a.2.2,0,0,1,.1.3h-.2Z" transform="translate(-44.8 -10.7)"/><path class="cls-9" d="M151.6,530.6a.1.1,0,0,1,.1.1h-.1Z" transform="translate(-44.8 -10.7)"/><path class="cls-9" d="M161.4,531.8h.4c.1.1.2.3.1.4h-.4c-.1-.1-.2-.2-.2-.3S161.4,531.9,161.4,531.8Z" transform="translate(-44.8 -10.7)"/><path class="cls-5" d="M151.3,475.5s-1.2-15.3-13.3-26.3-24.4-9.6-27.9-3.4S112.1,474.7,151.3,475.5Z" transform="translate(-44.8 -10.7)"/><path class="cls-16" d="M132.5,466.2c8.9,1.2,11.6-4.1,12.1-9.3a45.7,45.7,0,0,1,6.7,18.5c-27.3-.6-38.2-11.7-41.2-20.6C114.4,460.6,121.5,464.6,132.5,466.2Z" transform="translate(-44.8 -10.7)"/><path class="cls-3" d="M127,455.6a101.4,101.4,0,0,1,14.2,10.1c0-.1,0-.2-.1-.2s-.7-2.3-1-3.5-1.1-3.9-1.9-5.8c-.1-.4.4-.5.6-.2,1.4,3.4,2.2,7,3.3,10.4s4.8,4.3,7.2,6.6c5.9,5.8,10,13.6,13.4,21.2s7.8,18.7,6.6,28.1c-.1.4-.7.2-.6-.2,1.3-9.6-3.1-20.8-7.2-29.2-3.3-6.9-7.2-14.1-12.7-19.5-2.3-2.2-4.6-4.4-7.1-6.5l-11.4.3a.3.3,0,1,1,0-.6l5.3-.2c1.8,0,3.7.1,5.5,0a104.7,104.7,0,0,0-14.4-10.3C126.4,455.9,126.7,455.4,127,455.6Z" transform="translate(-44.8 -10.7)"/><path class="cls-17" d="M121.6,463.3Z" transform="translate(-44.8 -10.7)"/><path class="cls-17" d="M122.3,455.2h-.2v-.2h.2Z" transform="translate(-44.8 -10.7)"/><path class="cls-17" d="M120.3,458.4h.1c0,.1-.1.1-.2.1h.1Z" transform="translate(-44.8 -10.7)"/><path class="cls-17" d="M124.5,453.3h0a.3.3,0,0,1,.1-.2.2.2,0,0,1,.3,0h.1c0,.1.1.2,0,.3h-.5Z" transform="translate(-44.8 -10.7)"/><path class="cls-17" d="M124.2,459.4h0a.1.1,0,0,1,.1.1c.1,0,.1.1.1.2h-.2a.1.1,0,0,1-.1-.1h.1Z" transform="translate(-44.8 -10.7)"/><path class="cls-17" d="M127.9,448h0c.2.1.2.2.1.3h-.3V448h.2Z" transform="translate(-44.8 -10.7)"/><path class="cls-17" d="M130.6,450.2c.1,0,.1,0,.1.1h-.1Z" transform="translate(-44.8 -10.7)"/><path class="cls-17" d="M122.9,458h.2v.2h-.2Z" transform="translate(-44.8 -10.7)"/><path class="cls-17" d="M119,454.9h.2a.1.1,0,0,1-.1.1H119Z" transform="translate(-44.8 -10.7)"/><path class="cls-17" d="M125.8,445.6v.2h0Z" transform="translate(-44.8 -10.7)"/><path class="cls-17" d="M120.9,452.1h-.2a.1.1,0,0,1,.1-.1h0C120.9,451.9,120.9,452,120.9,452.1Z" transform="translate(-44.8 -10.7)"/><path class="cls-17" d="M123.7,451.6h0c.1-.1.2-.2.3-.1h.1v.2h-.4Z" transform="translate(-44.8 -10.7)"/><path class="cls-17" d="M122.6,452.7h0Z" transform="translate(-44.8 -10.7)"/><path class="cls-17" d="M120.9,448.7v.3h-.1a.4.4,0,0,1-.1-.3h.2Z" transform="translate(-44.8 -10.7)"/><path class="cls-17" d="M124.1,448.4H124a.3.3,0,0,1-.1-.2h.2Z" transform="translate(-44.8 -10.7)"/><path class="cls-17" d="M129.1,459.6h.6v.2h-.5c-.2-.1-.2-.2-.1-.3Z" transform="translate(-44.8 -10.7)"/><path class="cls-17" d="M129.9,458.3h.2c.2.2.2.4.1.5h-.4a.5.5,0,0,1,0-.6Z" transform="translate(-44.8 -10.7)"/><path class="cls-17" d="M127.7,465.3h-.3v-.2h.3C127.6,465.3,127.6,465.3,127.7,465.3Z" transform="translate(-44.8 -10.7)"/><path class="cls-17" d="M128,456.1h.5a.4.4,0,0,1-.1.3H128Z" transform="translate(-44.8 -10.7)"/><path class="cls-17" d="M126.6,457.2h.3c.1,0,.1.1.1.2v.2h-.4c-.1,0-.2-.1-.1-.3Z" transform="translate(-44.8 -10.7)"/><path class="cls-17" d="M124.7,461.1h-.1c-.1,0-.1.1-.2,0h.3Z" transform="translate(-44.8 -10.7)"/><path class="cls-17" d="M126.2,461.3h.1c0,.1,0,.2-.1.2h-.3l.2-.2A.1.1,0,0,1,126.2,461.3Z" transform="translate(-44.8 -10.7)"/><path class="cls-17" d="M125.5,455.6h.1a.4.4,0,0,1,.1.3h-.5a.6.6,0,0,1-.1-.4l.3-.2Z" transform="translate(-44.8 -10.7)"/><path class="cls-17" d="M128.9,454.8h-.3v-.2h.4a.2.2,0,0,1,.1.3h-.2Z" transform="translate(-44.8 -10.7)"/><path class="cls-17" d="M116.6,450.1h0c-.1,0-.1,0-.1-.1h0c-.1,0-.1-.1,0-.1Z" transform="translate(-44.8 -10.7)"/><path class="cls-17" d="M126.4,451.3h.3a.6.6,0,0,1,.2.5h-.5v-.2A.4.4,0,0,1,126.4,451.3Z" transform="translate(-44.8 -10.7)"/><path class="cls-5" d="M164.1,464.8a44.2,44.2,0,0,1,1.6-25.3c5-13.4,15.5-15.5,21.5-9.7S191.2,456.2,164.1,464.8Z" transform="translate(-44.8 -10.7)"/><path class="cls-16" d="M189.7,440.9c-1.5,8.2-8.7,18.2-25.6,23.5A41.5,41.5,0,0,1,163,453C175.5,457.3,186.1,445.6,189.7,440.9Z" transform="translate(-44.8 -10.7)"/><path class="cls-3" d="M169.1,453.9c-.1,0-.1-.1-.1-.2-.3-3.7-.7-7.4-1-11.1-.1-.4.5-.4.6,0s.3,3.4.4,5.1.2,3.7.5,5.5a97.8,97.8,0,0,1,6.7-10.5.3.3,0,1,1,.5.3,91,91,0,0,0-6.5,10.1.1.1,0,0,0,.1-.1l3.3-1.2,5.2-1.9c.4-.2.5.4.2.5l-9.2,3.5c-11,20.3-13.2,42.9-9.5,66.6.1.4-.5.5-.5.2C156,496.9,158.1,474.3,169.1,453.9Z" transform="translate(-44.8 -10.7)"/><path class="cls-17" d="M172.9,451.4h0Z" transform="translate(-44.8 -10.7)"/><path class="cls-17" d="M173.6,443.4h-.2v-.2h.2Z" transform="translate(-44.8 -10.7)"/><path class="cls-17" d="M171.6,446.5a.1.1,0,0,1,.1.1h-.2s-.1-.1,0-.1Z" transform="translate(-44.8 -10.7)"/><path class="cls-17" d="M175.8,441.4h0v-.2h.4c0,.1.1.2,0,.3h-.5Z" transform="translate(-44.8 -10.7)"/><path class="cls-17" d="M175.4,447.6h.2c.1,0,.1.1.1.2h-.3Z" transform="translate(-44.8 -10.7)"/><path class="cls-17" d="M179.2,436.1h0v.3H179v-.4h.2Z" transform="translate(-44.8 -10.7)"/><path class="cls-17" d="M181.9,438.4h.2v.2h-.3v-.2h.2Z" transform="translate(-44.8 -10.7)"/><path class="cls-17" d="M174.2,446.1h0Z" transform="translate(-44.8 -10.7)"/><path class="cls-17" d="M170.3,443h0s.1-.1.1,0h-.2s-.1,0,0-.1Z" transform="translate(-44.8 -10.7)"/><path class="cls-17" d="M177.1,433.8h-.2v-.2h.2Z" transform="translate(-44.8 -10.7)"/><path class="cls-17" d="M172.2,440.2c-.1.1-.1.1-.2,0h.1C172.2,440,172.2,440.1,172.2,440.2Z" transform="translate(-44.8 -10.7)"/><path class="cls-17" d="M175,439.7h.3a.3.3,0,0,1,.1.2h-.1c-.1.1-.2.1-.2,0H175Z" transform="translate(-44.8 -10.7)"/><path class="cls-17" d="M173.9,440.9h0l-.2.2a.1.1,0,0,1-.1-.1h-.1C173.6,440.9,173.7,440.8,173.9,440.9Z" transform="translate(-44.8 -10.7)"/><path class="cls-17" d="M172.2,436.8v.3H172v-.5Z" transform="translate(-44.8 -10.7)"/><path class="cls-17" d="M175.4,436.6h.1a.1.1,0,0,0-.1.1h-.1v-.2h.2Z" transform="translate(-44.8 -10.7)"/><path class="cls-17" d="M180.4,447.7h.6c0,.1,0,.2-.1.2h-.6c-.1-.2-.1-.3,0-.4Z" transform="translate(-44.8 -10.7)"/><path class="cls-17" d="M181.2,446.4h.2c.2.1.1.3.1.4h-.2c-.1,0-.2,0-.2-.1s-.1-.1-.1-.2,0-.3.1-.3Z" transform="translate(-44.8 -10.7)"/><path class="cls-17" d="M179,453.4h0v.2h-.1a.1.1,0,0,1-.1-.1.1.1,0,0,0-.1-.1h.4Z" transform="translate(-44.8 -10.7)"/><path class="cls-17" d="M179.2,444.2h.6a.3.3,0,0,1-.1.2h-.5Z" transform="translate(-44.8 -10.7)"/><path class="cls-17" d="M177.8,445.3h.4a.4.4,0,0,1,.1.3h-.4c-.1-.1-.2-.2-.1-.4Z" transform="translate(-44.8 -10.7)"/><path class="cls-17" d="M176,449.3h-.3a.1.1,0,0,1,.1-.1C175.9,449.1,176,449.2,176,449.3Z" transform="translate(-44.8 -10.7)"/><path class="cls-17" d="M177.5,449.4c.1,0,.1.1.1.2h-.4a.1.1,0,0,1,.1-.1Z" transform="translate(-44.8 -10.7)"/><path class="cls-17" d="M176.8,443.7h.1a.4.4,0,0,1,.1.3h-.5c-.1-.1-.1-.2-.1-.4s.1-.2.3-.2Z" transform="translate(-44.8 -10.7)"/><path class="cls-17" d="M180.2,442.9c-.1.1-.1.1-.2,0h.3a.2.2,0,0,1,.1.3h-.2Z" transform="translate(-44.8 -10.7)"/><path class="cls-17" d="M167.9,438.3c0-.1,0,0,.1,0h-.2c-.1,0-.1,0,0-.1Z" transform="translate(-44.8 -10.7)"/><path class="cls-17" d="M177.7,439.5h.3a.4.4,0,0,1,.2.4h-.5a.4.4,0,0,1-.1-.3C177.6,439.6,177.6,439.5,177.7,439.5Z" transform="translate(-44.8 -10.7)"/><path class="cls-18" d="M331.4,234.2s-9.1-4.5-7.6-16.9,18.8-22.7,31.4-9.2S350.8,242.9,331.4,234.2Z" transform="translate(-44.8 -10.7)"/><path class="cls-19" d="M323.8,217.7c-.7,1.6-.1-1.4-.3.2-1.6,12.4,7.6,16.9,7.6,16.9,10.2,4.6,19.7.8,24.6-5.7C345.6,206,327.9,213.5,323.8,217.7Z" transform="translate(-44.8 -10.7)"/><path class="cls-5" d="M325,213a23.7,23.7,0,0,0,10.2,1.9c7-.1,12.6-4.1,15.9-10.3,0-.1-.1-.2-.2-.1-3.3,6.4-9.1,10.3-16.3,10.3a22.2,22.2,0,0,1-9.5-2c-.1,0-.2.1-.1.2Z" transform="translate(-44.8 -10.7)"/><path class="cls-5" d="M359.5,218.9c-2.8-.3-6.1.5-7.9,2.7s-3,8.3-.7,11.6c.1.1.2,0,.2-.1-2.4-3.4-1.8-9.1,1.2-12a9.2,9.2,0,0,1,7.2-2c.1,0,.1-.2,0-.2Z" transform="translate(-44.8 -10.7)"/><path class="cls-15" d="M346.7,205.1h.1v.2h0v-.2h-.1Z" transform="translate(-44.8 -10.7)"/><path class="cls-15" d="M346.1,231.9h.4c.1-.1.1-.1,0-.2h-.2C346.1,231.7,346.1,231.8,346.1,231.9Z" transform="translate(-44.8 -10.7)"/><path class="cls-15" d="M344.7,224.9h0v.2l.3.2h.2V225h0a.4.4,0,0,0-.4-.2h-.1Z" transform="translate(-44.8 -10.7)"/><path class="cls-15" d="M350.3,226h0Z" transform="translate(-44.8 -10.7)"/><path class="cls-15" d="M338,228.7h.1v-.2c.1,0,.1-.1,0-.1S338.2,228.7,338,228.7Z" transform="translate(-44.8 -10.7)"/><path class="cls-15" d="M342.4,229.1h0C342.3,229,342.3,229,342.4,229.1Z" transform="translate(-44.8 -10.7)"/><path class="cls-15" d="M343.2,207.7h-.4c-.1.1-.1.2-.1.4h.8c.1-.1.2-.2.2-.3v-.3h-.4Z" transform="translate(-44.8 -10.7)"/><path class="cls-15" d="M352.3,209.2h0c0,.1-.1.2,0,.2s.1.2.3.2h.2v-.2h-.5Z" transform="translate(-44.8 -10.7)"/><path class="cls-15" d="M334.3,210.9h0l.4.2h.2v-.3l-.2-.2h-.4Z" transform="translate(-44.8 -10.7)"/><path class="cls-15" d="M336.7,215.7h.5c.1-.1.1-.1,0-.2h-.4Z" transform="translate(-44.8 -10.7)"/><path class="cls-15" d="M350.5,206.9h.6v-.2h0v-.2h-.4Z" transform="translate(-44.8 -10.7)"/><path class="cls-15" d="M331.6,207c0,.1.1.2.2.1h-.1a.1.1,0,0,0-.1-.1h-.1C331.5,206.9,331.5,207,331.6,207Z" transform="translate(-44.8 -10.7)"/><path class="cls-15" d="M342.6,202a.4.4,0,0,0,.1-.3h-.4C342.3,202,342.5,202,342.6,202Z" transform="translate(-44.8 -10.7)"/><path class="cls-15" d="M341,205.9h-.2c-.2,0-.3.2-.2.3h.1c.1.2.2.2.3.1h.1a.6.6,0,0,0,.1-.4H341Z" transform="translate(-44.8 -10.7)"/><path class="cls-15" d="M343,204.7h.3c.1-.1.3-.1.3-.3v-.2h-.3A.6.6,0,0,0,343,204.7Z" transform="translate(-44.8 -10.7)"/><path class="cls-15" d="M336.2,205.6h.4c-.1-.1-.2-.2-.3-.1h-.1Z" transform="translate(-44.8 -10.7)"/><path class="cls-15" d="M350.9,216.5h0v.2h-.1c0,.1-.1.2,0,.2v.2h.8v-.4c-.2-.2-.4-.3-.5-.2h-.2Z" transform="translate(-44.8 -10.7)"/><path class="cls-15" d="M348.1,221.4c.1.1.1.2.2.2h-.2Z" transform="translate(-44.8 -10.7)"/><path class="cls-15" d="M343.2,220.3v.2h.7v-.6h-.5A.5.5,0,0,0,343.2,220.3Z" transform="translate(-44.8 -10.7)"/><path class="cls-15" d="M348.7,217.2v.2h.1a.5.5,0,0,0,.5.4h.4v-.4l-.4-.2c-.1-.1-.3,0-.5.1Z" transform="translate(-44.8 -10.7)"/><path class="cls-15" d="M333.9,220.4h-.2v.1Z" transform="translate(-44.8 -10.7)"/><path class="cls-15" d="M346.2,213.6h-.4l-.2.2h0v.4h.6V214h-.1Z" transform="translate(-44.8 -10.7)"/><path class="cls-15" d="M348.2,211.9h-.1a.3.3,0,0,0,0,.4l.3.3h.3v-.2c.1-.1.1-.2,0-.4a.4.4,0,0,0-.4-.2Z" transform="translate(-44.8 -10.7)"/><path class="cls-15" d="M354.6,210.5h.2v-.2h-.3A.2.2,0,0,0,354.6,210.5Z" transform="translate(-44.8 -10.7)"/><path class="cls-15" d="M354.3,212.8a.2.2,0,0,0,.2.2h-.2A.2.2,0,0,0,354.3,212.8Z" transform="translate(-44.8 -10.7)"/><path class="cls-15" d="M353.7,224.6h.1c.1.1.1,0,.2,0h-.2v.2Z" transform="translate(-44.8 -10.7)"/><path class="cls-15" d="M346.2,209.8h0v.2l.4.2h.4a.4.4,0,0,0,0-.5c-.1-.2-.2-.3-.4-.3a.5.5,0,0,0-.5.3Z" transform="translate(-44.8 -10.7)"/><path class="cls-15" d="M338.3,220h0v.2h0a.1.1,0,0,0,.1.1l.2.2h.4c-.1-.1-.1-.2-.2-.2h-.2l-.2.2Z" transform="translate(-44.8 -10.7)"/><path class="cls-15" d="M344,214.6v-.5h-.5v.2h-.1v.2a.5.5,0,0,0,.5.3v-.2Z" transform="translate(-44.8 -10.7)"/><path class="cls-15" d="M339.7,209.8h-.2v.2a.1.1,0,0,1,.1.1.6.6,0,0,0,.6.4h.3a.6.6,0,0,0-.1-.4l-.3-.3Z" transform="translate(-44.8 -10.7)"/><path class="cls-15" d="M354.2,219.3h.6v-.2h-.5Z" transform="translate(-44.8 -10.7)"/><path class="cls-15" d="M331.2,214.8h-.1c-.1-.1-.2,0-.3,0v.2h.3C331.2,215,331.2,214.9,331.2,214.8Z" transform="translate(-44.8 -10.7)"/><path class="cls-15" d="M340.6,226h.1A.4.4,0,0,0,340.6,226Z" transform="translate(-44.8 -10.7)"/><path class="cls-20" d="M200.6,420.3s14.9,56.1,19.2,73.2-2.4,24.6-9.1,33.2-7.3,9.4-9.9,11.8-7.8,3.6-6.6,6.4,8.5,2.1,11.4.6,4.9-1.4,14.1-8.4,14-13.8,22.9-13.8,9.3-10.2,5.5-14.4c-6.4-7.2-9.6-10-12.5-28.9s1.4-31.3-6.6-55.7" transform="translate(-44.8 -10.7)"/><path class="cls-18" d="M185.4,505.7s-1.5,11.6-3.9,17.5-8.4,11.5-15.6,20.1-11.8,9.2-15.3,11.3-.8,6.3,6,5c9.3-1.8,11.2-1.4,23.6-10.6s19.7-5.5,23.1-8.9,3.1-7.2-.7-15.6-1.6-15,0-25" transform="translate(-44.8 -10.7)"/><path class="cls-17" d="M364.2,389.7l-36-2.3-4.3,11.8s-89.2-9.2-116.6-.5c-14.2,4.4-14.3,28.6-14.3,28.6l-7.2,72.2-1.3,11.1h1.1l14.9,2.5a164.1,164.1,0,0,1,6.9-26.8h0c16.3-35.6,12.4-48.9,13-57.9s63,9.2,63,9.2h0c7.3,2.5,12.5,2.8,22.3,4.9,31.8,6.5,51.8,3.7,58.5-20.4C364.2,422.2,368.1,406.4,364.2,389.7Z" transform="translate(-44.8 -10.7)"/><path class="cls-18" d="M237.6,490.1c-8,3.1-14,3.5-17.8,3.3h0c4.3,17-2.4,24.6-9.1,33.2s-7.3,9.4-9.9,11.8-7.8,3.6-6.6,6.4,8.5,2.1,11.4.6,4.9-1.4,14.1-8.4,14-13.8,22.9-13.8,9.3-10.2,5.5-14.4S240,500.2,237.6,490.1Z" transform="translate(-44.8 -10.7)"/><path class="cls-21" d="M223.9,356.3h0c-6.9.8-12-.2-23.1-.7s-17.3,8.6-18.5,11.3,1.7,2,3.5.1,5-7.8,16.2-3.2a32.2,32.2,0,0,0,11.9,2.1,17.1,17.1,0,0,0,7.4-1.9c7.7-.6,44.9,7.3,55.2,9l1.7-16.4C275.6,357.6,240.3,354.2,223.9,356.3Z" transform="translate(-44.8 -10.7)"/><path class="cls-18" d="M304.7,270.9s.7,4.4-6.5,10.7S272,300.2,276,323.3s18.7,24.2,30.6,23.7,18.5-62.2,11.8-73.3" transform="translate(-44.8 -10.7)"/><path class="cls-19" d="M289,315c-4.1-23.1,14.9-35.4,22.1-41.7l1-.9-7.4-1.5s.7,4.4-6.5,10.7S272,300.2,276,323.3s18.7,24.2,30.6,23.7c2.7-.1,5.1-3.3,7.1-8.3C303.2,338.3,292.4,334.4,289,315Z" transform="translate(-44.8 -10.7)"/><path class="cls-5" d="M309,273.4a21.3,21.3,0,0,1,.1,9.4,21.7,21.7,0,0,1-3.7,8.2c-2.3,3.1-5.6,5.2-8.4,7.8-8.6,8.1-14.7,19.7-12,31.7,1.5,6.4,5.4,11.8,10.4,16,.1.1.2-.1.1-.1-4.8-4-8.6-9.1-10.1-15.2a28.1,28.1,0,0,1,1.3-17.4c2.5-6.5,7.1-12.1,12.4-16.7,2.5-2.1,5.1-4,7-6.8a20.6,20.6,0,0,0,3.1-7.5,19.9,19.9,0,0,0,0-9.4Z" transform="translate(-44.8 -10.7)"/><path class="cls-5" d="M310.2,271.9c4.9,8,5.8,18.9,2.9,27.7-1.4,4-3.8,7.5-5.5,11.3a42.5,42.5,0,0,0-3.1,9.1,33.6,33.6,0,0,0,.4,14.8,39.9,39.9,0,0,0,4.7,10.3c0,.1.2,0,.1-.1-4.7-7.8-6.9-16.3-4.9-25.4a46.9,46.9,0,0,1,3.7-10.3c1.7-3.4,3.7-6.5,4.9-10.2a33.4,33.4,0,0,0,.5-18,28.5,28.5,0,0,0-3.6-9.3c0-.1-.2,0-.1.1Z" transform="translate(-44.8 -10.7)"/><path class="cls-22" d="M309.1,270.2s6.9,8.5,5.1,17.7-2.4,10-2.4,10l22.7-19.3s-14-6-11.3-16.8" transform="translate(-44.8 -10.7)"/><path class="cls-21" d="M302.3,238s-3.1,2.5-3.4,8.6,1.2,6.5-2.2,10.8l-1.4,1.6a7,7,0,0,0,2.5,1.9c1.7,1,.7,5.1,3,11.7s21-8.7,21-8.7,11.6-5.5,8-15.6-14.3-20-27.1-10.3" transform="translate(-44.8 -10.7)"/><path class="cls-23" d="M310.3,271.9l9.6-6.5a24.9,24.9,0,0,1-8.2,8.9Z" transform="translate(-44.8 -10.7)"/><path class="cls-23" d="M298.9,246.6s.9,7.3,22.9,10.4l1.5-5.7" transform="translate(-44.8 -10.7)"/><path class="cls-5" d="M328.1,274.8s-1.4,12.5-15.4,20.3c0,0-13.3,29.7-10.3,44.6s14.9,44.1,11.1,59.1c0,0,41.3,17.9,52.3,9.9,4.7-3.5,1.7-61.9-12-104.5-8.7-26.9-25.6-29.4-25.6-29.4" transform="translate(-44.8 -10.7)"/><path class="cls-16" d="M309.1,360s33.9-33.4,35.8-43.4,8.8,32.6-32,58.4l-.9.5-3.8-14.7" transform="translate(-44.8 -10.7)"/><path class="cls-24" d="M330.4,289.4s-4.8,3.2-20.2,24.7-19,40.6-34.9,42.1l-2.2,16.2s17.2,5.5,31-7.6,39.6-36.2,43.2-52.7c2.6-11.8-.8-20.1-4.6-23.2S333.8,287.5,330.4,289.4Z" transform="translate(-44.8 -10.7)"/><path class="cls-19" d="M333.4,375.8v.2c-.1,0,0,.1,0,.1h.2c0-.1,0-.1-.1-.2h-.1Z" transform="translate(-44.8 -10.7)"/><path class="cls-19" d="M332.4,363.8h0c.1,0,0,.1.1.1h.1a.2.2,0,0,0,0-.3h-.2Z" transform="translate(-44.8 -10.7)"/><path class="cls-19" d="M335.4,368.6c-.1,0-.2-.1-.2,0v.2h.4c.1,0,.1-.1,0-.2Z" transform="translate(-44.8 -10.7)"/><path class="cls-19" d="M329,360.9h0c0-.1,0-.2-.2-.3h-.4v.2h0a.4.4,0,0,0,0,.5h.7C329.1,361.1,329.1,361,329,360.9Z" transform="translate(-44.8 -10.7)"/><path class="cls-19" d="M329.6,370.1h-.3a.2.2,0,0,0-.1.3h.6v-.2h-.2Z" transform="translate(-44.8 -10.7)"/><path class="cls-19" d="M324,353h-.1a.4.4,0,0,0-.2.4h.5v-.2a.4.4,0,0,0-.1-.3H324Z" transform="translate(-44.8 -10.7)"/><path class="cls-19" d="M319.8,356.3h-.2v.2h.5v-.4h-.3Z" transform="translate(-44.8 -10.7)"/><path class="cls-19" d="M331.4,367.9h-.2v.2a.3.3,0,0,0,.1.2h.4v-.2h-.3Z" transform="translate(-44.8 -10.7)"/><path class="cls-19" d="M337.3,363.3h0c0-.1-.1-.1-.2-.1v.2h.3c.1,0,.1-.1.1-.2Z" transform="translate(-44.8 -10.7)"/><path class="cls-19" d="M327.2,349.4c-.1.1-.2.2-.1.3h.3v-.2c.1,0,.1,0,0-.1h-.2Z" transform="translate(-44.8 -10.7)"/><path class="cls-19" d="M334.5,359.1h.3a.3.3,0,0,0-.1-.2h-.1C334.4,358.8,334.4,359,334.5,359.1Z" transform="translate(-44.8 -10.7)"/><path class="cls-19" d="M330.3,358.4h-.1a.4.4,0,0,0-.4-.2h-.1c-.1.1-.1.3,0,.3h.6Z" transform="translate(-44.8 -10.7)"/><path class="cls-19" d="M331.9,360.1h-.1l.3.3h.4v-.2h-.1A.5.5,0,0,0,331.9,360.1Z" transform="translate(-44.8 -10.7)"/><path class="cls-19" d="M334.4,354a.6.6,0,0,1,.1.4h.2c0-.1.1-.3,0-.4s-.1-.2-.1-.3Z" transform="translate(-44.8 -10.7)"/><path class="cls-19" d="M329.6,353.6v.2h.1v.2h.2a.4.4,0,0,0,.1-.3h-.3Z" transform="translate(-44.8 -10.7)"/><path class="cls-19" d="M322.1,370.4h-.8v.2h0a.4.4,0,0,0,.1.3h.8c.2-.2.2-.4.1-.5h-.2Z" transform="translate(-44.8 -10.7)"/><path class="cls-19" d="M320.9,368.4h-.3a.6.6,0,0,0-.2.6h.7a.5.5,0,0,0,0-.8Z" transform="translate(-44.8 -10.7)"/><path class="cls-19" d="M324.3,378.9v.2l.2.2h.3c0-.1.1-.2.1-.3h-.5Z" transform="translate(-44.8 -10.7)"/><path class="cls-19" d="M323.9,365.1h0v-.2h-.5l-.2.2v.2h0a.4.4,0,0,0,.1.3h.6Z" transform="translate(-44.8 -10.7)"/><path class="cls-19" d="M326,366.8h-.6a.8.8,0,0,0-.2.4v.2h.6a.4.4,0,0,0,.1-.5Z" transform="translate(-44.8 -10.7)"/><path class="cls-19" d="M328.7,372.7h.4a.1.1,0,0,0,.1-.1H329Z" transform="translate(-44.8 -10.7)"/><path class="cls-19" d="M326.4,372.9c-.1,0-.1.1-.1.2a.2.2,0,0,0,.2.2h.4a.2.2,0,0,0-.2-.2Z" transform="translate(-44.8 -10.7)"/><path class="cls-19" d="M327.6,364.3h-.2a1.1,1.1,0,0,0-.1.5v.2h.6c.2-.1.2-.3.2-.5s-.2-.3-.4-.4Z" transform="translate(-44.8 -10.7)"/><path class="cls-19" d="M322.5,363.2h.3v-.6h-.6c-.3.2-.2.5-.1.5h.3Z" transform="translate(-44.8 -10.7)"/><path class="cls-19" d="M340.9,356.1h.2v-.2Z" transform="translate(-44.8 -10.7)"/><path class="cls-19" d="M326.2,358h-.4a.1.1,0,0,0-.1.1c-.3.2-.3.4-.2.6h.6c.2-.1.2-.2.3-.4S326.3,358.1,326.2,358Z" transform="translate(-44.8 -10.7)"/><path class="cls-19" d="M316.3,375.1h-.1c-.1.1-.1.1-.1.2h0a.2.2,0,0,0,.2.2h0v-.2h0Z" transform="translate(-44.8 -10.7)"/><path class="cls-19" d="M323,365v.2h0a.2.2,0,0,0,.2-.2H323Z" transform="translate(-44.8 -10.7)"/><path class="cls-19" d="M322.4,370.7l-.2-.2h-.1c0,.2.1.3.2.3h.1Z" transform="translate(-44.8 -10.7)"/><path class="cls-19" d="M322.2,360.7h0c.1-.1.2-.2.1-.4s-.1-.2-.3-.2h-.3c-.1.1-.3.2-.3.4a.5.5,0,0,0,.2.4h.4C322.2,360.9,322.2,360.8,322.2,360.7Z" transform="translate(-44.8 -10.7)"/><path class="cls-19" d="M316.9,368.2h-.2c-.1,0-.3,0-.3.2h0v.2h.4Z" transform="translate(-44.8 -10.7)"/><path class="cls-19" d="M323.3,351.3h-.1c-.2,0-.3.1-.3.2h.5a.4.4,0,0,0,.1-.3h-.2Z" transform="translate(-44.8 -10.7)"/><path class="cls-19" d="M318,351.4h-.4a.3.3,0,0,1-.1.2h.1v.2h.2v-.2h0Z" transform="translate(-44.8 -10.7)"/><path class="cls-19" d="M319.7,367.7h-.3c-.1.1-.1.1-.1.3h.4Z" transform="translate(-44.8 -10.7)"/><path class="cls-19" d="M327.2,367.7h0v0h-.1v.2h.2a.1.1,0,0,0,.1-.1v-.2Z" transform="translate(-44.8 -10.7)"/><path class="cls-19" d="M328,350.6a.2.2,0,0,0-.2.2h.1a.1.1,0,0,1,.1.1h0Z" transform="translate(-44.8 -10.7)"/><path class="cls-19" d="M327.7,362.7c0,.1,0,.2.1.2h.2v-.2h-.1Z" transform="translate(-44.8 -10.7)"/><path class="cls-19" d="M324.8,359.5h.1c0-.2-.1-.3-.2-.3h-.2a.2.2,0,0,0-.2.2h0c0,.1.1.2.3.2h.2Z" transform="translate(-44.8 -10.7)"/><path class="cls-19" d="M325,361.9h-.3a.8.8,0,0,0,.1.4h.5A.4.4,0,0,0,325,361.9Z" transform="translate(-44.8 -10.7)"/><path class="cls-19" d="M330.8,358.7c-.1.1-.1.3-.2.4v.2l.3-.4v-.2Z" transform="translate(-44.8 -10.7)"/><path class="cls-19" d="M327.3,355.4h-.2v.2h.1c.2,0,.3-.1.3-.2h-.2Z" transform="translate(-44.8 -10.7)"/><path class="cls-19" d="M311,363.7h0l-.2-.2h-.2a.1.1,0,0,0-.1-.1h-.4a.4.4,0,0,0-.1.3v.2h.5c.3,0,.4-.2.4-.3v-.2Z" transform="translate(-44.8 -10.7)"/><path class="cls-19" d="M311.2,361.5H311c-.4,0-.5.3-.6.4h0v.2h.1l.3.2.4-.2c.1-.2.2-.3.1-.5Z" transform="translate(-44.8 -10.7)"/><path class="cls-19" d="M315.6,360.7h.2v-.2H315s-.1.1,0,.3v.2h.6Z" transform="translate(-44.8 -10.7)"/><path class="cls-19" d="M316.2,363.3h-.1c0-.1-.2-.1-.3-.1a.4.4,0,0,0-.4.2h-.1v.2h.1l.4.2a.4.4,0,0,0,.4-.3Z" transform="translate(-44.8 -10.7)"/><path class="cls-19" d="M314.6,369.7h.4v-.2Z" transform="translate(-44.8 -10.7)"/><path class="cls-19" d="M312.7,368.4c-.1,0-.2,0-.2.1a.2.2,0,0,0,0,.3h.5a.2.2,0,0,0,0-.3Z" transform="translate(-44.8 -10.7)"/><path class="cls-19" d="M319,362.5h-.2c-.3.1-.4.2-.4.3v.2h0c.1.2.2.3.4.3a.9.9,0,0,0,.5-.3,1.3,1.3,0,0,0-.1-.6Z" transform="translate(-44.8 -10.7)"/><path class="cls-19" d="M315.7,358.4h.6v-.2h0v-.2H316a.4.4,0,0,0-.4.3v.4Z" transform="translate(-44.8 -10.7)"/><path class="cls-19" d="M334.5,364.5a.1.1,0,0,0-.1-.1h0a.1.1,0,0,0,0,.2h0l.2-.2A.1.1,0,0,0,334.5,364.5Z" transform="translate(-44.8 -10.7)"/><path class="cls-19" d="M321.9,356.6h-.4a.7.7,0,0,0-.6.4h.1v.2h.4l.4-.2C321.9,356.9,321.9,356.8,321.9,356.6Z" transform="translate(-44.8 -10.7)"/><path class="cls-25" d="M341.6,222.8c-15-11.1-41.3-2.3-45.2,10.7,0,0-8.2,15.7,18.3,20.4,0,0,2.6-3.1,5.2-1.2s-1,5.9-1,5.9-1.5.3.8,6.1h-.1c3.9,11,18.7,14.4,18.7,14.4,5.9-5.3,9.5-17.3,9.5-17.3h0C352.9,247.8,353.9,232,341.6,222.8Z" transform="translate(-44.8 -10.7)"/><path class="cls-5" d="M300.4,227.2a8.8,8.8,0,0,1,5.4,2.7c2.3,2.5,2.2,5.9,2.2,9.1,0,6,.8,11.9,6.7,15,.1,0,.2-.1.1-.2a11.6,11.6,0,0,1-6.3-8.7c-.5-3.2-.2-6.4-.4-9.5s-3.2-8-7.7-8.6c-.2,0-.2.1,0,.2Z" transform="translate(-44.8 -10.7)"/><path class="cls-19" d="M350.9,238a90.6,90.6,0,0,1-2.7,10.5c-7.5,23-23.1,14.2-29,9.9a.7.7,0,0,1-.3.3s-1.5.3.8,6.1h-.1c3.9,11,18.6,14.9,18.6,14.9,5.9-5.3,9.6-17.8,9.6-17.8h0C350.7,254,352.3,245.5,350.9,238Z" transform="translate(-44.8 -10.7)"/><path class="cls-5" d="M318.5,261c4.8,8.9,16,12,25.4,10.5.1,0,0-.2-.1-.2-9.3,1.5-20.4-1.6-25.2-10.4,0-.1-.2,0-.1.1Z" transform="translate(-44.8 -10.7)"/><path class="cls-5" d="M302.9,224.9c8.2-1.9,17.9.6,23,7.5s5.4,17.1,10,24.8a15.1,15.1,0,0,0,10.8,7.5c.1,0,.2-.2.1-.2-10.8-1.8-13.2-12.5-15.9-21.4-1.3-4.1-2.7-8.3-5.5-11.6a20.6,20.6,0,0,0-13.5-7.1,24.8,24.8,0,0,0-9,.4c-.1,0-.1.1,0,.1Z" transform="translate(-44.8 -10.7)"/><path class="cls-5" d="M306.2,222.8a30.9,30.9,0,0,1,17.3-.9c5,1.2,8.8,4.3,11.9,8.3s3.7,5.9,5.8,8.7,6.2,5.5,10.1,7.1c.1.1.1-.1,0-.1-4.2-1.7-7.9-4-10.5-7.8s-3.5-6-5.8-8.7a22.1,22.1,0,0,0-10.6-7.5,29.4,29.4,0,0,0-11.8-.7,35.8,35.8,0,0,0-6.5,1.4c-.1,0,0,.2.1.2Z" transform="translate(-44.8 -10.7)"/><path class="cls-3" d="M317.9,442.5q-16,51.6-32.2,103.1c-.7,2.2,2.7,3.1,3.4.9q16-51.4,32.2-103.1C322,441.3,318.6,440.4,317.9,442.5Z" transform="translate(-44.8 -10.7)"/><path class="cls-3" d="M382.5,545.6q-16-51.5-32.2-103.1c-.7-2.1-4-1.2-3.3.9q16,51.6,32.2,103.1C379.8,548.7,383.2,547.8,382.5,545.6Z" transform="translate(-44.8 -10.7)"/><path class="cls-3" d="M383.6,321.5c-.8-3.7-7.2-3-6.8.9,4.4,40.9,1.4,95.1-44.1,111.3a93.1,93.1,0,0,1-38.3,4.5c-4.9-.6-9.7-1.4-14.5-2.4a3.4,3.4,0,0,0-4.3,3,3,3,0,0,0,2.5,3.7,106.4,106.4,0,0,0,17.2,2.8c32.9,3.9,76.7,1.1,89-31.5C394.9,385.6,390.2,350.3,383.6,321.5Z" transform="translate(-44.8 -10.7)"/></svg>